%TF.GenerationSoftware,KiCad,Pcbnew,7.0.9*%
%TF.CreationDate,2024-05-03T00:29:54-04:00*%
%TF.ProjectId,Nav Switch Mount,4e617620-5377-4697-9463-68204d6f756e,rev?*%
%TF.SameCoordinates,Original*%
%TF.FileFunction,Drillmap*%
%TF.FilePolarity,Positive*%
%FSLAX45Y45*%
G04 Gerber Fmt 4.5, Leading zero omitted, Abs format (unit mm)*
G04 Created by KiCad (PCBNEW 7.0.9) date 2024-05-03 00:29:54*
%MOMM*%
%LPD*%
G01*
G04 APERTURE LIST*
%ADD10C,0.100000*%
%ADD11C,0.200000*%
%ADD12C,0.210000*%
G04 APERTURE END LIST*
D10*
X14980563Y-4535564D02*
X16830000Y-4535564D01*
X17050000Y-4755564D02*
X17050000Y-5630000D01*
X16830000Y-5850000D02*
G75*
G03*
X17050000Y-5630000I0J220000D01*
G01*
X14760560Y-5630000D02*
G75*
G03*
X14980563Y-5850000I220000J0D01*
G01*
X14760563Y-5630000D02*
X14760563Y-4755564D01*
X17049997Y-4755564D02*
G75*
G03*
X16830000Y-4535564I-219997J4D01*
G01*
X16830000Y-5850000D02*
X14980563Y-5850000D01*
X14980563Y-4535564D02*
G75*
G03*
X14760563Y-4755564I-4J-219997D01*
G01*
D11*
D12*
X14895000Y-5515000D02*
X15105000Y-5725000D01*
X15105000Y-5515000D02*
X14895000Y-5725000D01*
X16705000Y-4675000D02*
X16915000Y-4885000D01*
X16915000Y-4675000D02*
X16705000Y-4885000D01*
D11*
X15016340Y-6166484D02*
X15016340Y-5966484D01*
X15016340Y-5966484D02*
X15063959Y-5966484D01*
X15063959Y-5966484D02*
X15092531Y-5976008D01*
X15092531Y-5976008D02*
X15111578Y-5995055D01*
X15111578Y-5995055D02*
X15121102Y-6014103D01*
X15121102Y-6014103D02*
X15130626Y-6052198D01*
X15130626Y-6052198D02*
X15130626Y-6080769D01*
X15130626Y-6080769D02*
X15121102Y-6118865D01*
X15121102Y-6118865D02*
X15111578Y-6137912D01*
X15111578Y-6137912D02*
X15092531Y-6156960D01*
X15092531Y-6156960D02*
X15063959Y-6166484D01*
X15063959Y-6166484D02*
X15016340Y-6166484D01*
X15216340Y-6166484D02*
X15216340Y-6033150D01*
X15216340Y-6071246D02*
X15225864Y-6052198D01*
X15225864Y-6052198D02*
X15235388Y-6042674D01*
X15235388Y-6042674D02*
X15254435Y-6033150D01*
X15254435Y-6033150D02*
X15273483Y-6033150D01*
X15340150Y-6166484D02*
X15340150Y-6033150D01*
X15340150Y-5966484D02*
X15330626Y-5976008D01*
X15330626Y-5976008D02*
X15340150Y-5985531D01*
X15340150Y-5985531D02*
X15349674Y-5976008D01*
X15349674Y-5976008D02*
X15340150Y-5966484D01*
X15340150Y-5966484D02*
X15340150Y-5985531D01*
X15463959Y-6166484D02*
X15444912Y-6156960D01*
X15444912Y-6156960D02*
X15435388Y-6137912D01*
X15435388Y-6137912D02*
X15435388Y-5966484D01*
X15568721Y-6166484D02*
X15549674Y-6156960D01*
X15549674Y-6156960D02*
X15540150Y-6137912D01*
X15540150Y-6137912D02*
X15540150Y-5966484D01*
X15797293Y-6166484D02*
X15797293Y-5966484D01*
X15797293Y-5966484D02*
X15863959Y-6109341D01*
X15863959Y-6109341D02*
X15930626Y-5966484D01*
X15930626Y-5966484D02*
X15930626Y-6166484D01*
X16111578Y-6166484D02*
X16111578Y-6061722D01*
X16111578Y-6061722D02*
X16102055Y-6042674D01*
X16102055Y-6042674D02*
X16083007Y-6033150D01*
X16083007Y-6033150D02*
X16044912Y-6033150D01*
X16044912Y-6033150D02*
X16025864Y-6042674D01*
X16111578Y-6156960D02*
X16092531Y-6166484D01*
X16092531Y-6166484D02*
X16044912Y-6166484D01*
X16044912Y-6166484D02*
X16025864Y-6156960D01*
X16025864Y-6156960D02*
X16016340Y-6137912D01*
X16016340Y-6137912D02*
X16016340Y-6118865D01*
X16016340Y-6118865D02*
X16025864Y-6099817D01*
X16025864Y-6099817D02*
X16044912Y-6090293D01*
X16044912Y-6090293D02*
X16092531Y-6090293D01*
X16092531Y-6090293D02*
X16111578Y-6080769D01*
X16206816Y-6033150D02*
X16206816Y-6233150D01*
X16206816Y-6042674D02*
X16225864Y-6033150D01*
X16225864Y-6033150D02*
X16263959Y-6033150D01*
X16263959Y-6033150D02*
X16283007Y-6042674D01*
X16283007Y-6042674D02*
X16292531Y-6052198D01*
X16292531Y-6052198D02*
X16302055Y-6071246D01*
X16302055Y-6071246D02*
X16302055Y-6128388D01*
X16302055Y-6128388D02*
X16292531Y-6147436D01*
X16292531Y-6147436D02*
X16283007Y-6156960D01*
X16283007Y-6156960D02*
X16263959Y-6166484D01*
X16263959Y-6166484D02*
X16225864Y-6166484D01*
X16225864Y-6166484D02*
X16206816Y-6156960D01*
X16387769Y-6147436D02*
X16397293Y-6156960D01*
X16397293Y-6156960D02*
X16387769Y-6166484D01*
X16387769Y-6166484D02*
X16378245Y-6156960D01*
X16378245Y-6156960D02*
X16387769Y-6147436D01*
X16387769Y-6147436D02*
X16387769Y-6166484D01*
X16387769Y-6042674D02*
X16397293Y-6052198D01*
X16397293Y-6052198D02*
X16387769Y-6061722D01*
X16387769Y-6061722D02*
X16378245Y-6052198D01*
X16378245Y-6052198D02*
X16387769Y-6042674D01*
X16387769Y-6042674D02*
X16387769Y-6061722D01*
X14555563Y-6395000D02*
X14755563Y-6595000D01*
X14755563Y-6395000D02*
X14555563Y-6595000D01*
X15006816Y-6405531D02*
X15016340Y-6396008D01*
X15016340Y-6396008D02*
X15035388Y-6386484D01*
X15035388Y-6386484D02*
X15083007Y-6386484D01*
X15083007Y-6386484D02*
X15102055Y-6396008D01*
X15102055Y-6396008D02*
X15111578Y-6405531D01*
X15111578Y-6405531D02*
X15121102Y-6424579D01*
X15121102Y-6424579D02*
X15121102Y-6443627D01*
X15121102Y-6443627D02*
X15111578Y-6472198D01*
X15111578Y-6472198D02*
X14997293Y-6586484D01*
X14997293Y-6586484D02*
X15121102Y-6586484D01*
X15206816Y-6567436D02*
X15216340Y-6576960D01*
X15216340Y-6576960D02*
X15206816Y-6586484D01*
X15206816Y-6586484D02*
X15197293Y-6576960D01*
X15197293Y-6576960D02*
X15206816Y-6567436D01*
X15206816Y-6567436D02*
X15206816Y-6586484D01*
X15406816Y-6586484D02*
X15292531Y-6586484D01*
X15349674Y-6586484D02*
X15349674Y-6386484D01*
X15349674Y-6386484D02*
X15330626Y-6415055D01*
X15330626Y-6415055D02*
X15311578Y-6434103D01*
X15311578Y-6434103D02*
X15292531Y-6443627D01*
X15530626Y-6386484D02*
X15549674Y-6386484D01*
X15549674Y-6386484D02*
X15568721Y-6396008D01*
X15568721Y-6396008D02*
X15578245Y-6405531D01*
X15578245Y-6405531D02*
X15587769Y-6424579D01*
X15587769Y-6424579D02*
X15597293Y-6462674D01*
X15597293Y-6462674D02*
X15597293Y-6510293D01*
X15597293Y-6510293D02*
X15587769Y-6548388D01*
X15587769Y-6548388D02*
X15578245Y-6567436D01*
X15578245Y-6567436D02*
X15568721Y-6576960D01*
X15568721Y-6576960D02*
X15549674Y-6586484D01*
X15549674Y-6586484D02*
X15530626Y-6586484D01*
X15530626Y-6586484D02*
X15511578Y-6576960D01*
X15511578Y-6576960D02*
X15502055Y-6567436D01*
X15502055Y-6567436D02*
X15492531Y-6548388D01*
X15492531Y-6548388D02*
X15483007Y-6510293D01*
X15483007Y-6510293D02*
X15483007Y-6462674D01*
X15483007Y-6462674D02*
X15492531Y-6424579D01*
X15492531Y-6424579D02*
X15502055Y-6405531D01*
X15502055Y-6405531D02*
X15511578Y-6396008D01*
X15511578Y-6396008D02*
X15530626Y-6386484D01*
X15721102Y-6386484D02*
X15740150Y-6386484D01*
X15740150Y-6386484D02*
X15759197Y-6396008D01*
X15759197Y-6396008D02*
X15768721Y-6405531D01*
X15768721Y-6405531D02*
X15778245Y-6424579D01*
X15778245Y-6424579D02*
X15787769Y-6462674D01*
X15787769Y-6462674D02*
X15787769Y-6510293D01*
X15787769Y-6510293D02*
X15778245Y-6548388D01*
X15778245Y-6548388D02*
X15768721Y-6567436D01*
X15768721Y-6567436D02*
X15759197Y-6576960D01*
X15759197Y-6576960D02*
X15740150Y-6586484D01*
X15740150Y-6586484D02*
X15721102Y-6586484D01*
X15721102Y-6586484D02*
X15702055Y-6576960D01*
X15702055Y-6576960D02*
X15692531Y-6567436D01*
X15692531Y-6567436D02*
X15683007Y-6548388D01*
X15683007Y-6548388D02*
X15673483Y-6510293D01*
X15673483Y-6510293D02*
X15673483Y-6462674D01*
X15673483Y-6462674D02*
X15683007Y-6424579D01*
X15683007Y-6424579D02*
X15692531Y-6405531D01*
X15692531Y-6405531D02*
X15702055Y-6396008D01*
X15702055Y-6396008D02*
X15721102Y-6386484D01*
X15873483Y-6586484D02*
X15873483Y-6453150D01*
X15873483Y-6472198D02*
X15883007Y-6462674D01*
X15883007Y-6462674D02*
X15902055Y-6453150D01*
X15902055Y-6453150D02*
X15930626Y-6453150D01*
X15930626Y-6453150D02*
X15949674Y-6462674D01*
X15949674Y-6462674D02*
X15959197Y-6481722D01*
X15959197Y-6481722D02*
X15959197Y-6586484D01*
X15959197Y-6481722D02*
X15968721Y-6462674D01*
X15968721Y-6462674D02*
X15987769Y-6453150D01*
X15987769Y-6453150D02*
X16016340Y-6453150D01*
X16016340Y-6453150D02*
X16035388Y-6462674D01*
X16035388Y-6462674D02*
X16044912Y-6481722D01*
X16044912Y-6481722D02*
X16044912Y-6586484D01*
X16140150Y-6586484D02*
X16140150Y-6453150D01*
X16140150Y-6472198D02*
X16149674Y-6462674D01*
X16149674Y-6462674D02*
X16168721Y-6453150D01*
X16168721Y-6453150D02*
X16197293Y-6453150D01*
X16197293Y-6453150D02*
X16216340Y-6462674D01*
X16216340Y-6462674D02*
X16225864Y-6481722D01*
X16225864Y-6481722D02*
X16225864Y-6586484D01*
X16225864Y-6481722D02*
X16235388Y-6462674D01*
X16235388Y-6462674D02*
X16254436Y-6453150D01*
X16254436Y-6453150D02*
X16283007Y-6453150D01*
X16283007Y-6453150D02*
X16302055Y-6462674D01*
X16302055Y-6462674D02*
X16311578Y-6481722D01*
X16311578Y-6481722D02*
X16311578Y-6586484D01*
X16702055Y-6376960D02*
X16530626Y-6634103D01*
X16959198Y-6386484D02*
X16978245Y-6386484D01*
X16978245Y-6386484D02*
X16997293Y-6396008D01*
X16997293Y-6396008D02*
X17006817Y-6405531D01*
X17006817Y-6405531D02*
X17016341Y-6424579D01*
X17016341Y-6424579D02*
X17025864Y-6462674D01*
X17025864Y-6462674D02*
X17025864Y-6510293D01*
X17025864Y-6510293D02*
X17016341Y-6548388D01*
X17016341Y-6548388D02*
X17006817Y-6567436D01*
X17006817Y-6567436D02*
X16997293Y-6576960D01*
X16997293Y-6576960D02*
X16978245Y-6586484D01*
X16978245Y-6586484D02*
X16959198Y-6586484D01*
X16959198Y-6586484D02*
X16940150Y-6576960D01*
X16940150Y-6576960D02*
X16930626Y-6567436D01*
X16930626Y-6567436D02*
X16921102Y-6548388D01*
X16921102Y-6548388D02*
X16911579Y-6510293D01*
X16911579Y-6510293D02*
X16911579Y-6462674D01*
X16911579Y-6462674D02*
X16921102Y-6424579D01*
X16921102Y-6424579D02*
X16930626Y-6405531D01*
X16930626Y-6405531D02*
X16940150Y-6396008D01*
X16940150Y-6396008D02*
X16959198Y-6386484D01*
X17111579Y-6567436D02*
X17121102Y-6576960D01*
X17121102Y-6576960D02*
X17111579Y-6586484D01*
X17111579Y-6586484D02*
X17102055Y-6576960D01*
X17102055Y-6576960D02*
X17111579Y-6567436D01*
X17111579Y-6567436D02*
X17111579Y-6586484D01*
X17244912Y-6386484D02*
X17263960Y-6386484D01*
X17263960Y-6386484D02*
X17283007Y-6396008D01*
X17283007Y-6396008D02*
X17292531Y-6405531D01*
X17292531Y-6405531D02*
X17302055Y-6424579D01*
X17302055Y-6424579D02*
X17311579Y-6462674D01*
X17311579Y-6462674D02*
X17311579Y-6510293D01*
X17311579Y-6510293D02*
X17302055Y-6548388D01*
X17302055Y-6548388D02*
X17292531Y-6567436D01*
X17292531Y-6567436D02*
X17283007Y-6576960D01*
X17283007Y-6576960D02*
X17263960Y-6586484D01*
X17263960Y-6586484D02*
X17244912Y-6586484D01*
X17244912Y-6586484D02*
X17225864Y-6576960D01*
X17225864Y-6576960D02*
X17216341Y-6567436D01*
X17216341Y-6567436D02*
X17206817Y-6548388D01*
X17206817Y-6548388D02*
X17197293Y-6510293D01*
X17197293Y-6510293D02*
X17197293Y-6462674D01*
X17197293Y-6462674D02*
X17206817Y-6424579D01*
X17206817Y-6424579D02*
X17216341Y-6405531D01*
X17216341Y-6405531D02*
X17225864Y-6396008D01*
X17225864Y-6396008D02*
X17244912Y-6386484D01*
X17425864Y-6472198D02*
X17406817Y-6462674D01*
X17406817Y-6462674D02*
X17397293Y-6453150D01*
X17397293Y-6453150D02*
X17387769Y-6434103D01*
X17387769Y-6434103D02*
X17387769Y-6424579D01*
X17387769Y-6424579D02*
X17397293Y-6405531D01*
X17397293Y-6405531D02*
X17406817Y-6396008D01*
X17406817Y-6396008D02*
X17425864Y-6386484D01*
X17425864Y-6386484D02*
X17463960Y-6386484D01*
X17463960Y-6386484D02*
X17483007Y-6396008D01*
X17483007Y-6396008D02*
X17492531Y-6405531D01*
X17492531Y-6405531D02*
X17502055Y-6424579D01*
X17502055Y-6424579D02*
X17502055Y-6434103D01*
X17502055Y-6434103D02*
X17492531Y-6453150D01*
X17492531Y-6453150D02*
X17483007Y-6462674D01*
X17483007Y-6462674D02*
X17463960Y-6472198D01*
X17463960Y-6472198D02*
X17425864Y-6472198D01*
X17425864Y-6472198D02*
X17406817Y-6481722D01*
X17406817Y-6481722D02*
X17397293Y-6491246D01*
X17397293Y-6491246D02*
X17387769Y-6510293D01*
X17387769Y-6510293D02*
X17387769Y-6548388D01*
X17387769Y-6548388D02*
X17397293Y-6567436D01*
X17397293Y-6567436D02*
X17406817Y-6576960D01*
X17406817Y-6576960D02*
X17425864Y-6586484D01*
X17425864Y-6586484D02*
X17463960Y-6586484D01*
X17463960Y-6586484D02*
X17483007Y-6576960D01*
X17483007Y-6576960D02*
X17492531Y-6567436D01*
X17492531Y-6567436D02*
X17502055Y-6548388D01*
X17502055Y-6548388D02*
X17502055Y-6510293D01*
X17502055Y-6510293D02*
X17492531Y-6491246D01*
X17492531Y-6491246D02*
X17483007Y-6481722D01*
X17483007Y-6481722D02*
X17463960Y-6472198D01*
X17578245Y-6405531D02*
X17587769Y-6396008D01*
X17587769Y-6396008D02*
X17606817Y-6386484D01*
X17606817Y-6386484D02*
X17654436Y-6386484D01*
X17654436Y-6386484D02*
X17673483Y-6396008D01*
X17673483Y-6396008D02*
X17683007Y-6405531D01*
X17683007Y-6405531D02*
X17692531Y-6424579D01*
X17692531Y-6424579D02*
X17692531Y-6443627D01*
X17692531Y-6443627D02*
X17683007Y-6472198D01*
X17683007Y-6472198D02*
X17568722Y-6586484D01*
X17568722Y-6586484D02*
X17692531Y-6586484D01*
X17759198Y-6386484D02*
X17892531Y-6386484D01*
X17892531Y-6386484D02*
X17806817Y-6586484D01*
X17959198Y-6386484D02*
X17959198Y-6424579D01*
X18035388Y-6386484D02*
X18035388Y-6424579D01*
X18330626Y-6662674D02*
X18321103Y-6653150D01*
X18321103Y-6653150D02*
X18302055Y-6624579D01*
X18302055Y-6624579D02*
X18292531Y-6605531D01*
X18292531Y-6605531D02*
X18283007Y-6576960D01*
X18283007Y-6576960D02*
X18273484Y-6529341D01*
X18273484Y-6529341D02*
X18273484Y-6491246D01*
X18273484Y-6491246D02*
X18283007Y-6443627D01*
X18283007Y-6443627D02*
X18292531Y-6415055D01*
X18292531Y-6415055D02*
X18302055Y-6396008D01*
X18302055Y-6396008D02*
X18321103Y-6367436D01*
X18321103Y-6367436D02*
X18330626Y-6357912D01*
X18397293Y-6405531D02*
X18406817Y-6396008D01*
X18406817Y-6396008D02*
X18425864Y-6386484D01*
X18425864Y-6386484D02*
X18473484Y-6386484D01*
X18473484Y-6386484D02*
X18492531Y-6396008D01*
X18492531Y-6396008D02*
X18502055Y-6405531D01*
X18502055Y-6405531D02*
X18511579Y-6424579D01*
X18511579Y-6424579D02*
X18511579Y-6443627D01*
X18511579Y-6443627D02*
X18502055Y-6472198D01*
X18502055Y-6472198D02*
X18387769Y-6586484D01*
X18387769Y-6586484D02*
X18511579Y-6586484D01*
X18749674Y-6586484D02*
X18749674Y-6386484D01*
X18835388Y-6586484D02*
X18835388Y-6481722D01*
X18835388Y-6481722D02*
X18825865Y-6462674D01*
X18825865Y-6462674D02*
X18806817Y-6453150D01*
X18806817Y-6453150D02*
X18778245Y-6453150D01*
X18778245Y-6453150D02*
X18759198Y-6462674D01*
X18759198Y-6462674D02*
X18749674Y-6472198D01*
X18959198Y-6586484D02*
X18940150Y-6576960D01*
X18940150Y-6576960D02*
X18930626Y-6567436D01*
X18930626Y-6567436D02*
X18921103Y-6548388D01*
X18921103Y-6548388D02*
X18921103Y-6491246D01*
X18921103Y-6491246D02*
X18930626Y-6472198D01*
X18930626Y-6472198D02*
X18940150Y-6462674D01*
X18940150Y-6462674D02*
X18959198Y-6453150D01*
X18959198Y-6453150D02*
X18987769Y-6453150D01*
X18987769Y-6453150D02*
X19006817Y-6462674D01*
X19006817Y-6462674D02*
X19016341Y-6472198D01*
X19016341Y-6472198D02*
X19025865Y-6491246D01*
X19025865Y-6491246D02*
X19025865Y-6548388D01*
X19025865Y-6548388D02*
X19016341Y-6567436D01*
X19016341Y-6567436D02*
X19006817Y-6576960D01*
X19006817Y-6576960D02*
X18987769Y-6586484D01*
X18987769Y-6586484D02*
X18959198Y-6586484D01*
X19140150Y-6586484D02*
X19121103Y-6576960D01*
X19121103Y-6576960D02*
X19111579Y-6557912D01*
X19111579Y-6557912D02*
X19111579Y-6386484D01*
X19292531Y-6576960D02*
X19273484Y-6586484D01*
X19273484Y-6586484D02*
X19235388Y-6586484D01*
X19235388Y-6586484D02*
X19216341Y-6576960D01*
X19216341Y-6576960D02*
X19206817Y-6557912D01*
X19206817Y-6557912D02*
X19206817Y-6481722D01*
X19206817Y-6481722D02*
X19216341Y-6462674D01*
X19216341Y-6462674D02*
X19235388Y-6453150D01*
X19235388Y-6453150D02*
X19273484Y-6453150D01*
X19273484Y-6453150D02*
X19292531Y-6462674D01*
X19292531Y-6462674D02*
X19302055Y-6481722D01*
X19302055Y-6481722D02*
X19302055Y-6500769D01*
X19302055Y-6500769D02*
X19206817Y-6519817D01*
X19378246Y-6576960D02*
X19397293Y-6586484D01*
X19397293Y-6586484D02*
X19435388Y-6586484D01*
X19435388Y-6586484D02*
X19454436Y-6576960D01*
X19454436Y-6576960D02*
X19463960Y-6557912D01*
X19463960Y-6557912D02*
X19463960Y-6548388D01*
X19463960Y-6548388D02*
X19454436Y-6529341D01*
X19454436Y-6529341D02*
X19435388Y-6519817D01*
X19435388Y-6519817D02*
X19406817Y-6519817D01*
X19406817Y-6519817D02*
X19387769Y-6510293D01*
X19387769Y-6510293D02*
X19378246Y-6491246D01*
X19378246Y-6491246D02*
X19378246Y-6481722D01*
X19378246Y-6481722D02*
X19387769Y-6462674D01*
X19387769Y-6462674D02*
X19406817Y-6453150D01*
X19406817Y-6453150D02*
X19435388Y-6453150D01*
X19435388Y-6453150D02*
X19454436Y-6462674D01*
X19530627Y-6662674D02*
X19540150Y-6653150D01*
X19540150Y-6653150D02*
X19559198Y-6624579D01*
X19559198Y-6624579D02*
X19568722Y-6605531D01*
X19568722Y-6605531D02*
X19578246Y-6576960D01*
X19578246Y-6576960D02*
X19587769Y-6529341D01*
X19587769Y-6529341D02*
X19587769Y-6491246D01*
X19587769Y-6491246D02*
X19578246Y-6443627D01*
X19578246Y-6443627D02*
X19568722Y-6415055D01*
X19568722Y-6415055D02*
X19559198Y-6396008D01*
X19559198Y-6396008D02*
X19540150Y-6367436D01*
X19540150Y-6367436D02*
X19530627Y-6357912D01*
X19892531Y-6662674D02*
X19883007Y-6653150D01*
X19883007Y-6653150D02*
X19863960Y-6624579D01*
X19863960Y-6624579D02*
X19854436Y-6605531D01*
X19854436Y-6605531D02*
X19844912Y-6576960D01*
X19844912Y-6576960D02*
X19835388Y-6529341D01*
X19835388Y-6529341D02*
X19835388Y-6491246D01*
X19835388Y-6491246D02*
X19844912Y-6443627D01*
X19844912Y-6443627D02*
X19854436Y-6415055D01*
X19854436Y-6415055D02*
X19863960Y-6396008D01*
X19863960Y-6396008D02*
X19883007Y-6367436D01*
X19883007Y-6367436D02*
X19892531Y-6357912D01*
X19968722Y-6453150D02*
X19968722Y-6586484D01*
X19968722Y-6472198D02*
X19978246Y-6462674D01*
X19978246Y-6462674D02*
X19997293Y-6453150D01*
X19997293Y-6453150D02*
X20025865Y-6453150D01*
X20025865Y-6453150D02*
X20044912Y-6462674D01*
X20044912Y-6462674D02*
X20054436Y-6481722D01*
X20054436Y-6481722D02*
X20054436Y-6586484D01*
X20178246Y-6586484D02*
X20159198Y-6576960D01*
X20159198Y-6576960D02*
X20149674Y-6567436D01*
X20149674Y-6567436D02*
X20140150Y-6548388D01*
X20140150Y-6548388D02*
X20140150Y-6491246D01*
X20140150Y-6491246D02*
X20149674Y-6472198D01*
X20149674Y-6472198D02*
X20159198Y-6462674D01*
X20159198Y-6462674D02*
X20178246Y-6453150D01*
X20178246Y-6453150D02*
X20206817Y-6453150D01*
X20206817Y-6453150D02*
X20225865Y-6462674D01*
X20225865Y-6462674D02*
X20235388Y-6472198D01*
X20235388Y-6472198D02*
X20244912Y-6491246D01*
X20244912Y-6491246D02*
X20244912Y-6548388D01*
X20244912Y-6548388D02*
X20235388Y-6567436D01*
X20235388Y-6567436D02*
X20225865Y-6576960D01*
X20225865Y-6576960D02*
X20206817Y-6586484D01*
X20206817Y-6586484D02*
X20178246Y-6586484D01*
X20302055Y-6453150D02*
X20378246Y-6453150D01*
X20330627Y-6386484D02*
X20330627Y-6557912D01*
X20330627Y-6557912D02*
X20340150Y-6576960D01*
X20340150Y-6576960D02*
X20359198Y-6586484D01*
X20359198Y-6586484D02*
X20378246Y-6586484D01*
X20597293Y-6453150D02*
X20597293Y-6653150D01*
X20597293Y-6462674D02*
X20616341Y-6453150D01*
X20616341Y-6453150D02*
X20654436Y-6453150D01*
X20654436Y-6453150D02*
X20673484Y-6462674D01*
X20673484Y-6462674D02*
X20683008Y-6472198D01*
X20683008Y-6472198D02*
X20692531Y-6491246D01*
X20692531Y-6491246D02*
X20692531Y-6548388D01*
X20692531Y-6548388D02*
X20683008Y-6567436D01*
X20683008Y-6567436D02*
X20673484Y-6576960D01*
X20673484Y-6576960D02*
X20654436Y-6586484D01*
X20654436Y-6586484D02*
X20616341Y-6586484D01*
X20616341Y-6586484D02*
X20597293Y-6576960D01*
X20806817Y-6586484D02*
X20787769Y-6576960D01*
X20787769Y-6576960D02*
X20778246Y-6557912D01*
X20778246Y-6557912D02*
X20778246Y-6386484D01*
X20968722Y-6586484D02*
X20968722Y-6481722D01*
X20968722Y-6481722D02*
X20959198Y-6462674D01*
X20959198Y-6462674D02*
X20940150Y-6453150D01*
X20940150Y-6453150D02*
X20902055Y-6453150D01*
X20902055Y-6453150D02*
X20883008Y-6462674D01*
X20968722Y-6576960D02*
X20949674Y-6586484D01*
X20949674Y-6586484D02*
X20902055Y-6586484D01*
X20902055Y-6586484D02*
X20883008Y-6576960D01*
X20883008Y-6576960D02*
X20873484Y-6557912D01*
X20873484Y-6557912D02*
X20873484Y-6538865D01*
X20873484Y-6538865D02*
X20883008Y-6519817D01*
X20883008Y-6519817D02*
X20902055Y-6510293D01*
X20902055Y-6510293D02*
X20949674Y-6510293D01*
X20949674Y-6510293D02*
X20968722Y-6500769D01*
X21035389Y-6453150D02*
X21111579Y-6453150D01*
X21063960Y-6386484D02*
X21063960Y-6557912D01*
X21063960Y-6557912D02*
X21073484Y-6576960D01*
X21073484Y-6576960D02*
X21092531Y-6586484D01*
X21092531Y-6586484D02*
X21111579Y-6586484D01*
X21254436Y-6576960D02*
X21235389Y-6586484D01*
X21235389Y-6586484D02*
X21197293Y-6586484D01*
X21197293Y-6586484D02*
X21178246Y-6576960D01*
X21178246Y-6576960D02*
X21168722Y-6557912D01*
X21168722Y-6557912D02*
X21168722Y-6481722D01*
X21168722Y-6481722D02*
X21178246Y-6462674D01*
X21178246Y-6462674D02*
X21197293Y-6453150D01*
X21197293Y-6453150D02*
X21235389Y-6453150D01*
X21235389Y-6453150D02*
X21254436Y-6462674D01*
X21254436Y-6462674D02*
X21263960Y-6481722D01*
X21263960Y-6481722D02*
X21263960Y-6500769D01*
X21263960Y-6500769D02*
X21168722Y-6519817D01*
X21435389Y-6586484D02*
X21435389Y-6386484D01*
X21435389Y-6576960D02*
X21416341Y-6586484D01*
X21416341Y-6586484D02*
X21378246Y-6586484D01*
X21378246Y-6586484D02*
X21359198Y-6576960D01*
X21359198Y-6576960D02*
X21349674Y-6567436D01*
X21349674Y-6567436D02*
X21340150Y-6548388D01*
X21340150Y-6548388D02*
X21340150Y-6491246D01*
X21340150Y-6491246D02*
X21349674Y-6472198D01*
X21349674Y-6472198D02*
X21359198Y-6462674D01*
X21359198Y-6462674D02*
X21378246Y-6453150D01*
X21378246Y-6453150D02*
X21416341Y-6453150D01*
X21416341Y-6453150D02*
X21435389Y-6462674D01*
X21511579Y-6662674D02*
X21521103Y-6653150D01*
X21521103Y-6653150D02*
X21540150Y-6624579D01*
X21540150Y-6624579D02*
X21549674Y-6605531D01*
X21549674Y-6605531D02*
X21559198Y-6576960D01*
X21559198Y-6576960D02*
X21568722Y-6529341D01*
X21568722Y-6529341D02*
X21568722Y-6491246D01*
X21568722Y-6491246D02*
X21559198Y-6443627D01*
X21559198Y-6443627D02*
X21549674Y-6415055D01*
X21549674Y-6415055D02*
X21540150Y-6396008D01*
X21540150Y-6396008D02*
X21521103Y-6367436D01*
X21521103Y-6367436D02*
X21511579Y-6357912D01*
M02*
