G04 #@! TF.GenerationSoftware,KiCad,Pcbnew,7.0.9*
G04 #@! TF.CreationDate,2024-05-03T00:29:51-04:00*
G04 #@! TF.ProjectId,Nav Switch Mount,4e617620-5377-4697-9463-68204d6f756e,rev?*
G04 #@! TF.SameCoordinates,Original*
G04 #@! TF.FileFunction,Legend,Bot*
G04 #@! TF.FilePolarity,Positive*
%FSLAX46Y46*%
G04 Gerber Fmt 4.6, Leading zero omitted, Abs format (unit mm)*
G04 Created by KiCad (PCBNEW 7.0.9) date 2024-05-03 00:29:51*
%MOMM*%
%LPD*%
G01*
G04 APERTURE LIST*
G04 Aperture macros list*
%AMRoundRect*
0 Rectangle with rounded corners*
0 $1 Rounding radius*
0 $2 $3 $4 $5 $6 $7 $8 $9 X,Y pos of 4 corners*
0 Add a 4 corners polygon primitive as box body*
4,1,4,$2,$3,$4,$5,$6,$7,$8,$9,$2,$3,0*
0 Add four circle primitives for the rounded corners*
1,1,$1+$1,$2,$3*
1,1,$1+$1,$4,$5*
1,1,$1+$1,$6,$7*
1,1,$1+$1,$8,$9*
0 Add four rect primitives between the rounded corners*
20,1,$1+$1,$2,$3,$4,$5,0*
20,1,$1+$1,$4,$5,$6,$7,0*
20,1,$1+$1,$6,$7,$8,$9,0*
20,1,$1+$1,$8,$9,$2,$3,0*%
%AMFreePoly0*
4,1,12,-0.775000,0.775000,0.000000,0.775000,0.156719,0.758989,0.327529,0.702389,0.480683,0.607922,0.607922,0.480683,0.702389,0.327529,0.758989,0.156719,0.775000,0.000000,0.775000,-0.775000,-0.775000,-0.775000,-0.775000,0.775000,-0.775000,0.775000,$1*%
%AMFreePoly1*
4,1,12,-0.775000,0.775000,0.775000,0.775000,0.775000,-0.775000,0.000000,-0.775000,-0.156719,-0.758989,-0.327529,-0.702389,-0.480683,-0.607922,-0.607922,-0.480683,-0.702389,-0.327529,-0.758989,-0.156719,-0.775000,0.000000,-0.775000,0.775000,-0.775000,0.775000,$1*%
%AMFreePoly2*
4,1,12,-0.775000,0.000000,-0.758989,0.156719,-0.702389,0.327529,-0.607922,0.480683,-0.480683,0.607922,-0.327529,0.702389,-0.156719,0.758989,0.000000,0.775000,0.775000,0.775000,0.775000,-0.775000,-0.775000,-0.775000,-0.775000,0.000000,-0.775000,0.000000,$1*%
%AMFreePoly3*
4,1,12,-0.775000,0.775000,0.775000,0.775000,0.775000,0.000000,0.758989,-0.156719,0.702389,-0.327529,0.607922,-0.480683,0.480683,-0.607922,0.327529,-0.702389,0.156719,-0.758989,0.000000,-0.775000,-0.775000,-0.775000,-0.775000,0.775000,-0.775000,0.775000,$1*%
G04 Aperture macros list end*
%ADD10C,0.200000*%
%ADD11C,0.150000*%
%ADD12C,0.300000*%
%ADD13C,0.100000*%
%ADD14C,1.550000*%
%ADD15C,2.100000*%
%ADD16FreePoly0,0.000000*%
%ADD17FreePoly1,0.000000*%
%ADD18FreePoly2,0.000000*%
%ADD19FreePoly3,0.000000*%
%ADD20RoundRect,0.329273X-0.772727X0.772727X-0.772727X-0.772727X0.772727X-0.772727X0.772727X0.772727X0*%
%ADD21C,2.004000*%
%ADD22C,2.204000*%
%ADD23RoundRect,0.237500X0.237500X0.412500X-0.237500X0.412500X-0.237500X-0.412500X0.237500X-0.412500X0*%
G04 APERTURE END LIST*
D10*
X157304762Y-50054933D02*
X156695238Y-50054933D01*
X156847619Y-50207314D02*
X156695238Y-50054933D01*
X156695238Y-50054933D02*
X156847619Y-49902552D01*
D11*
X154503332Y-50862295D02*
X154769999Y-50481342D01*
X154960475Y-50862295D02*
X154960475Y-50062295D01*
X154960475Y-50062295D02*
X154655713Y-50062295D01*
X154655713Y-50062295D02*
X154579523Y-50100390D01*
X154579523Y-50100390D02*
X154541428Y-50138485D01*
X154541428Y-50138485D02*
X154503332Y-50214676D01*
X154503332Y-50214676D02*
X154503332Y-50328961D01*
X154503332Y-50328961D02*
X154541428Y-50405152D01*
X154541428Y-50405152D02*
X154579523Y-50443247D01*
X154579523Y-50443247D02*
X154655713Y-50481342D01*
X154655713Y-50481342D02*
X154960475Y-50481342D01*
X154046190Y-50862295D02*
X154122380Y-50824200D01*
X154122380Y-50824200D02*
X154160475Y-50786104D01*
X154160475Y-50786104D02*
X154198571Y-50709914D01*
X154198571Y-50709914D02*
X154198571Y-50481342D01*
X154198571Y-50481342D02*
X154160475Y-50405152D01*
X154160475Y-50405152D02*
X154122380Y-50367057D01*
X154122380Y-50367057D02*
X154046190Y-50328961D01*
X154046190Y-50328961D02*
X153931904Y-50328961D01*
X153931904Y-50328961D02*
X153855713Y-50367057D01*
X153855713Y-50367057D02*
X153817618Y-50405152D01*
X153817618Y-50405152D02*
X153779523Y-50481342D01*
X153779523Y-50481342D02*
X153779523Y-50709914D01*
X153779523Y-50709914D02*
X153817618Y-50786104D01*
X153817618Y-50786104D02*
X153855713Y-50824200D01*
X153855713Y-50824200D02*
X153931904Y-50862295D01*
X153931904Y-50862295D02*
X154046190Y-50862295D01*
X153512856Y-50328961D02*
X153360475Y-50862295D01*
X153360475Y-50862295D02*
X153208094Y-50481342D01*
X153208094Y-50481342D02*
X153055713Y-50862295D01*
X153055713Y-50862295D02*
X152903332Y-50328961D01*
D10*
X156999999Y-54359695D02*
X156999999Y-53750171D01*
X157152380Y-53902552D02*
X156999999Y-53750171D01*
X156999999Y-53750171D02*
X156847618Y-53902552D01*
X161000000Y-53750171D02*
X161000000Y-54359695D01*
X161152381Y-54207314D02*
X161000000Y-54359695D01*
X161000000Y-54359695D02*
X160847619Y-54207314D01*
X164053809Y-50478742D02*
X164053809Y-50631123D01*
X164091904Y-50631123D02*
X164091904Y-50478742D01*
X164130000Y-50440647D02*
X164130000Y-50669219D01*
X164168095Y-50631123D02*
X164168095Y-50478742D01*
X164206190Y-50478742D02*
X164206190Y-50631123D01*
X164053809Y-50593028D02*
X164130000Y-50669219D01*
X164130000Y-50669219D02*
X164206190Y-50593028D01*
X164053809Y-50516838D02*
X164130000Y-50440647D01*
X164130000Y-50440647D02*
X164206190Y-50516838D01*
X164053809Y-50478742D02*
X164130000Y-50440647D01*
X164130000Y-50440647D02*
X164206190Y-50478742D01*
X164206190Y-50478742D02*
X164244285Y-50554933D01*
X164244285Y-50554933D02*
X164206190Y-50631123D01*
X164206190Y-50631123D02*
X164130000Y-50669219D01*
X164130000Y-50669219D02*
X164053809Y-50631123D01*
X164053809Y-50631123D02*
X164015714Y-50554933D01*
X164015714Y-50554933D02*
X164053809Y-50478742D01*
X160695238Y-50054933D02*
X161304762Y-50054933D01*
X161152381Y-50207314D02*
X161304762Y-50054933D01*
X161304762Y-50054933D02*
X161152381Y-49902552D01*
D11*
X150877976Y-47737295D02*
X150877976Y-46937295D01*
X150877976Y-46937295D02*
X150687500Y-46937295D01*
X150687500Y-46937295D02*
X150573214Y-46975390D01*
X150573214Y-46975390D02*
X150497024Y-47051580D01*
X150497024Y-47051580D02*
X150458929Y-47127771D01*
X150458929Y-47127771D02*
X150420833Y-47280152D01*
X150420833Y-47280152D02*
X150420833Y-47394438D01*
X150420833Y-47394438D02*
X150458929Y-47546819D01*
X150458929Y-47546819D02*
X150497024Y-47623009D01*
X150497024Y-47623009D02*
X150573214Y-47699200D01*
X150573214Y-47699200D02*
X150687500Y-47737295D01*
X150687500Y-47737295D02*
X150877976Y-47737295D01*
X150154167Y-46937295D02*
X149658929Y-46937295D01*
X149658929Y-46937295D02*
X149925595Y-47242057D01*
X149925595Y-47242057D02*
X149811310Y-47242057D01*
X149811310Y-47242057D02*
X149735119Y-47280152D01*
X149735119Y-47280152D02*
X149697024Y-47318247D01*
X149697024Y-47318247D02*
X149658929Y-47394438D01*
X149658929Y-47394438D02*
X149658929Y-47584914D01*
X149658929Y-47584914D02*
X149697024Y-47661104D01*
X149697024Y-47661104D02*
X149735119Y-47699200D01*
X149735119Y-47699200D02*
X149811310Y-47737295D01*
X149811310Y-47737295D02*
X150039881Y-47737295D01*
X150039881Y-47737295D02*
X150116072Y-47699200D01*
X150116072Y-47699200D02*
X150154167Y-47661104D01*
X150877976Y-50112295D02*
X150877976Y-49312295D01*
X150877976Y-49312295D02*
X150687500Y-49312295D01*
X150687500Y-49312295D02*
X150573214Y-49350390D01*
X150573214Y-49350390D02*
X150497024Y-49426580D01*
X150497024Y-49426580D02*
X150458929Y-49502771D01*
X150458929Y-49502771D02*
X150420833Y-49655152D01*
X150420833Y-49655152D02*
X150420833Y-49769438D01*
X150420833Y-49769438D02*
X150458929Y-49921819D01*
X150458929Y-49921819D02*
X150497024Y-49998009D01*
X150497024Y-49998009D02*
X150573214Y-50074200D01*
X150573214Y-50074200D02*
X150687500Y-50112295D01*
X150687500Y-50112295D02*
X150877976Y-50112295D01*
X150116072Y-49388485D02*
X150077976Y-49350390D01*
X150077976Y-49350390D02*
X150001786Y-49312295D01*
X150001786Y-49312295D02*
X149811310Y-49312295D01*
X149811310Y-49312295D02*
X149735119Y-49350390D01*
X149735119Y-49350390D02*
X149697024Y-49388485D01*
X149697024Y-49388485D02*
X149658929Y-49464676D01*
X149658929Y-49464676D02*
X149658929Y-49540866D01*
X149658929Y-49540866D02*
X149697024Y-49655152D01*
X149697024Y-49655152D02*
X150154167Y-50112295D01*
X150154167Y-50112295D02*
X149658929Y-50112295D01*
X167327976Y-56612295D02*
X167327976Y-55812295D01*
X167327976Y-55812295D02*
X167137500Y-55812295D01*
X167137500Y-55812295D02*
X167023214Y-55850390D01*
X167023214Y-55850390D02*
X166947024Y-55926580D01*
X166947024Y-55926580D02*
X166908929Y-56002771D01*
X166908929Y-56002771D02*
X166870833Y-56155152D01*
X166870833Y-56155152D02*
X166870833Y-56269438D01*
X166870833Y-56269438D02*
X166908929Y-56421819D01*
X166908929Y-56421819D02*
X166947024Y-56498009D01*
X166947024Y-56498009D02*
X167023214Y-56574200D01*
X167023214Y-56574200D02*
X167137500Y-56612295D01*
X167137500Y-56612295D02*
X167327976Y-56612295D01*
X166185119Y-56078961D02*
X166185119Y-56612295D01*
X166375595Y-55774200D02*
X166566072Y-56345628D01*
X166566072Y-56345628D02*
X166070833Y-56345628D01*
X167827976Y-54237295D02*
X167827976Y-53437295D01*
X167827976Y-53437295D02*
X167637500Y-53437295D01*
X167637500Y-53437295D02*
X167523214Y-53475390D01*
X167523214Y-53475390D02*
X167447024Y-53551580D01*
X167447024Y-53551580D02*
X167408929Y-53627771D01*
X167408929Y-53627771D02*
X167370833Y-53780152D01*
X167370833Y-53780152D02*
X167370833Y-53894438D01*
X167370833Y-53894438D02*
X167408929Y-54046819D01*
X167408929Y-54046819D02*
X167447024Y-54123009D01*
X167447024Y-54123009D02*
X167523214Y-54199200D01*
X167523214Y-54199200D02*
X167637500Y-54237295D01*
X167637500Y-54237295D02*
X167827976Y-54237295D01*
X166647024Y-53437295D02*
X167027976Y-53437295D01*
X167027976Y-53437295D02*
X167066072Y-53818247D01*
X167066072Y-53818247D02*
X167027976Y-53780152D01*
X167027976Y-53780152D02*
X166951786Y-53742057D01*
X166951786Y-53742057D02*
X166761310Y-53742057D01*
X166761310Y-53742057D02*
X166685119Y-53780152D01*
X166685119Y-53780152D02*
X166647024Y-53818247D01*
X166647024Y-53818247D02*
X166608929Y-53894438D01*
X166608929Y-53894438D02*
X166608929Y-54084914D01*
X166608929Y-54084914D02*
X166647024Y-54161104D01*
X166647024Y-54161104D02*
X166685119Y-54199200D01*
X166685119Y-54199200D02*
X166761310Y-54237295D01*
X166761310Y-54237295D02*
X166951786Y-54237295D01*
X166951786Y-54237295D02*
X167027976Y-54199200D01*
X167027976Y-54199200D02*
X167066072Y-54161104D01*
X167827976Y-51862295D02*
X167827976Y-51062295D01*
X167827976Y-51062295D02*
X167637500Y-51062295D01*
X167637500Y-51062295D02*
X167523214Y-51100390D01*
X167523214Y-51100390D02*
X167447024Y-51176580D01*
X167447024Y-51176580D02*
X167408929Y-51252771D01*
X167408929Y-51252771D02*
X167370833Y-51405152D01*
X167370833Y-51405152D02*
X167370833Y-51519438D01*
X167370833Y-51519438D02*
X167408929Y-51671819D01*
X167408929Y-51671819D02*
X167447024Y-51748009D01*
X167447024Y-51748009D02*
X167523214Y-51824200D01*
X167523214Y-51824200D02*
X167637500Y-51862295D01*
X167637500Y-51862295D02*
X167827976Y-51862295D01*
X166608929Y-51862295D02*
X167066072Y-51862295D01*
X166837500Y-51862295D02*
X166837500Y-51062295D01*
X166837500Y-51062295D02*
X166913691Y-51176580D01*
X166913691Y-51176580D02*
X166989881Y-51252771D01*
X166989881Y-51252771D02*
X167066072Y-51290866D01*
D12*
X151375000Y-46775000D02*
X151375000Y-47975000D01*
X151375000Y-49150000D02*
X151375000Y-50350000D01*
X167825000Y-55650000D02*
X167825000Y-56850000D01*
X168325000Y-53275000D02*
X168325000Y-54475000D01*
X168325000Y-50900000D02*
X168325000Y-52100000D01*
%LPC*%
D13*
X152515788Y-53489371D02*
X152515788Y-52889371D01*
X152515788Y-53117942D02*
X152458646Y-53089371D01*
X152458646Y-53089371D02*
X152344360Y-53089371D01*
X152344360Y-53089371D02*
X152287217Y-53117942D01*
X152287217Y-53117942D02*
X152258646Y-53146514D01*
X152258646Y-53146514D02*
X152230074Y-53203657D01*
X152230074Y-53203657D02*
X152230074Y-53375085D01*
X152230074Y-53375085D02*
X152258646Y-53432228D01*
X152258646Y-53432228D02*
X152287217Y-53460800D01*
X152287217Y-53460800D02*
X152344360Y-53489371D01*
X152344360Y-53489371D02*
X152458646Y-53489371D01*
X152458646Y-53489371D02*
X152515788Y-53460800D01*
X151715789Y-53089371D02*
X151715789Y-53575085D01*
X151715789Y-53575085D02*
X151744360Y-53632228D01*
X151744360Y-53632228D02*
X151772931Y-53660800D01*
X151772931Y-53660800D02*
X151830074Y-53689371D01*
X151830074Y-53689371D02*
X151915789Y-53689371D01*
X151915789Y-53689371D02*
X151972931Y-53660800D01*
X151715789Y-53460800D02*
X151772931Y-53489371D01*
X151772931Y-53489371D02*
X151887217Y-53489371D01*
X151887217Y-53489371D02*
X151944360Y-53460800D01*
X151944360Y-53460800D02*
X151972931Y-53432228D01*
X151972931Y-53432228D02*
X152001503Y-53375085D01*
X152001503Y-53375085D02*
X152001503Y-53203657D01*
X152001503Y-53203657D02*
X151972931Y-53146514D01*
X151972931Y-53146514D02*
X151944360Y-53117942D01*
X151944360Y-53117942D02*
X151887217Y-53089371D01*
X151887217Y-53089371D02*
X151772931Y-53089371D01*
X151772931Y-53089371D02*
X151715789Y-53117942D01*
X151430074Y-53489371D02*
X151430074Y-52889371D01*
X151372932Y-53260800D02*
X151201503Y-53489371D01*
X151201503Y-53089371D02*
X151430074Y-53317942D01*
X150715789Y-53460800D02*
X150772932Y-53489371D01*
X150772932Y-53489371D02*
X150887218Y-53489371D01*
X150887218Y-53489371D02*
X150944360Y-53460800D01*
X150944360Y-53460800D02*
X150972932Y-53403657D01*
X150972932Y-53403657D02*
X150972932Y-53175085D01*
X150972932Y-53175085D02*
X150944360Y-53117942D01*
X150944360Y-53117942D02*
X150887218Y-53089371D01*
X150887218Y-53089371D02*
X150772932Y-53089371D01*
X150772932Y-53089371D02*
X150715789Y-53117942D01*
X150715789Y-53117942D02*
X150687218Y-53175085D01*
X150687218Y-53175085D02*
X150687218Y-53232228D01*
X150687218Y-53232228D02*
X150972932Y-53289371D01*
X150430074Y-53089371D02*
X150430074Y-53489371D01*
X150430074Y-53146514D02*
X150401503Y-53117942D01*
X150401503Y-53117942D02*
X150344360Y-53089371D01*
X150344360Y-53089371D02*
X150258646Y-53089371D01*
X150258646Y-53089371D02*
X150201503Y-53117942D01*
X150201503Y-53117942D02*
X150172932Y-53175085D01*
X150172932Y-53175085D02*
X150172932Y-53489371D01*
X149630075Y-53489371D02*
X149630075Y-52889371D01*
X149630075Y-53460800D02*
X149687217Y-53489371D01*
X149687217Y-53489371D02*
X149801503Y-53489371D01*
X149801503Y-53489371D02*
X149858646Y-53460800D01*
X149858646Y-53460800D02*
X149887217Y-53432228D01*
X149887217Y-53432228D02*
X149915789Y-53375085D01*
X149915789Y-53375085D02*
X149915789Y-53203657D01*
X149915789Y-53203657D02*
X149887217Y-53146514D01*
X149887217Y-53146514D02*
X149858646Y-53117942D01*
X149858646Y-53117942D02*
X149801503Y-53089371D01*
X149801503Y-53089371D02*
X149687217Y-53089371D01*
X149687217Y-53089371D02*
X149630075Y-53117942D01*
X149087218Y-53489371D02*
X149087218Y-53175085D01*
X149087218Y-53175085D02*
X149115789Y-53117942D01*
X149115789Y-53117942D02*
X149172932Y-53089371D01*
X149172932Y-53089371D02*
X149287218Y-53089371D01*
X149287218Y-53089371D02*
X149344360Y-53117942D01*
X149087218Y-53460800D02*
X149144360Y-53489371D01*
X149144360Y-53489371D02*
X149287218Y-53489371D01*
X149287218Y-53489371D02*
X149344360Y-53460800D01*
X149344360Y-53460800D02*
X149372932Y-53403657D01*
X149372932Y-53403657D02*
X149372932Y-53346514D01*
X149372932Y-53346514D02*
X149344360Y-53289371D01*
X149344360Y-53289371D02*
X149287218Y-53260800D01*
X149287218Y-53260800D02*
X149144360Y-53260800D01*
X149144360Y-53260800D02*
X149087218Y-53232228D01*
X148715789Y-53489371D02*
X148772932Y-53460800D01*
X148772932Y-53460800D02*
X148801503Y-53403657D01*
X148801503Y-53403657D02*
X148801503Y-52889371D01*
X148401503Y-53489371D02*
X148458646Y-53460800D01*
X148458646Y-53460800D02*
X148487217Y-53403657D01*
X148487217Y-53403657D02*
X148487217Y-52889371D01*
X150115789Y-54055371D02*
X149972932Y-54455371D01*
X149972932Y-54455371D02*
X149830075Y-54055371D01*
X149630075Y-53912514D02*
X149601503Y-53883942D01*
X149601503Y-53883942D02*
X149544361Y-53855371D01*
X149544361Y-53855371D02*
X149401503Y-53855371D01*
X149401503Y-53855371D02*
X149344361Y-53883942D01*
X149344361Y-53883942D02*
X149315789Y-53912514D01*
X149315789Y-53912514D02*
X149287218Y-53969657D01*
X149287218Y-53969657D02*
X149287218Y-54026800D01*
X149287218Y-54026800D02*
X149315789Y-54112514D01*
X149315789Y-54112514D02*
X149658646Y-54455371D01*
X149658646Y-54455371D02*
X149287218Y-54455371D01*
X149030074Y-54398228D02*
X149001503Y-54426800D01*
X149001503Y-54426800D02*
X149030074Y-54455371D01*
X149030074Y-54455371D02*
X149058646Y-54426800D01*
X149058646Y-54426800D02*
X149030074Y-54398228D01*
X149030074Y-54398228D02*
X149030074Y-54455371D01*
X148630075Y-53855371D02*
X148572932Y-53855371D01*
X148572932Y-53855371D02*
X148515789Y-53883942D01*
X148515789Y-53883942D02*
X148487218Y-53912514D01*
X148487218Y-53912514D02*
X148458646Y-53969657D01*
X148458646Y-53969657D02*
X148430075Y-54083942D01*
X148430075Y-54083942D02*
X148430075Y-54226800D01*
X148430075Y-54226800D02*
X148458646Y-54341085D01*
X148458646Y-54341085D02*
X148487218Y-54398228D01*
X148487218Y-54398228D02*
X148515789Y-54426800D01*
X148515789Y-54426800D02*
X148572932Y-54455371D01*
X148572932Y-54455371D02*
X148630075Y-54455371D01*
X148630075Y-54455371D02*
X148687218Y-54426800D01*
X148687218Y-54426800D02*
X148715789Y-54398228D01*
X148715789Y-54398228D02*
X148744360Y-54341085D01*
X148744360Y-54341085D02*
X148772932Y-54226800D01*
X148772932Y-54226800D02*
X148772932Y-54083942D01*
X148772932Y-54083942D02*
X148744360Y-53969657D01*
X148744360Y-53969657D02*
X148715789Y-53912514D01*
X148715789Y-53912514D02*
X148687218Y-53883942D01*
X148687218Y-53883942D02*
X148630075Y-53855371D01*
D14*
X153970000Y-52000000D03*
D15*
X150000000Y-56200000D03*
D16*
X159950000Y-51100000D03*
D17*
X158150000Y-52900000D03*
D18*
X158150000Y-51100000D03*
D19*
X159950000Y-52900000D03*
D15*
X168100000Y-47800000D03*
D14*
X164130000Y-52000000D03*
D20*
X162325000Y-46850000D03*
D21*
X158625000Y-46850000D03*
D22*
X155825000Y-46850000D03*
X155825000Y-57150000D03*
D21*
X158625000Y-57150000D03*
D22*
X162325000Y-57150000D03*
D23*
X152200000Y-47375000D03*
X148900000Y-47375000D03*
X152200000Y-49750000D03*
X148900000Y-49750000D03*
X168650000Y-56250000D03*
X165350000Y-56250000D03*
X169150000Y-53875000D03*
X165850000Y-53875000D03*
X169150000Y-51500000D03*
X165850000Y-51500000D03*
%LPD*%
M02*
