%TF.GenerationSoftware,KiCad,Pcbnew,7.0.7*%
%TF.CreationDate,2023-09-18T19:37:45-04:00*%
%TF.ProjectId,Nav Switch Mount,4e617620-5377-4697-9463-68204d6f756e,rev?*%
%TF.SameCoordinates,Original*%
%TF.FileFunction,Drillmap*%
%TF.FilePolarity,Positive*%
%FSLAX45Y45*%
G04 Gerber Fmt 4.5, Leading zero omitted, Abs format (unit mm)*
G04 Created by KiCad (PCBNEW 7.0.7) date 2023-09-18 19:37:45*
%MOMM*%
%LPD*%
G01*
G04 APERTURE LIST*
%ADD10C,0.100000*%
%ADD11C,0.200000*%
%ADD12C,0.210000*%
G04 APERTURE END LIST*
D10*
X15010000Y-4570000D02*
X16800000Y-4570000D01*
X17020000Y-4790000D02*
X17020000Y-5610000D01*
X16800000Y-5830000D02*
G75*
G03*
X17020000Y-5610000I0J220000D01*
G01*
X14790000Y-5610000D02*
G75*
G03*
X15010000Y-5830000I220000J0D01*
G01*
X14790000Y-5610000D02*
X14790000Y-4790000D01*
X17020000Y-4790000D02*
G75*
G03*
X16800000Y-4570000I-220000J0D01*
G01*
X16800000Y-5830000D02*
X15010000Y-5830000D01*
X15010000Y-4570000D02*
G75*
G03*
X14790000Y-4790000I0J-220000D01*
G01*
D11*
D12*
X14895000Y-5515000D02*
X15105000Y-5725000D01*
X15105000Y-5515000D02*
X14895000Y-5725000D01*
X16705000Y-4675000D02*
X16915000Y-4885000D01*
X16915000Y-4675000D02*
X16705000Y-4885000D01*
D11*
X15045777Y-6146484D02*
X15045777Y-5946484D01*
X15045777Y-5946484D02*
X15093396Y-5946484D01*
X15093396Y-5946484D02*
X15121967Y-5956008D01*
X15121967Y-5956008D02*
X15141015Y-5975055D01*
X15141015Y-5975055D02*
X15150539Y-5994103D01*
X15150539Y-5994103D02*
X15160062Y-6032198D01*
X15160062Y-6032198D02*
X15160062Y-6060769D01*
X15160062Y-6060769D02*
X15150539Y-6098865D01*
X15150539Y-6098865D02*
X15141015Y-6117912D01*
X15141015Y-6117912D02*
X15121967Y-6136960D01*
X15121967Y-6136960D02*
X15093396Y-6146484D01*
X15093396Y-6146484D02*
X15045777Y-6146484D01*
X15245777Y-6146484D02*
X15245777Y-6013150D01*
X15245777Y-6051246D02*
X15255301Y-6032198D01*
X15255301Y-6032198D02*
X15264824Y-6022674D01*
X15264824Y-6022674D02*
X15283872Y-6013150D01*
X15283872Y-6013150D02*
X15302920Y-6013150D01*
X15369586Y-6146484D02*
X15369586Y-6013150D01*
X15369586Y-5946484D02*
X15360062Y-5956008D01*
X15360062Y-5956008D02*
X15369586Y-5965531D01*
X15369586Y-5965531D02*
X15379110Y-5956008D01*
X15379110Y-5956008D02*
X15369586Y-5946484D01*
X15369586Y-5946484D02*
X15369586Y-5965531D01*
X15493396Y-6146484D02*
X15474348Y-6136960D01*
X15474348Y-6136960D02*
X15464824Y-6117912D01*
X15464824Y-6117912D02*
X15464824Y-5946484D01*
X15598158Y-6146484D02*
X15579110Y-6136960D01*
X15579110Y-6136960D02*
X15569586Y-6117912D01*
X15569586Y-6117912D02*
X15569586Y-5946484D01*
X15826729Y-6146484D02*
X15826729Y-5946484D01*
X15826729Y-5946484D02*
X15893396Y-6089341D01*
X15893396Y-6089341D02*
X15960062Y-5946484D01*
X15960062Y-5946484D02*
X15960062Y-6146484D01*
X16141015Y-6146484D02*
X16141015Y-6041722D01*
X16141015Y-6041722D02*
X16131491Y-6022674D01*
X16131491Y-6022674D02*
X16112443Y-6013150D01*
X16112443Y-6013150D02*
X16074348Y-6013150D01*
X16074348Y-6013150D02*
X16055301Y-6022674D01*
X16141015Y-6136960D02*
X16121967Y-6146484D01*
X16121967Y-6146484D02*
X16074348Y-6146484D01*
X16074348Y-6146484D02*
X16055301Y-6136960D01*
X16055301Y-6136960D02*
X16045777Y-6117912D01*
X16045777Y-6117912D02*
X16045777Y-6098865D01*
X16045777Y-6098865D02*
X16055301Y-6079817D01*
X16055301Y-6079817D02*
X16074348Y-6070293D01*
X16074348Y-6070293D02*
X16121967Y-6070293D01*
X16121967Y-6070293D02*
X16141015Y-6060769D01*
X16236253Y-6013150D02*
X16236253Y-6213150D01*
X16236253Y-6022674D02*
X16255301Y-6013150D01*
X16255301Y-6013150D02*
X16293396Y-6013150D01*
X16293396Y-6013150D02*
X16312443Y-6022674D01*
X16312443Y-6022674D02*
X16321967Y-6032198D01*
X16321967Y-6032198D02*
X16331491Y-6051246D01*
X16331491Y-6051246D02*
X16331491Y-6108388D01*
X16331491Y-6108388D02*
X16321967Y-6127436D01*
X16321967Y-6127436D02*
X16312443Y-6136960D01*
X16312443Y-6136960D02*
X16293396Y-6146484D01*
X16293396Y-6146484D02*
X16255301Y-6146484D01*
X16255301Y-6146484D02*
X16236253Y-6136960D01*
X16417205Y-6127436D02*
X16426729Y-6136960D01*
X16426729Y-6136960D02*
X16417205Y-6146484D01*
X16417205Y-6146484D02*
X16407682Y-6136960D01*
X16407682Y-6136960D02*
X16417205Y-6127436D01*
X16417205Y-6127436D02*
X16417205Y-6146484D01*
X16417205Y-6022674D02*
X16426729Y-6032198D01*
X16426729Y-6032198D02*
X16417205Y-6041722D01*
X16417205Y-6041722D02*
X16407682Y-6032198D01*
X16407682Y-6032198D02*
X16417205Y-6022674D01*
X16417205Y-6022674D02*
X16417205Y-6041722D01*
X14585000Y-6375000D02*
X14785000Y-6575000D01*
X14785000Y-6375000D02*
X14585000Y-6575000D01*
X15036253Y-6385531D02*
X15045777Y-6376008D01*
X15045777Y-6376008D02*
X15064824Y-6366484D01*
X15064824Y-6366484D02*
X15112443Y-6366484D01*
X15112443Y-6366484D02*
X15131491Y-6376008D01*
X15131491Y-6376008D02*
X15141015Y-6385531D01*
X15141015Y-6385531D02*
X15150539Y-6404579D01*
X15150539Y-6404579D02*
X15150539Y-6423627D01*
X15150539Y-6423627D02*
X15141015Y-6452198D01*
X15141015Y-6452198D02*
X15026729Y-6566484D01*
X15026729Y-6566484D02*
X15150539Y-6566484D01*
X15236253Y-6547436D02*
X15245777Y-6556960D01*
X15245777Y-6556960D02*
X15236253Y-6566484D01*
X15236253Y-6566484D02*
X15226729Y-6556960D01*
X15226729Y-6556960D02*
X15236253Y-6547436D01*
X15236253Y-6547436D02*
X15236253Y-6566484D01*
X15436253Y-6566484D02*
X15321967Y-6566484D01*
X15379110Y-6566484D02*
X15379110Y-6366484D01*
X15379110Y-6366484D02*
X15360062Y-6395055D01*
X15360062Y-6395055D02*
X15341015Y-6414103D01*
X15341015Y-6414103D02*
X15321967Y-6423627D01*
X15560062Y-6366484D02*
X15579110Y-6366484D01*
X15579110Y-6366484D02*
X15598158Y-6376008D01*
X15598158Y-6376008D02*
X15607682Y-6385531D01*
X15607682Y-6385531D02*
X15617205Y-6404579D01*
X15617205Y-6404579D02*
X15626729Y-6442674D01*
X15626729Y-6442674D02*
X15626729Y-6490293D01*
X15626729Y-6490293D02*
X15617205Y-6528388D01*
X15617205Y-6528388D02*
X15607682Y-6547436D01*
X15607682Y-6547436D02*
X15598158Y-6556960D01*
X15598158Y-6556960D02*
X15579110Y-6566484D01*
X15579110Y-6566484D02*
X15560062Y-6566484D01*
X15560062Y-6566484D02*
X15541015Y-6556960D01*
X15541015Y-6556960D02*
X15531491Y-6547436D01*
X15531491Y-6547436D02*
X15521967Y-6528388D01*
X15521967Y-6528388D02*
X15512443Y-6490293D01*
X15512443Y-6490293D02*
X15512443Y-6442674D01*
X15512443Y-6442674D02*
X15521967Y-6404579D01*
X15521967Y-6404579D02*
X15531491Y-6385531D01*
X15531491Y-6385531D02*
X15541015Y-6376008D01*
X15541015Y-6376008D02*
X15560062Y-6366484D01*
X15750539Y-6366484D02*
X15769586Y-6366484D01*
X15769586Y-6366484D02*
X15788634Y-6376008D01*
X15788634Y-6376008D02*
X15798158Y-6385531D01*
X15798158Y-6385531D02*
X15807682Y-6404579D01*
X15807682Y-6404579D02*
X15817205Y-6442674D01*
X15817205Y-6442674D02*
X15817205Y-6490293D01*
X15817205Y-6490293D02*
X15807682Y-6528388D01*
X15807682Y-6528388D02*
X15798158Y-6547436D01*
X15798158Y-6547436D02*
X15788634Y-6556960D01*
X15788634Y-6556960D02*
X15769586Y-6566484D01*
X15769586Y-6566484D02*
X15750539Y-6566484D01*
X15750539Y-6566484D02*
X15731491Y-6556960D01*
X15731491Y-6556960D02*
X15721967Y-6547436D01*
X15721967Y-6547436D02*
X15712443Y-6528388D01*
X15712443Y-6528388D02*
X15702920Y-6490293D01*
X15702920Y-6490293D02*
X15702920Y-6442674D01*
X15702920Y-6442674D02*
X15712443Y-6404579D01*
X15712443Y-6404579D02*
X15721967Y-6385531D01*
X15721967Y-6385531D02*
X15731491Y-6376008D01*
X15731491Y-6376008D02*
X15750539Y-6366484D01*
X15902920Y-6566484D02*
X15902920Y-6433150D01*
X15902920Y-6452198D02*
X15912443Y-6442674D01*
X15912443Y-6442674D02*
X15931491Y-6433150D01*
X15931491Y-6433150D02*
X15960063Y-6433150D01*
X15960063Y-6433150D02*
X15979110Y-6442674D01*
X15979110Y-6442674D02*
X15988634Y-6461722D01*
X15988634Y-6461722D02*
X15988634Y-6566484D01*
X15988634Y-6461722D02*
X15998158Y-6442674D01*
X15998158Y-6442674D02*
X16017205Y-6433150D01*
X16017205Y-6433150D02*
X16045777Y-6433150D01*
X16045777Y-6433150D02*
X16064824Y-6442674D01*
X16064824Y-6442674D02*
X16074348Y-6461722D01*
X16074348Y-6461722D02*
X16074348Y-6566484D01*
X16169586Y-6566484D02*
X16169586Y-6433150D01*
X16169586Y-6452198D02*
X16179110Y-6442674D01*
X16179110Y-6442674D02*
X16198158Y-6433150D01*
X16198158Y-6433150D02*
X16226729Y-6433150D01*
X16226729Y-6433150D02*
X16245777Y-6442674D01*
X16245777Y-6442674D02*
X16255301Y-6461722D01*
X16255301Y-6461722D02*
X16255301Y-6566484D01*
X16255301Y-6461722D02*
X16264824Y-6442674D01*
X16264824Y-6442674D02*
X16283872Y-6433150D01*
X16283872Y-6433150D02*
X16312443Y-6433150D01*
X16312443Y-6433150D02*
X16331491Y-6442674D01*
X16331491Y-6442674D02*
X16341015Y-6461722D01*
X16341015Y-6461722D02*
X16341015Y-6566484D01*
X16731491Y-6356960D02*
X16560063Y-6614103D01*
X16988634Y-6366484D02*
X17007682Y-6366484D01*
X17007682Y-6366484D02*
X17026729Y-6376008D01*
X17026729Y-6376008D02*
X17036253Y-6385531D01*
X17036253Y-6385531D02*
X17045777Y-6404579D01*
X17045777Y-6404579D02*
X17055301Y-6442674D01*
X17055301Y-6442674D02*
X17055301Y-6490293D01*
X17055301Y-6490293D02*
X17045777Y-6528388D01*
X17045777Y-6528388D02*
X17036253Y-6547436D01*
X17036253Y-6547436D02*
X17026729Y-6556960D01*
X17026729Y-6556960D02*
X17007682Y-6566484D01*
X17007682Y-6566484D02*
X16988634Y-6566484D01*
X16988634Y-6566484D02*
X16969587Y-6556960D01*
X16969587Y-6556960D02*
X16960063Y-6547436D01*
X16960063Y-6547436D02*
X16950539Y-6528388D01*
X16950539Y-6528388D02*
X16941015Y-6490293D01*
X16941015Y-6490293D02*
X16941015Y-6442674D01*
X16941015Y-6442674D02*
X16950539Y-6404579D01*
X16950539Y-6404579D02*
X16960063Y-6385531D01*
X16960063Y-6385531D02*
X16969587Y-6376008D01*
X16969587Y-6376008D02*
X16988634Y-6366484D01*
X17141015Y-6547436D02*
X17150539Y-6556960D01*
X17150539Y-6556960D02*
X17141015Y-6566484D01*
X17141015Y-6566484D02*
X17131491Y-6556960D01*
X17131491Y-6556960D02*
X17141015Y-6547436D01*
X17141015Y-6547436D02*
X17141015Y-6566484D01*
X17274348Y-6366484D02*
X17293396Y-6366484D01*
X17293396Y-6366484D02*
X17312444Y-6376008D01*
X17312444Y-6376008D02*
X17321968Y-6385531D01*
X17321968Y-6385531D02*
X17331491Y-6404579D01*
X17331491Y-6404579D02*
X17341015Y-6442674D01*
X17341015Y-6442674D02*
X17341015Y-6490293D01*
X17341015Y-6490293D02*
X17331491Y-6528388D01*
X17331491Y-6528388D02*
X17321968Y-6547436D01*
X17321968Y-6547436D02*
X17312444Y-6556960D01*
X17312444Y-6556960D02*
X17293396Y-6566484D01*
X17293396Y-6566484D02*
X17274348Y-6566484D01*
X17274348Y-6566484D02*
X17255301Y-6556960D01*
X17255301Y-6556960D02*
X17245777Y-6547436D01*
X17245777Y-6547436D02*
X17236253Y-6528388D01*
X17236253Y-6528388D02*
X17226729Y-6490293D01*
X17226729Y-6490293D02*
X17226729Y-6442674D01*
X17226729Y-6442674D02*
X17236253Y-6404579D01*
X17236253Y-6404579D02*
X17245777Y-6385531D01*
X17245777Y-6385531D02*
X17255301Y-6376008D01*
X17255301Y-6376008D02*
X17274348Y-6366484D01*
X17455301Y-6452198D02*
X17436253Y-6442674D01*
X17436253Y-6442674D02*
X17426729Y-6433150D01*
X17426729Y-6433150D02*
X17417206Y-6414103D01*
X17417206Y-6414103D02*
X17417206Y-6404579D01*
X17417206Y-6404579D02*
X17426729Y-6385531D01*
X17426729Y-6385531D02*
X17436253Y-6376008D01*
X17436253Y-6376008D02*
X17455301Y-6366484D01*
X17455301Y-6366484D02*
X17493396Y-6366484D01*
X17493396Y-6366484D02*
X17512444Y-6376008D01*
X17512444Y-6376008D02*
X17521968Y-6385531D01*
X17521968Y-6385531D02*
X17531491Y-6404579D01*
X17531491Y-6404579D02*
X17531491Y-6414103D01*
X17531491Y-6414103D02*
X17521968Y-6433150D01*
X17521968Y-6433150D02*
X17512444Y-6442674D01*
X17512444Y-6442674D02*
X17493396Y-6452198D01*
X17493396Y-6452198D02*
X17455301Y-6452198D01*
X17455301Y-6452198D02*
X17436253Y-6461722D01*
X17436253Y-6461722D02*
X17426729Y-6471246D01*
X17426729Y-6471246D02*
X17417206Y-6490293D01*
X17417206Y-6490293D02*
X17417206Y-6528388D01*
X17417206Y-6528388D02*
X17426729Y-6547436D01*
X17426729Y-6547436D02*
X17436253Y-6556960D01*
X17436253Y-6556960D02*
X17455301Y-6566484D01*
X17455301Y-6566484D02*
X17493396Y-6566484D01*
X17493396Y-6566484D02*
X17512444Y-6556960D01*
X17512444Y-6556960D02*
X17521968Y-6547436D01*
X17521968Y-6547436D02*
X17531491Y-6528388D01*
X17531491Y-6528388D02*
X17531491Y-6490293D01*
X17531491Y-6490293D02*
X17521968Y-6471246D01*
X17521968Y-6471246D02*
X17512444Y-6461722D01*
X17512444Y-6461722D02*
X17493396Y-6452198D01*
X17607682Y-6385531D02*
X17617206Y-6376008D01*
X17617206Y-6376008D02*
X17636253Y-6366484D01*
X17636253Y-6366484D02*
X17683872Y-6366484D01*
X17683872Y-6366484D02*
X17702920Y-6376008D01*
X17702920Y-6376008D02*
X17712444Y-6385531D01*
X17712444Y-6385531D02*
X17721968Y-6404579D01*
X17721968Y-6404579D02*
X17721968Y-6423627D01*
X17721968Y-6423627D02*
X17712444Y-6452198D01*
X17712444Y-6452198D02*
X17598158Y-6566484D01*
X17598158Y-6566484D02*
X17721968Y-6566484D01*
X17788634Y-6366484D02*
X17921968Y-6366484D01*
X17921968Y-6366484D02*
X17836253Y-6566484D01*
X17988634Y-6366484D02*
X17988634Y-6404579D01*
X18064825Y-6366484D02*
X18064825Y-6404579D01*
X18360063Y-6642674D02*
X18350539Y-6633150D01*
X18350539Y-6633150D02*
X18331491Y-6604579D01*
X18331491Y-6604579D02*
X18321968Y-6585531D01*
X18321968Y-6585531D02*
X18312444Y-6556960D01*
X18312444Y-6556960D02*
X18302920Y-6509341D01*
X18302920Y-6509341D02*
X18302920Y-6471246D01*
X18302920Y-6471246D02*
X18312444Y-6423627D01*
X18312444Y-6423627D02*
X18321968Y-6395055D01*
X18321968Y-6395055D02*
X18331491Y-6376008D01*
X18331491Y-6376008D02*
X18350539Y-6347436D01*
X18350539Y-6347436D02*
X18360063Y-6337912D01*
X18426730Y-6385531D02*
X18436253Y-6376008D01*
X18436253Y-6376008D02*
X18455301Y-6366484D01*
X18455301Y-6366484D02*
X18502920Y-6366484D01*
X18502920Y-6366484D02*
X18521968Y-6376008D01*
X18521968Y-6376008D02*
X18531491Y-6385531D01*
X18531491Y-6385531D02*
X18541015Y-6404579D01*
X18541015Y-6404579D02*
X18541015Y-6423627D01*
X18541015Y-6423627D02*
X18531491Y-6452198D01*
X18531491Y-6452198D02*
X18417206Y-6566484D01*
X18417206Y-6566484D02*
X18541015Y-6566484D01*
X18779111Y-6566484D02*
X18779111Y-6366484D01*
X18864825Y-6566484D02*
X18864825Y-6461722D01*
X18864825Y-6461722D02*
X18855301Y-6442674D01*
X18855301Y-6442674D02*
X18836253Y-6433150D01*
X18836253Y-6433150D02*
X18807682Y-6433150D01*
X18807682Y-6433150D02*
X18788634Y-6442674D01*
X18788634Y-6442674D02*
X18779111Y-6452198D01*
X18988634Y-6566484D02*
X18969587Y-6556960D01*
X18969587Y-6556960D02*
X18960063Y-6547436D01*
X18960063Y-6547436D02*
X18950539Y-6528388D01*
X18950539Y-6528388D02*
X18950539Y-6471246D01*
X18950539Y-6471246D02*
X18960063Y-6452198D01*
X18960063Y-6452198D02*
X18969587Y-6442674D01*
X18969587Y-6442674D02*
X18988634Y-6433150D01*
X18988634Y-6433150D02*
X19017206Y-6433150D01*
X19017206Y-6433150D02*
X19036253Y-6442674D01*
X19036253Y-6442674D02*
X19045777Y-6452198D01*
X19045777Y-6452198D02*
X19055301Y-6471246D01*
X19055301Y-6471246D02*
X19055301Y-6528388D01*
X19055301Y-6528388D02*
X19045777Y-6547436D01*
X19045777Y-6547436D02*
X19036253Y-6556960D01*
X19036253Y-6556960D02*
X19017206Y-6566484D01*
X19017206Y-6566484D02*
X18988634Y-6566484D01*
X19169587Y-6566484D02*
X19150539Y-6556960D01*
X19150539Y-6556960D02*
X19141015Y-6537912D01*
X19141015Y-6537912D02*
X19141015Y-6366484D01*
X19321968Y-6556960D02*
X19302920Y-6566484D01*
X19302920Y-6566484D02*
X19264825Y-6566484D01*
X19264825Y-6566484D02*
X19245777Y-6556960D01*
X19245777Y-6556960D02*
X19236253Y-6537912D01*
X19236253Y-6537912D02*
X19236253Y-6461722D01*
X19236253Y-6461722D02*
X19245777Y-6442674D01*
X19245777Y-6442674D02*
X19264825Y-6433150D01*
X19264825Y-6433150D02*
X19302920Y-6433150D01*
X19302920Y-6433150D02*
X19321968Y-6442674D01*
X19321968Y-6442674D02*
X19331492Y-6461722D01*
X19331492Y-6461722D02*
X19331492Y-6480769D01*
X19331492Y-6480769D02*
X19236253Y-6499817D01*
X19407682Y-6556960D02*
X19426730Y-6566484D01*
X19426730Y-6566484D02*
X19464825Y-6566484D01*
X19464825Y-6566484D02*
X19483873Y-6556960D01*
X19483873Y-6556960D02*
X19493396Y-6537912D01*
X19493396Y-6537912D02*
X19493396Y-6528388D01*
X19493396Y-6528388D02*
X19483873Y-6509341D01*
X19483873Y-6509341D02*
X19464825Y-6499817D01*
X19464825Y-6499817D02*
X19436253Y-6499817D01*
X19436253Y-6499817D02*
X19417206Y-6490293D01*
X19417206Y-6490293D02*
X19407682Y-6471246D01*
X19407682Y-6471246D02*
X19407682Y-6461722D01*
X19407682Y-6461722D02*
X19417206Y-6442674D01*
X19417206Y-6442674D02*
X19436253Y-6433150D01*
X19436253Y-6433150D02*
X19464825Y-6433150D01*
X19464825Y-6433150D02*
X19483873Y-6442674D01*
X19560063Y-6642674D02*
X19569587Y-6633150D01*
X19569587Y-6633150D02*
X19588634Y-6604579D01*
X19588634Y-6604579D02*
X19598158Y-6585531D01*
X19598158Y-6585531D02*
X19607682Y-6556960D01*
X19607682Y-6556960D02*
X19617206Y-6509341D01*
X19617206Y-6509341D02*
X19617206Y-6471246D01*
X19617206Y-6471246D02*
X19607682Y-6423627D01*
X19607682Y-6423627D02*
X19598158Y-6395055D01*
X19598158Y-6395055D02*
X19588634Y-6376008D01*
X19588634Y-6376008D02*
X19569587Y-6347436D01*
X19569587Y-6347436D02*
X19560063Y-6337912D01*
X19921968Y-6642674D02*
X19912444Y-6633150D01*
X19912444Y-6633150D02*
X19893396Y-6604579D01*
X19893396Y-6604579D02*
X19883873Y-6585531D01*
X19883873Y-6585531D02*
X19874349Y-6556960D01*
X19874349Y-6556960D02*
X19864825Y-6509341D01*
X19864825Y-6509341D02*
X19864825Y-6471246D01*
X19864825Y-6471246D02*
X19874349Y-6423627D01*
X19874349Y-6423627D02*
X19883873Y-6395055D01*
X19883873Y-6395055D02*
X19893396Y-6376008D01*
X19893396Y-6376008D02*
X19912444Y-6347436D01*
X19912444Y-6347436D02*
X19921968Y-6337912D01*
X19998158Y-6433150D02*
X19998158Y-6566484D01*
X19998158Y-6452198D02*
X20007682Y-6442674D01*
X20007682Y-6442674D02*
X20026730Y-6433150D01*
X20026730Y-6433150D02*
X20055301Y-6433150D01*
X20055301Y-6433150D02*
X20074349Y-6442674D01*
X20074349Y-6442674D02*
X20083873Y-6461722D01*
X20083873Y-6461722D02*
X20083873Y-6566484D01*
X20207682Y-6566484D02*
X20188634Y-6556960D01*
X20188634Y-6556960D02*
X20179111Y-6547436D01*
X20179111Y-6547436D02*
X20169587Y-6528388D01*
X20169587Y-6528388D02*
X20169587Y-6471246D01*
X20169587Y-6471246D02*
X20179111Y-6452198D01*
X20179111Y-6452198D02*
X20188634Y-6442674D01*
X20188634Y-6442674D02*
X20207682Y-6433150D01*
X20207682Y-6433150D02*
X20236254Y-6433150D01*
X20236254Y-6433150D02*
X20255301Y-6442674D01*
X20255301Y-6442674D02*
X20264825Y-6452198D01*
X20264825Y-6452198D02*
X20274349Y-6471246D01*
X20274349Y-6471246D02*
X20274349Y-6528388D01*
X20274349Y-6528388D02*
X20264825Y-6547436D01*
X20264825Y-6547436D02*
X20255301Y-6556960D01*
X20255301Y-6556960D02*
X20236254Y-6566484D01*
X20236254Y-6566484D02*
X20207682Y-6566484D01*
X20331492Y-6433150D02*
X20407682Y-6433150D01*
X20360063Y-6366484D02*
X20360063Y-6537912D01*
X20360063Y-6537912D02*
X20369587Y-6556960D01*
X20369587Y-6556960D02*
X20388634Y-6566484D01*
X20388634Y-6566484D02*
X20407682Y-6566484D01*
X20626730Y-6433150D02*
X20626730Y-6633150D01*
X20626730Y-6442674D02*
X20645777Y-6433150D01*
X20645777Y-6433150D02*
X20683873Y-6433150D01*
X20683873Y-6433150D02*
X20702920Y-6442674D01*
X20702920Y-6442674D02*
X20712444Y-6452198D01*
X20712444Y-6452198D02*
X20721968Y-6471246D01*
X20721968Y-6471246D02*
X20721968Y-6528388D01*
X20721968Y-6528388D02*
X20712444Y-6547436D01*
X20712444Y-6547436D02*
X20702920Y-6556960D01*
X20702920Y-6556960D02*
X20683873Y-6566484D01*
X20683873Y-6566484D02*
X20645777Y-6566484D01*
X20645777Y-6566484D02*
X20626730Y-6556960D01*
X20836254Y-6566484D02*
X20817206Y-6556960D01*
X20817206Y-6556960D02*
X20807682Y-6537912D01*
X20807682Y-6537912D02*
X20807682Y-6366484D01*
X20998158Y-6566484D02*
X20998158Y-6461722D01*
X20998158Y-6461722D02*
X20988635Y-6442674D01*
X20988635Y-6442674D02*
X20969587Y-6433150D01*
X20969587Y-6433150D02*
X20931492Y-6433150D01*
X20931492Y-6433150D02*
X20912444Y-6442674D01*
X20998158Y-6556960D02*
X20979111Y-6566484D01*
X20979111Y-6566484D02*
X20931492Y-6566484D01*
X20931492Y-6566484D02*
X20912444Y-6556960D01*
X20912444Y-6556960D02*
X20902920Y-6537912D01*
X20902920Y-6537912D02*
X20902920Y-6518865D01*
X20902920Y-6518865D02*
X20912444Y-6499817D01*
X20912444Y-6499817D02*
X20931492Y-6490293D01*
X20931492Y-6490293D02*
X20979111Y-6490293D01*
X20979111Y-6490293D02*
X20998158Y-6480769D01*
X21064825Y-6433150D02*
X21141015Y-6433150D01*
X21093396Y-6366484D02*
X21093396Y-6537912D01*
X21093396Y-6537912D02*
X21102920Y-6556960D01*
X21102920Y-6556960D02*
X21121968Y-6566484D01*
X21121968Y-6566484D02*
X21141015Y-6566484D01*
X21283873Y-6556960D02*
X21264825Y-6566484D01*
X21264825Y-6566484D02*
X21226730Y-6566484D01*
X21226730Y-6566484D02*
X21207682Y-6556960D01*
X21207682Y-6556960D02*
X21198158Y-6537912D01*
X21198158Y-6537912D02*
X21198158Y-6461722D01*
X21198158Y-6461722D02*
X21207682Y-6442674D01*
X21207682Y-6442674D02*
X21226730Y-6433150D01*
X21226730Y-6433150D02*
X21264825Y-6433150D01*
X21264825Y-6433150D02*
X21283873Y-6442674D01*
X21283873Y-6442674D02*
X21293396Y-6461722D01*
X21293396Y-6461722D02*
X21293396Y-6480769D01*
X21293396Y-6480769D02*
X21198158Y-6499817D01*
X21464825Y-6566484D02*
X21464825Y-6366484D01*
X21464825Y-6556960D02*
X21445777Y-6566484D01*
X21445777Y-6566484D02*
X21407682Y-6566484D01*
X21407682Y-6566484D02*
X21388635Y-6556960D01*
X21388635Y-6556960D02*
X21379111Y-6547436D01*
X21379111Y-6547436D02*
X21369587Y-6528388D01*
X21369587Y-6528388D02*
X21369587Y-6471246D01*
X21369587Y-6471246D02*
X21379111Y-6452198D01*
X21379111Y-6452198D02*
X21388635Y-6442674D01*
X21388635Y-6442674D02*
X21407682Y-6433150D01*
X21407682Y-6433150D02*
X21445777Y-6433150D01*
X21445777Y-6433150D02*
X21464825Y-6442674D01*
X21541016Y-6642674D02*
X21550539Y-6633150D01*
X21550539Y-6633150D02*
X21569587Y-6604579D01*
X21569587Y-6604579D02*
X21579111Y-6585531D01*
X21579111Y-6585531D02*
X21588635Y-6556960D01*
X21588635Y-6556960D02*
X21598158Y-6509341D01*
X21598158Y-6509341D02*
X21598158Y-6471246D01*
X21598158Y-6471246D02*
X21588635Y-6423627D01*
X21588635Y-6423627D02*
X21579111Y-6395055D01*
X21579111Y-6395055D02*
X21569587Y-6376008D01*
X21569587Y-6376008D02*
X21550539Y-6347436D01*
X21550539Y-6347436D02*
X21541016Y-6337912D01*
M02*
