G04 #@! TF.GenerationSoftware,KiCad,Pcbnew,7.0.7*
G04 #@! TF.CreationDate,2023-09-18T19:37:29-04:00*
G04 #@! TF.ProjectId,Nav Switch Mount,4e617620-5377-4697-9463-68204d6f756e,rev?*
G04 #@! TF.SameCoordinates,Original*
G04 #@! TF.FileFunction,Legend,Bot*
G04 #@! TF.FilePolarity,Positive*
%FSLAX46Y46*%
G04 Gerber Fmt 4.6, Leading zero omitted, Abs format (unit mm)*
G04 Created by KiCad (PCBNEW 7.0.7) date 2023-09-18 19:37:29*
%MOMM*%
%LPD*%
G01*
G04 APERTURE LIST*
G04 Aperture macros list*
%AMRoundRect*
0 Rectangle with rounded corners*
0 $1 Rounding radius*
0 $2 $3 $4 $5 $6 $7 $8 $9 X,Y pos of 4 corners*
0 Add a 4 corners polygon primitive as box body*
4,1,4,$2,$3,$4,$5,$6,$7,$8,$9,$2,$3,0*
0 Add four circle primitives for the rounded corners*
1,1,$1+$1,$2,$3*
1,1,$1+$1,$4,$5*
1,1,$1+$1,$6,$7*
1,1,$1+$1,$8,$9*
0 Add four rect primitives between the rounded corners*
20,1,$1+$1,$2,$3,$4,$5,0*
20,1,$1+$1,$4,$5,$6,$7,0*
20,1,$1+$1,$6,$7,$8,$9,0*
20,1,$1+$1,$8,$9,$2,$3,0*%
%AMFreePoly0*
4,1,24,-1.800000,0.500000,-1.788573,0.606283,-1.738839,0.739624,-1.653553,0.853553,-1.539624,0.938839,-1.406283,0.988573,-1.300000,1.000000,1.300000,1.000000,1.406283,0.988573,1.539624,0.938839,1.653553,0.853553,1.738839,0.739624,1.788573,0.606283,1.800000,0.500000,1.800000,-0.500000,1.788573,-0.606283,1.738839,-0.739624,1.653553,-0.853553,1.539624,-0.938839,1.406283,-0.988573,
1.300000,-1.000000,-1.200000,-1.000000,-1.800000,-0.400000,-1.800000,0.500000,-1.800000,0.500000,$1*%
G04 Aperture macros list end*
%ADD10C,0.200000*%
%ADD11C,0.150000*%
%ADD12C,0.300000*%
%ADD13C,2.100000*%
%ADD14RoundRect,0.102000X-0.900000X-0.900000X0.900000X-0.900000X0.900000X0.900000X-0.900000X0.900000X0*%
%ADD15C,1.712000*%
%ADD16C,2.004000*%
%ADD17RoundRect,0.500000X1.300000X0.500000X-1.300000X0.500000X-1.300000X-0.500000X1.300000X-0.500000X0*%
%ADD18RoundRect,0.400000X1.400000X0.600000X-1.400000X0.600000X-1.400000X-0.600000X1.400000X-0.600000X0*%
%ADD19FreePoly0,180.000000*%
%ADD20RoundRect,0.225000X0.225000X0.375000X-0.225000X0.375000X-0.225000X-0.375000X0.225000X-0.375000X0*%
G04 APERTURE END LIST*
D10*
X155204762Y-50986933D02*
X154595238Y-50986933D01*
X154747619Y-51139314D02*
X154595238Y-50986933D01*
X154595238Y-50986933D02*
X154747619Y-50834552D01*
D11*
X161583332Y-48294295D02*
X161849999Y-47913342D01*
X162040475Y-48294295D02*
X162040475Y-47494295D01*
X162040475Y-47494295D02*
X161735713Y-47494295D01*
X161735713Y-47494295D02*
X161659523Y-47532390D01*
X161659523Y-47532390D02*
X161621428Y-47570485D01*
X161621428Y-47570485D02*
X161583332Y-47646676D01*
X161583332Y-47646676D02*
X161583332Y-47760961D01*
X161583332Y-47760961D02*
X161621428Y-47837152D01*
X161621428Y-47837152D02*
X161659523Y-47875247D01*
X161659523Y-47875247D02*
X161735713Y-47913342D01*
X161735713Y-47913342D02*
X162040475Y-47913342D01*
X161126190Y-48294295D02*
X161202380Y-48256200D01*
X161202380Y-48256200D02*
X161240475Y-48218104D01*
X161240475Y-48218104D02*
X161278571Y-48141914D01*
X161278571Y-48141914D02*
X161278571Y-47913342D01*
X161278571Y-47913342D02*
X161240475Y-47837152D01*
X161240475Y-47837152D02*
X161202380Y-47799057D01*
X161202380Y-47799057D02*
X161126190Y-47760961D01*
X161126190Y-47760961D02*
X161011904Y-47760961D01*
X161011904Y-47760961D02*
X160935713Y-47799057D01*
X160935713Y-47799057D02*
X160897618Y-47837152D01*
X160897618Y-47837152D02*
X160859523Y-47913342D01*
X160859523Y-47913342D02*
X160859523Y-48141914D01*
X160859523Y-48141914D02*
X160897618Y-48218104D01*
X160897618Y-48218104D02*
X160935713Y-48256200D01*
X160935713Y-48256200D02*
X161011904Y-48294295D01*
X161011904Y-48294295D02*
X161126190Y-48294295D01*
X160592856Y-47760961D02*
X160440475Y-48294295D01*
X160440475Y-48294295D02*
X160288094Y-47913342D01*
X160288094Y-47913342D02*
X160135713Y-48294295D01*
X160135713Y-48294295D02*
X159983332Y-47760961D01*
D10*
X157049999Y-48291695D02*
X157049999Y-47682171D01*
X157202380Y-47834552D02*
X157049999Y-47682171D01*
X157049999Y-47682171D02*
X156897618Y-47834552D01*
X157050000Y-55682171D02*
X157050000Y-56291695D01*
X157202381Y-56139314D02*
X157050000Y-56291695D01*
X157050000Y-56291695D02*
X156897619Y-56139314D01*
X162923809Y-50910742D02*
X162923809Y-51063123D01*
X162961904Y-51063123D02*
X162961904Y-50910742D01*
X163000000Y-50872647D02*
X163000000Y-51101219D01*
X163038095Y-51063123D02*
X163038095Y-50910742D01*
X163076190Y-50910742D02*
X163076190Y-51063123D01*
X162923809Y-51025028D02*
X163000000Y-51101219D01*
X163000000Y-51101219D02*
X163076190Y-51025028D01*
X162923809Y-50948838D02*
X163000000Y-50872647D01*
X163000000Y-50872647D02*
X163076190Y-50948838D01*
X162923809Y-50910742D02*
X163000000Y-50872647D01*
X163000000Y-50872647D02*
X163076190Y-50910742D01*
X163076190Y-50910742D02*
X163114285Y-50986933D01*
X163114285Y-50986933D02*
X163076190Y-51063123D01*
X163076190Y-51063123D02*
X163000000Y-51101219D01*
X163000000Y-51101219D02*
X162923809Y-51063123D01*
X162923809Y-51063123D02*
X162885714Y-50986933D01*
X162885714Y-50986933D02*
X162923809Y-50910742D01*
X160745238Y-55986933D02*
X161354762Y-55986933D01*
X161202381Y-56139314D02*
X161354762Y-55986933D01*
X161354762Y-55986933D02*
X161202381Y-55834552D01*
D11*
X150877976Y-52962295D02*
X150877976Y-52162295D01*
X150877976Y-52162295D02*
X150687500Y-52162295D01*
X150687500Y-52162295D02*
X150573214Y-52200390D01*
X150573214Y-52200390D02*
X150497024Y-52276580D01*
X150497024Y-52276580D02*
X150458929Y-52352771D01*
X150458929Y-52352771D02*
X150420833Y-52505152D01*
X150420833Y-52505152D02*
X150420833Y-52619438D01*
X150420833Y-52619438D02*
X150458929Y-52771819D01*
X150458929Y-52771819D02*
X150497024Y-52848009D01*
X150497024Y-52848009D02*
X150573214Y-52924200D01*
X150573214Y-52924200D02*
X150687500Y-52962295D01*
X150687500Y-52962295D02*
X150877976Y-52962295D01*
X150154167Y-52162295D02*
X149658929Y-52162295D01*
X149658929Y-52162295D02*
X149925595Y-52467057D01*
X149925595Y-52467057D02*
X149811310Y-52467057D01*
X149811310Y-52467057D02*
X149735119Y-52505152D01*
X149735119Y-52505152D02*
X149697024Y-52543247D01*
X149697024Y-52543247D02*
X149658929Y-52619438D01*
X149658929Y-52619438D02*
X149658929Y-52809914D01*
X149658929Y-52809914D02*
X149697024Y-52886104D01*
X149697024Y-52886104D02*
X149735119Y-52924200D01*
X149735119Y-52924200D02*
X149811310Y-52962295D01*
X149811310Y-52962295D02*
X150039881Y-52962295D01*
X150039881Y-52962295D02*
X150116072Y-52924200D01*
X150116072Y-52924200D02*
X150154167Y-52886104D01*
X150877976Y-50662295D02*
X150877976Y-49862295D01*
X150877976Y-49862295D02*
X150687500Y-49862295D01*
X150687500Y-49862295D02*
X150573214Y-49900390D01*
X150573214Y-49900390D02*
X150497024Y-49976580D01*
X150497024Y-49976580D02*
X150458929Y-50052771D01*
X150458929Y-50052771D02*
X150420833Y-50205152D01*
X150420833Y-50205152D02*
X150420833Y-50319438D01*
X150420833Y-50319438D02*
X150458929Y-50471819D01*
X150458929Y-50471819D02*
X150497024Y-50548009D01*
X150497024Y-50548009D02*
X150573214Y-50624200D01*
X150573214Y-50624200D02*
X150687500Y-50662295D01*
X150687500Y-50662295D02*
X150877976Y-50662295D01*
X150116072Y-49938485D02*
X150077976Y-49900390D01*
X150077976Y-49900390D02*
X150001786Y-49862295D01*
X150001786Y-49862295D02*
X149811310Y-49862295D01*
X149811310Y-49862295D02*
X149735119Y-49900390D01*
X149735119Y-49900390D02*
X149697024Y-49938485D01*
X149697024Y-49938485D02*
X149658929Y-50014676D01*
X149658929Y-50014676D02*
X149658929Y-50090866D01*
X149658929Y-50090866D02*
X149697024Y-50205152D01*
X149697024Y-50205152D02*
X150154167Y-50662295D01*
X150154167Y-50662295D02*
X149658929Y-50662295D01*
X167877976Y-52962295D02*
X167877976Y-52162295D01*
X167877976Y-52162295D02*
X167687500Y-52162295D01*
X167687500Y-52162295D02*
X167573214Y-52200390D01*
X167573214Y-52200390D02*
X167497024Y-52276580D01*
X167497024Y-52276580D02*
X167458929Y-52352771D01*
X167458929Y-52352771D02*
X167420833Y-52505152D01*
X167420833Y-52505152D02*
X167420833Y-52619438D01*
X167420833Y-52619438D02*
X167458929Y-52771819D01*
X167458929Y-52771819D02*
X167497024Y-52848009D01*
X167497024Y-52848009D02*
X167573214Y-52924200D01*
X167573214Y-52924200D02*
X167687500Y-52962295D01*
X167687500Y-52962295D02*
X167877976Y-52962295D01*
X166697024Y-52162295D02*
X167077976Y-52162295D01*
X167077976Y-52162295D02*
X167116072Y-52543247D01*
X167116072Y-52543247D02*
X167077976Y-52505152D01*
X167077976Y-52505152D02*
X167001786Y-52467057D01*
X167001786Y-52467057D02*
X166811310Y-52467057D01*
X166811310Y-52467057D02*
X166735119Y-52505152D01*
X166735119Y-52505152D02*
X166697024Y-52543247D01*
X166697024Y-52543247D02*
X166658929Y-52619438D01*
X166658929Y-52619438D02*
X166658929Y-52809914D01*
X166658929Y-52809914D02*
X166697024Y-52886104D01*
X166697024Y-52886104D02*
X166735119Y-52924200D01*
X166735119Y-52924200D02*
X166811310Y-52962295D01*
X166811310Y-52962295D02*
X167001786Y-52962295D01*
X167001786Y-52962295D02*
X167077976Y-52924200D01*
X167077976Y-52924200D02*
X167116072Y-52886104D01*
X167877976Y-55262295D02*
X167877976Y-54462295D01*
X167877976Y-54462295D02*
X167687500Y-54462295D01*
X167687500Y-54462295D02*
X167573214Y-54500390D01*
X167573214Y-54500390D02*
X167497024Y-54576580D01*
X167497024Y-54576580D02*
X167458929Y-54652771D01*
X167458929Y-54652771D02*
X167420833Y-54805152D01*
X167420833Y-54805152D02*
X167420833Y-54919438D01*
X167420833Y-54919438D02*
X167458929Y-55071819D01*
X167458929Y-55071819D02*
X167497024Y-55148009D01*
X167497024Y-55148009D02*
X167573214Y-55224200D01*
X167573214Y-55224200D02*
X167687500Y-55262295D01*
X167687500Y-55262295D02*
X167877976Y-55262295D01*
X166735119Y-54728961D02*
X166735119Y-55262295D01*
X166925595Y-54424200D02*
X167116072Y-54995628D01*
X167116072Y-54995628D02*
X166620833Y-54995628D01*
X150877976Y-48362295D02*
X150877976Y-47562295D01*
X150877976Y-47562295D02*
X150687500Y-47562295D01*
X150687500Y-47562295D02*
X150573214Y-47600390D01*
X150573214Y-47600390D02*
X150497024Y-47676580D01*
X150497024Y-47676580D02*
X150458929Y-47752771D01*
X150458929Y-47752771D02*
X150420833Y-47905152D01*
X150420833Y-47905152D02*
X150420833Y-48019438D01*
X150420833Y-48019438D02*
X150458929Y-48171819D01*
X150458929Y-48171819D02*
X150497024Y-48248009D01*
X150497024Y-48248009D02*
X150573214Y-48324200D01*
X150573214Y-48324200D02*
X150687500Y-48362295D01*
X150687500Y-48362295D02*
X150877976Y-48362295D01*
X149658929Y-48362295D02*
X150116072Y-48362295D01*
X149887500Y-48362295D02*
X149887500Y-47562295D01*
X149887500Y-47562295D02*
X149963691Y-47676580D01*
X149963691Y-47676580D02*
X150039881Y-47752771D01*
X150039881Y-47752771D02*
X150116072Y-47790866D01*
D12*
X151375000Y-52000000D02*
X151375000Y-53200000D01*
X151375000Y-49700000D02*
X151375000Y-50900000D01*
X168375000Y-52000000D02*
X168375000Y-53200000D01*
X168375000Y-54300000D02*
X168375000Y-55500000D01*
X151375000Y-47400000D02*
X151375000Y-48600000D01*
%LPC*%
D13*
X150000000Y-56200000D03*
X168100000Y-47800000D03*
D14*
X153900000Y-48725000D03*
D15*
X153900000Y-52425000D03*
D16*
X153900000Y-55225000D03*
X164200000Y-55225000D03*
D15*
X164200000Y-52425000D03*
D16*
X164200000Y-48725000D03*
D17*
X157050000Y-49500000D03*
X157050000Y-52000000D03*
X157050000Y-54500000D03*
D18*
X161050000Y-54500000D03*
D17*
X161050000Y-52000000D03*
D19*
X161050000Y-49500000D03*
D20*
X152200000Y-52600000D03*
X148900000Y-52600000D03*
X152200000Y-50300000D03*
X148900000Y-50300000D03*
X169200000Y-52600000D03*
X165900000Y-52600000D03*
X169200000Y-54900000D03*
X165900000Y-54900000D03*
X152200000Y-48000000D03*
X148900000Y-48000000D03*
%LPD*%
M02*
