G04 #@! TF.GenerationSoftware,KiCad,Pcbnew,7.0.7*
G04 #@! TF.CreationDate,2023-09-18T19:37:29-04:00*
G04 #@! TF.ProjectId,Nav Switch Mount,4e617620-5377-4697-9463-68204d6f756e,rev?*
G04 #@! TF.SameCoordinates,Original*
G04 #@! TF.FileFunction,Copper,L2,Bot*
G04 #@! TF.FilePolarity,Positive*
%FSLAX46Y46*%
G04 Gerber Fmt 4.6, Leading zero omitted, Abs format (unit mm)*
G04 Created by KiCad (PCBNEW 7.0.7) date 2023-09-18 19:37:29*
%MOMM*%
%LPD*%
G01*
G04 APERTURE LIST*
G04 Aperture macros list*
%AMRoundRect*
0 Rectangle with rounded corners*
0 $1 Rounding radius*
0 $2 $3 $4 $5 $6 $7 $8 $9 X,Y pos of 4 corners*
0 Add a 4 corners polygon primitive as box body*
4,1,4,$2,$3,$4,$5,$6,$7,$8,$9,$2,$3,0*
0 Add four circle primitives for the rounded corners*
1,1,$1+$1,$2,$3*
1,1,$1+$1,$4,$5*
1,1,$1+$1,$6,$7*
1,1,$1+$1,$8,$9*
0 Add four rect primitives between the rounded corners*
20,1,$1+$1,$2,$3,$4,$5,0*
20,1,$1+$1,$4,$5,$6,$7,0*
20,1,$1+$1,$6,$7,$8,$9,0*
20,1,$1+$1,$8,$9,$2,$3,0*%
%AMFreePoly0*
4,1,24,-1.800000,0.500000,-1.788573,0.606283,-1.738839,0.739624,-1.653553,0.853553,-1.539624,0.938839,-1.406283,0.988573,-1.300000,1.000000,1.300000,1.000000,1.406283,0.988573,1.539624,0.938839,1.653553,0.853553,1.738839,0.739624,1.788573,0.606283,1.800000,0.500000,1.800000,-0.500000,1.788573,-0.606283,1.738839,-0.739624,1.653553,-0.853553,1.539624,-0.938839,1.406283,-0.988573,
1.300000,-1.000000,-1.200000,-1.000000,-1.800000,-0.400000,-1.800000,0.500000,-1.800000,0.500000,$1*%
G04 Aperture macros list end*
G04 #@! TA.AperFunction,ComponentPad*
%ADD10R,1.800000X1.800000*%
G04 #@! TD*
G04 #@! TA.AperFunction,ComponentPad*
%ADD11C,1.508000*%
G04 #@! TD*
G04 #@! TA.AperFunction,ComponentPad*
%ADD12C,1.800000*%
G04 #@! TD*
G04 #@! TA.AperFunction,SMDPad,CuDef*
%ADD13RoundRect,0.500000X1.300000X0.500000X-1.300000X0.500000X-1.300000X-0.500000X1.300000X-0.500000X0*%
G04 #@! TD*
G04 #@! TA.AperFunction,SMDPad,CuDef*
%ADD14RoundRect,0.400000X1.400000X0.600000X-1.400000X0.600000X-1.400000X-0.600000X1.400000X-0.600000X0*%
G04 #@! TD*
G04 #@! TA.AperFunction,SMDPad,CuDef*
%ADD15FreePoly0,180.000000*%
G04 #@! TD*
G04 #@! TA.AperFunction,SMDPad,CuDef*
%ADD16RoundRect,0.225000X0.225000X0.375000X-0.225000X0.375000X-0.225000X-0.375000X0.225000X-0.375000X0*%
G04 #@! TD*
G04 #@! TA.AperFunction,ViaPad*
%ADD17C,0.800000*%
G04 #@! TD*
G04 #@! TA.AperFunction,Conductor*
%ADD18C,0.400000*%
G04 #@! TD*
G04 APERTURE END LIST*
D10*
X153900000Y-48725000D03*
D11*
X153900000Y-52425000D03*
D12*
X153900000Y-55225000D03*
X164200000Y-55225000D03*
D11*
X164200000Y-52425000D03*
D12*
X164200000Y-48725000D03*
D13*
X157050000Y-49500000D03*
X157050000Y-52000000D03*
X157050000Y-54500000D03*
D14*
X161050000Y-54500000D03*
D13*
X161050000Y-52000000D03*
D15*
X161050000Y-49500000D03*
D16*
X152200000Y-52600000D03*
X148900000Y-52600000D03*
X152200000Y-50300000D03*
X148900000Y-50300000D03*
X169200000Y-52600000D03*
X165900000Y-52600000D03*
X169200000Y-54900000D03*
X165900000Y-54900000D03*
X152200000Y-48000000D03*
X148900000Y-48000000D03*
D17*
X153900000Y-50300000D03*
X165600000Y-50300000D03*
D18*
X152200000Y-48000000D02*
X153175000Y-48000000D01*
X153175000Y-48000000D02*
X153900000Y-48725000D01*
X150100000Y-46800000D02*
X154350000Y-46800000D01*
X148900000Y-48000000D02*
X150100000Y-46800000D01*
X154350000Y-46800000D02*
X157050000Y-49500000D01*
X153900000Y-50300000D02*
X152200000Y-50300000D01*
X153029000Y-51271000D02*
X156321000Y-51271000D01*
X152800000Y-51500000D02*
X153029000Y-51271000D01*
X150100000Y-51500000D02*
X152800000Y-51500000D01*
X148900000Y-50300000D02*
X150100000Y-51500000D01*
X153900000Y-55225000D02*
X152200000Y-53525000D01*
X152200000Y-53525000D02*
X152200000Y-52600000D01*
X154750000Y-56800000D02*
X157050000Y-54500000D01*
X153100000Y-56800000D02*
X154750000Y-56800000D01*
X148900000Y-52600000D02*
X153100000Y-56800000D01*
X165575000Y-53800000D02*
X168100000Y-53800000D01*
X168100000Y-53800000D02*
X169200000Y-54900000D01*
X164200000Y-52425000D02*
X165575000Y-53800000D01*
X161050000Y-54500000D02*
X163350000Y-56800000D01*
X165900000Y-56000000D02*
X165900000Y-54900000D01*
X163350000Y-56800000D02*
X165100000Y-56800000D01*
X165100000Y-56800000D02*
X165900000Y-56000000D01*
X165525000Y-48725000D02*
X169200000Y-52400000D01*
X164200000Y-48725000D02*
X165525000Y-48725000D01*
X165021000Y-51221000D02*
X165900000Y-52100000D01*
X161829000Y-51221000D02*
X165021000Y-51221000D01*
X165900000Y-52100000D02*
X165900000Y-52600000D01*
X162950000Y-50300000D02*
X162400000Y-49750000D01*
X165600000Y-50300000D02*
X162950000Y-50300000D01*
G04 #@! TA.AperFunction,NonConductor*
G36*
X148205703Y-48932161D02*
G01*
X148212181Y-48938193D01*
X148221955Y-48947967D01*
X148221959Y-48947970D01*
X148366302Y-49037003D01*
X148367621Y-49037618D01*
X148368373Y-49038280D01*
X148372450Y-49040795D01*
X148372020Y-49041491D01*
X148420061Y-49083790D01*
X148439213Y-49150983D01*
X148418998Y-49217864D01*
X148372045Y-49258548D01*
X148372450Y-49259205D01*
X148368415Y-49261693D01*
X148367621Y-49262382D01*
X148366302Y-49262996D01*
X148221959Y-49352029D01*
X148221953Y-49352033D01*
X148212178Y-49361809D01*
X148150854Y-49395292D01*
X148081163Y-49390305D01*
X148025230Y-49348432D01*
X148000816Y-49282967D01*
X148000500Y-49274125D01*
X148000500Y-49025874D01*
X148020185Y-48958835D01*
X148072989Y-48913080D01*
X148142147Y-48903136D01*
X148205703Y-48932161D01*
G37*
G04 #@! TD.AperFunction*
G04 #@! TA.AperFunction,NonConductor*
G36*
X151192539Y-47520185D02*
G01*
X151238294Y-47572989D01*
X151249500Y-47624500D01*
X151249500Y-48423337D01*
X151249501Y-48423355D01*
X151259650Y-48522707D01*
X151259651Y-48522710D01*
X151312996Y-48683694D01*
X151313001Y-48683705D01*
X151402029Y-48828040D01*
X151402032Y-48828044D01*
X151521955Y-48947967D01*
X151521959Y-48947970D01*
X151666302Y-49037003D01*
X151667621Y-49037618D01*
X151668373Y-49038280D01*
X151672450Y-49040795D01*
X151672020Y-49041491D01*
X151720061Y-49083790D01*
X151739213Y-49150983D01*
X151718998Y-49217864D01*
X151672045Y-49258548D01*
X151672450Y-49259205D01*
X151668415Y-49261693D01*
X151667621Y-49262382D01*
X151666302Y-49262996D01*
X151521959Y-49352029D01*
X151521955Y-49352032D01*
X151402032Y-49471955D01*
X151402029Y-49471959D01*
X151313001Y-49616294D01*
X151312996Y-49616305D01*
X151259651Y-49777290D01*
X151249500Y-49876647D01*
X151249500Y-49876655D01*
X151249500Y-50296161D01*
X151249501Y-50675500D01*
X151229817Y-50742539D01*
X151177013Y-50788294D01*
X151125501Y-50799500D01*
X150441519Y-50799500D01*
X150374480Y-50779815D01*
X150353838Y-50763181D01*
X149886818Y-50296161D01*
X149853333Y-50234838D01*
X149850499Y-50208480D01*
X149850499Y-49876662D01*
X149850498Y-49876644D01*
X149840349Y-49777292D01*
X149840348Y-49777289D01*
X149787003Y-49616303D01*
X149786999Y-49616297D01*
X149786998Y-49616294D01*
X149697970Y-49471959D01*
X149697967Y-49471955D01*
X149578044Y-49352032D01*
X149578040Y-49352029D01*
X149433704Y-49263001D01*
X149433701Y-49263000D01*
X149433697Y-49262997D01*
X149433691Y-49262995D01*
X149432383Y-49262385D01*
X149431628Y-49261720D01*
X149427550Y-49259205D01*
X149427979Y-49258508D01*
X149379942Y-49216215D01*
X149360786Y-49149023D01*
X149380998Y-49082141D01*
X149427955Y-49041451D01*
X149427550Y-49040795D01*
X149431586Y-49038305D01*
X149432383Y-49037615D01*
X149433684Y-49037007D01*
X149433697Y-49037003D01*
X149578044Y-48947968D01*
X149697968Y-48828044D01*
X149787003Y-48683697D01*
X149840349Y-48522708D01*
X149850500Y-48423345D01*
X149850499Y-48091517D01*
X149870183Y-48024479D01*
X149886813Y-48003842D01*
X150353837Y-47536819D01*
X150415161Y-47503334D01*
X150441519Y-47500500D01*
X151125500Y-47500500D01*
X151192539Y-47520185D01*
G37*
G04 #@! TD.AperFunction*
G04 #@! TA.AperFunction,NonConductor*
G36*
X148205703Y-51232161D02*
G01*
X148212181Y-51238193D01*
X148221955Y-51247967D01*
X148221959Y-51247970D01*
X148366302Y-51337003D01*
X148367621Y-51337618D01*
X148368373Y-51338280D01*
X148372450Y-51340795D01*
X148372020Y-51341491D01*
X148420061Y-51383790D01*
X148439213Y-51450983D01*
X148418998Y-51517864D01*
X148372045Y-51558548D01*
X148372450Y-51559205D01*
X148368415Y-51561693D01*
X148367621Y-51562382D01*
X148366302Y-51562996D01*
X148221959Y-51652029D01*
X148221953Y-51652033D01*
X148212178Y-51661809D01*
X148150854Y-51695292D01*
X148081163Y-51690305D01*
X148025230Y-51648432D01*
X148000816Y-51582967D01*
X148000500Y-51574125D01*
X148000500Y-51325874D01*
X148020185Y-51258835D01*
X148072989Y-51213080D01*
X148142147Y-51203136D01*
X148205703Y-51232161D01*
G37*
G04 #@! TD.AperFunction*
G04 #@! TA.AperFunction,NonConductor*
G36*
X168002025Y-45800632D02*
G01*
X168269993Y-45818196D01*
X168278022Y-45819254D01*
X168539405Y-45871246D01*
X168547231Y-45873342D01*
X168799588Y-45959006D01*
X168807082Y-45962109D01*
X169046107Y-46079983D01*
X169053129Y-46084038D01*
X169274717Y-46232098D01*
X169281145Y-46237030D01*
X169481512Y-46412746D01*
X169487251Y-46418485D01*
X169662967Y-46618852D01*
X169667903Y-46625284D01*
X169722964Y-46707689D01*
X169815960Y-46846868D01*
X169820019Y-46853898D01*
X169937887Y-47092910D01*
X169940993Y-47100411D01*
X169956899Y-47147267D01*
X170017061Y-47324500D01*
X170026653Y-47352755D01*
X170028754Y-47360598D01*
X170080744Y-47621970D01*
X170081804Y-47630019D01*
X170096999Y-47861847D01*
X170099367Y-47897964D01*
X170099500Y-47902021D01*
X170099500Y-51574126D01*
X170079815Y-51641165D01*
X170027011Y-51686920D01*
X169957853Y-51696864D01*
X169894297Y-51667839D01*
X169887819Y-51661807D01*
X169878044Y-51652032D01*
X169878040Y-51652029D01*
X169733705Y-51563001D01*
X169733699Y-51562998D01*
X169733697Y-51562997D01*
X169641880Y-51532572D01*
X169572709Y-51509651D01*
X169473352Y-51499500D01*
X169473345Y-51499500D01*
X169341519Y-51499500D01*
X169274480Y-51479815D01*
X169253838Y-51463181D01*
X167667301Y-49876644D01*
X166036598Y-48245941D01*
X166034064Y-48243250D01*
X165992929Y-48196817D01*
X165992928Y-48196816D01*
X165992924Y-48196812D01*
X165941896Y-48161591D01*
X165938887Y-48159377D01*
X165890060Y-48121124D01*
X165890055Y-48121120D01*
X165880813Y-48116961D01*
X165861266Y-48105936D01*
X165852931Y-48100183D01*
X165852932Y-48100183D01*
X165852930Y-48100182D01*
X165794941Y-48078189D01*
X165791490Y-48076759D01*
X165734930Y-48051304D01*
X165724946Y-48049474D01*
X165703343Y-48043451D01*
X165693874Y-48039860D01*
X165693870Y-48039859D01*
X165632313Y-48032384D01*
X165628612Y-48031821D01*
X165567608Y-48020642D01*
X165567603Y-48020642D01*
X165505697Y-48024387D01*
X165501952Y-48024500D01*
X165482351Y-48024500D01*
X165415312Y-48004815D01*
X165378542Y-47968321D01*
X165308983Y-47861852D01*
X165308980Y-47861849D01*
X165308979Y-47861847D01*
X165252046Y-47800001D01*
X166794532Y-47800001D01*
X166813835Y-48020642D01*
X166814365Y-48026692D01*
X166824666Y-48065136D01*
X166873258Y-48246488D01*
X166873261Y-48246497D01*
X166969431Y-48452732D01*
X166969432Y-48452734D01*
X167099954Y-48639141D01*
X167260858Y-48800045D01*
X167300845Y-48828044D01*
X167447266Y-48930568D01*
X167653504Y-49026739D01*
X167873308Y-49085635D01*
X168043216Y-49100500D01*
X168156784Y-49100500D01*
X168326692Y-49085635D01*
X168546496Y-49026739D01*
X168752734Y-48930568D01*
X168939139Y-48800047D01*
X169100047Y-48639139D01*
X169230568Y-48452734D01*
X169326739Y-48246496D01*
X169385635Y-48026692D01*
X169405468Y-47800000D01*
X169385635Y-47573308D01*
X169326739Y-47353504D01*
X169230568Y-47147266D01*
X169100047Y-46960861D01*
X169100045Y-46960858D01*
X168939141Y-46799954D01*
X168752734Y-46669432D01*
X168752732Y-46669431D01*
X168546497Y-46573261D01*
X168546488Y-46573258D01*
X168326697Y-46514366D01*
X168326687Y-46514364D01*
X168156784Y-46499500D01*
X168043216Y-46499500D01*
X167873312Y-46514364D01*
X167873302Y-46514366D01*
X167653511Y-46573258D01*
X167653502Y-46573261D01*
X167447267Y-46669431D01*
X167447265Y-46669432D01*
X167260858Y-46799954D01*
X167099954Y-46960858D01*
X166969432Y-47147265D01*
X166969431Y-47147267D01*
X166873261Y-47353502D01*
X166873258Y-47353511D01*
X166814366Y-47573302D01*
X166814364Y-47573313D01*
X166794532Y-47799998D01*
X166794532Y-47800001D01*
X165252046Y-47800001D01*
X165151784Y-47691087D01*
X165151779Y-47691083D01*
X165151777Y-47691081D01*
X164968634Y-47548535D01*
X164968628Y-47548531D01*
X164764504Y-47438064D01*
X164764495Y-47438061D01*
X164544984Y-47362702D01*
X164373282Y-47334050D01*
X164316049Y-47324500D01*
X164083951Y-47324500D01*
X164038164Y-47332140D01*
X163855015Y-47362702D01*
X163635504Y-47438061D01*
X163635495Y-47438064D01*
X163431371Y-47548531D01*
X163431365Y-47548535D01*
X163248222Y-47691081D01*
X163248219Y-47691084D01*
X163091016Y-47861852D01*
X162964076Y-48056149D01*
X162899741Y-48202819D01*
X162854785Y-48256304D01*
X162788048Y-48276994D01*
X162720721Y-48258319D01*
X162698504Y-48240689D01*
X162574932Y-48117117D01*
X162574922Y-48117108D01*
X162508017Y-48065136D01*
X162427586Y-48031821D01*
X162375050Y-48010060D01*
X162290977Y-47999500D01*
X159691964Y-47999501D01*
X159662727Y-48002100D01*
X159572584Y-48010113D01*
X159376954Y-48066089D01*
X159196591Y-48160303D01*
X159128360Y-48215938D01*
X159063964Y-48243046D01*
X158995134Y-48231036D01*
X158971640Y-48215938D01*
X158903408Y-48160303D01*
X158903407Y-48160302D01*
X158723049Y-48066091D01*
X158723048Y-48066090D01*
X158723045Y-48066089D01*
X158585366Y-48026695D01*
X158527418Y-48010114D01*
X158527415Y-48010113D01*
X158527413Y-48010113D01*
X158436983Y-48002073D01*
X158408037Y-47999500D01*
X158408035Y-47999500D01*
X156591519Y-47999500D01*
X156524480Y-47979815D01*
X156503838Y-47963181D01*
X155687922Y-47147265D01*
X154861598Y-46320941D01*
X154859064Y-46318250D01*
X154817929Y-46271817D01*
X154817928Y-46271816D01*
X154817924Y-46271812D01*
X154766896Y-46236591D01*
X154763887Y-46234377D01*
X154715060Y-46196124D01*
X154715055Y-46196120D01*
X154705813Y-46191961D01*
X154686266Y-46180936D01*
X154677931Y-46175183D01*
X154677932Y-46175183D01*
X154677930Y-46175182D01*
X154619941Y-46153189D01*
X154616490Y-46151759D01*
X154559930Y-46126304D01*
X154549946Y-46124474D01*
X154528343Y-46118451D01*
X154518874Y-46114860D01*
X154518870Y-46114859D01*
X154457313Y-46107384D01*
X154453612Y-46106821D01*
X154392608Y-46095642D01*
X154392603Y-46095642D01*
X154330697Y-46099387D01*
X154326952Y-46099500D01*
X150123037Y-46099500D01*
X150119293Y-46099387D01*
X150057397Y-46095643D01*
X150057390Y-46095643D01*
X149996402Y-46106819D01*
X149992701Y-46107382D01*
X149931125Y-46114860D01*
X149921642Y-46118456D01*
X149900038Y-46124478D01*
X149898535Y-46124754D01*
X149890065Y-46126306D01*
X149890063Y-46126307D01*
X149833527Y-46151752D01*
X149830069Y-46153184D01*
X149772069Y-46175182D01*
X149763724Y-46180942D01*
X149744183Y-46191964D01*
X149734944Y-46196122D01*
X149734939Y-46196125D01*
X149686121Y-46234370D01*
X149683106Y-46236589D01*
X149632072Y-46271816D01*
X149632065Y-46271822D01*
X149590942Y-46318240D01*
X149588375Y-46320966D01*
X149046160Y-46863181D01*
X148984837Y-46896666D01*
X148958479Y-46899500D01*
X148626663Y-46899500D01*
X148626644Y-46899501D01*
X148527292Y-46909650D01*
X148527287Y-46909651D01*
X148503635Y-46917489D01*
X148433806Y-46919889D01*
X148373766Y-46884156D01*
X148342575Y-46821634D01*
X148350137Y-46752175D01*
X148361527Y-46730898D01*
X148432103Y-46625274D01*
X148437024Y-46618861D01*
X148612755Y-46418477D01*
X148618477Y-46412755D01*
X148818861Y-46237024D01*
X148825274Y-46232103D01*
X149046876Y-46084034D01*
X149053886Y-46079986D01*
X149292922Y-45962106D01*
X149300405Y-45959008D01*
X149552772Y-45873341D01*
X149560590Y-45871247D01*
X149821979Y-45819253D01*
X149830004Y-45818196D01*
X150097974Y-45800632D01*
X150102023Y-45800500D01*
X150126929Y-45800500D01*
X167973071Y-45800500D01*
X167997977Y-45800500D01*
X168002025Y-45800632D01*
G37*
G04 #@! TD.AperFunction*
G04 #@! TA.AperFunction,NonConductor*
G36*
X166548881Y-50740778D02*
G01*
X166559912Y-50750569D01*
X168213181Y-52403838D01*
X168246666Y-52465161D01*
X168249500Y-52491519D01*
X168249500Y-52972449D01*
X168229815Y-53039488D01*
X168177011Y-53085243D01*
X168132990Y-53096223D01*
X168080698Y-53099387D01*
X168076953Y-53099500D01*
X166974500Y-53099500D01*
X166907461Y-53079815D01*
X166861706Y-53027011D01*
X166850500Y-52975500D01*
X166850499Y-52176662D01*
X166850498Y-52176644D01*
X166840349Y-52077292D01*
X166840348Y-52077289D01*
X166787003Y-51916303D01*
X166786999Y-51916297D01*
X166786998Y-51916294D01*
X166697970Y-51771959D01*
X166697967Y-51771955D01*
X166578044Y-51652032D01*
X166578040Y-51652029D01*
X166433705Y-51563001D01*
X166433699Y-51562998D01*
X166433697Y-51562997D01*
X166341880Y-51532572D01*
X166293204Y-51502547D01*
X166052340Y-51261683D01*
X166018855Y-51200360D01*
X166023839Y-51130668D01*
X166065711Y-51074735D01*
X166067093Y-51073715D01*
X166205871Y-50972888D01*
X166332533Y-50832216D01*
X166364844Y-50776250D01*
X166415409Y-50728035D01*
X166484016Y-50714811D01*
X166548881Y-50740778D01*
G37*
G04 #@! TD.AperFunction*
G04 #@! TA.AperFunction,NonConductor*
G36*
X170018834Y-53509692D02*
G01*
X170074767Y-53551564D01*
X170099184Y-53617028D01*
X170099500Y-53625874D01*
X170099500Y-53874125D01*
X170079815Y-53941164D01*
X170027011Y-53986919D01*
X169957853Y-53996863D01*
X169894297Y-53967838D01*
X169887822Y-53961809D01*
X169878046Y-53952033D01*
X169878040Y-53952029D01*
X169733704Y-53863001D01*
X169733701Y-53863000D01*
X169733697Y-53862997D01*
X169733691Y-53862995D01*
X169732383Y-53862385D01*
X169731628Y-53861720D01*
X169727550Y-53859205D01*
X169727979Y-53858508D01*
X169679942Y-53816215D01*
X169660786Y-53749023D01*
X169680998Y-53682141D01*
X169727955Y-53641451D01*
X169727550Y-53640795D01*
X169731586Y-53638305D01*
X169732383Y-53637615D01*
X169733684Y-53637007D01*
X169733697Y-53637003D01*
X169878044Y-53547968D01*
X169887819Y-53538192D01*
X169949142Y-53504708D01*
X170018834Y-53509692D01*
G37*
G04 #@! TD.AperFunction*
G04 #@! TA.AperFunction,NonConductor*
G36*
X154790607Y-53421344D02*
G01*
X154838420Y-53472292D01*
X154851098Y-53541002D01*
X154837666Y-53585647D01*
X154816090Y-53626952D01*
X154789414Y-53720183D01*
X154768021Y-53794950D01*
X154760114Y-53822583D01*
X154760113Y-53822586D01*
X154753446Y-53897578D01*
X154727901Y-53962610D01*
X154671253Y-54003509D01*
X154601485Y-54007289D01*
X154570916Y-53995651D01*
X154464509Y-53938067D01*
X154464506Y-53938066D01*
X154464503Y-53938064D01*
X154464497Y-53938062D01*
X154464495Y-53938061D01*
X154250676Y-53864656D01*
X154193661Y-53824270D01*
X154167530Y-53759471D01*
X154180582Y-53690831D01*
X154228670Y-53640143D01*
X154258836Y-53627603D01*
X154330703Y-53608347D01*
X154529646Y-53515579D01*
X154656635Y-53426660D01*
X154722839Y-53404334D01*
X154790607Y-53421344D01*
G37*
G04 #@! TD.AperFunction*
G04 #@! TA.AperFunction,NonConductor*
G36*
X163474164Y-53450127D02*
G01*
X163491101Y-53460085D01*
X163570354Y-53515579D01*
X163677674Y-53565623D01*
X163769292Y-53608345D01*
X163769293Y-53608345D01*
X163769297Y-53608347D01*
X163841156Y-53627601D01*
X163900814Y-53663965D01*
X163931343Y-53726812D01*
X163923048Y-53796187D01*
X163878563Y-53850065D01*
X163849323Y-53864656D01*
X163635504Y-53938061D01*
X163635490Y-53938067D01*
X163533516Y-53993253D01*
X163465188Y-54007848D01*
X163399816Y-53983185D01*
X163358155Y-53927095D01*
X163350499Y-53884198D01*
X163350499Y-53836979D01*
X163344312Y-53758356D01*
X163344312Y-53758355D01*
X163300208Y-53593754D01*
X163301871Y-53523908D01*
X163341034Y-53466045D01*
X163405262Y-53438541D01*
X163474164Y-53450127D01*
G37*
G04 #@! TD.AperFunction*
G04 #@! TA.AperFunction,NonConductor*
G36*
X149990436Y-52192341D02*
G01*
X149992744Y-52192623D01*
X149996411Y-52193182D01*
X150028800Y-52199117D01*
X150057394Y-52204357D01*
X150057395Y-52204356D01*
X150057396Y-52204357D01*
X150119293Y-52200613D01*
X150123037Y-52200500D01*
X151125500Y-52200500D01*
X151192539Y-52220185D01*
X151238294Y-52272989D01*
X151249500Y-52324500D01*
X151249500Y-53023337D01*
X151249501Y-53023355D01*
X151259650Y-53122707D01*
X151259651Y-53122710D01*
X151312996Y-53283694D01*
X151313001Y-53283705D01*
X151402029Y-53428040D01*
X151402032Y-53428044D01*
X151459429Y-53485441D01*
X151492914Y-53546764D01*
X151495521Y-53565623D01*
X151495640Y-53567600D01*
X151506821Y-53628612D01*
X151507384Y-53632313D01*
X151514859Y-53693870D01*
X151514860Y-53693874D01*
X151518451Y-53703343D01*
X151524474Y-53724946D01*
X151526304Y-53734930D01*
X151551759Y-53791490D01*
X151553189Y-53794941D01*
X151575182Y-53852930D01*
X151575183Y-53852931D01*
X151580936Y-53861266D01*
X151591961Y-53880813D01*
X151596120Y-53890055D01*
X151596122Y-53890057D01*
X151633735Y-53938067D01*
X151634371Y-53938878D01*
X151636591Y-53941896D01*
X151671812Y-53992924D01*
X151671816Y-53992928D01*
X151671817Y-53992929D01*
X151718250Y-54034064D01*
X151720941Y-54036598D01*
X152184843Y-54500500D01*
X152497218Y-54812875D01*
X152530703Y-54874198D01*
X152529743Y-54930996D01*
X152521062Y-54965277D01*
X152485523Y-55025433D01*
X152423102Y-55056825D01*
X152353619Y-55049487D01*
X152313175Y-55022518D01*
X149886818Y-52596161D01*
X149853333Y-52534838D01*
X149850499Y-52508480D01*
X149850499Y-52315316D01*
X149870184Y-52248277D01*
X149922988Y-52202522D01*
X149989515Y-52192229D01*
X149990436Y-52192341D01*
G37*
G04 #@! TD.AperFunction*
G04 #@! TA.AperFunction,NonConductor*
G36*
X148205703Y-53532161D02*
G01*
X148212181Y-53538193D01*
X148221955Y-53547967D01*
X148221959Y-53547970D01*
X148366294Y-53636998D01*
X148366297Y-53636999D01*
X148366303Y-53637003D01*
X148527292Y-53690349D01*
X148626655Y-53700500D01*
X148958480Y-53700499D01*
X149025519Y-53720183D01*
X149046161Y-53736818D01*
X149999440Y-54690097D01*
X150032925Y-54751420D01*
X150027941Y-54821112D01*
X149986069Y-54877045D01*
X149922567Y-54901306D01*
X149773312Y-54914364D01*
X149773302Y-54914366D01*
X149553511Y-54973258D01*
X149553502Y-54973261D01*
X149347267Y-55069431D01*
X149347265Y-55069432D01*
X149160858Y-55199954D01*
X148999954Y-55360858D01*
X148869432Y-55547265D01*
X148869431Y-55547267D01*
X148773261Y-55753502D01*
X148773258Y-55753511D01*
X148714366Y-55973302D01*
X148714364Y-55973313D01*
X148694532Y-56199998D01*
X148694532Y-56200001D01*
X148714364Y-56426686D01*
X148714366Y-56426697D01*
X148773258Y-56646488D01*
X148773261Y-56646497D01*
X148869431Y-56852732D01*
X148869432Y-56852734D01*
X148999954Y-57039141D01*
X149160858Y-57200045D01*
X149160861Y-57200047D01*
X149347266Y-57330568D01*
X149553504Y-57426739D01*
X149773308Y-57485635D01*
X149943216Y-57500500D01*
X150056784Y-57500500D01*
X150226692Y-57485635D01*
X150446496Y-57426739D01*
X150652734Y-57330568D01*
X150839139Y-57200047D01*
X151000047Y-57039139D01*
X151130568Y-56852734D01*
X151226739Y-56646496D01*
X151285635Y-56426692D01*
X151298693Y-56277431D01*
X151324145Y-56212364D01*
X151380736Y-56171385D01*
X151450498Y-56167507D01*
X151509902Y-56200559D01*
X152588399Y-57279056D01*
X152590935Y-57281750D01*
X152632071Y-57328183D01*
X152683106Y-57363410D01*
X152686122Y-57365630D01*
X152712490Y-57386287D01*
X152734943Y-57403878D01*
X152741845Y-57406984D01*
X152744182Y-57408036D01*
X152763731Y-57419062D01*
X152772070Y-57424818D01*
X152830065Y-57446812D01*
X152833474Y-57448223D01*
X152880787Y-57469517D01*
X152890064Y-57473693D01*
X152890065Y-57473693D01*
X152890069Y-57473695D01*
X152900023Y-57475519D01*
X152900034Y-57475521D01*
X152921656Y-57481548D01*
X152921667Y-57481552D01*
X152931128Y-57485140D01*
X152976251Y-57490618D01*
X152992674Y-57492613D01*
X152996371Y-57493175D01*
X153057394Y-57504358D01*
X153112752Y-57501009D01*
X153119303Y-57500613D01*
X153123048Y-57500500D01*
X154726952Y-57500500D01*
X154730697Y-57500613D01*
X154738042Y-57501057D01*
X154792606Y-57504358D01*
X154830314Y-57497447D01*
X154853621Y-57493177D01*
X154857325Y-57492613D01*
X154875170Y-57490446D01*
X154918872Y-57485140D01*
X154928335Y-57481550D01*
X154949961Y-57475522D01*
X154950893Y-57475351D01*
X154959932Y-57473695D01*
X155016512Y-57448229D01*
X155019948Y-57446807D01*
X155077930Y-57424818D01*
X155086266Y-57419062D01*
X155105821Y-57408034D01*
X155115057Y-57403878D01*
X155163896Y-57365613D01*
X155166876Y-57363421D01*
X155217929Y-57328183D01*
X155259065Y-57281748D01*
X155261599Y-57279056D01*
X156503837Y-56036818D01*
X156565161Y-56003333D01*
X156591519Y-56000499D01*
X158408033Y-56000499D01*
X158408036Y-56000499D01*
X158527418Y-55989886D01*
X158723049Y-55933909D01*
X158903407Y-55839698D01*
X158939487Y-55810277D01*
X159003881Y-55783168D01*
X159072711Y-55795176D01*
X159095884Y-55810013D01*
X159142755Y-55847968D01*
X159156851Y-55859383D01*
X159325512Y-55945320D01*
X159508355Y-55994312D01*
X159539804Y-55996787D01*
X159586976Y-56000500D01*
X159586978Y-56000499D01*
X159586979Y-56000500D01*
X161508480Y-56000499D01*
X161575519Y-56020184D01*
X161596161Y-56036818D01*
X162838399Y-57279056D01*
X162840935Y-57281750D01*
X162882069Y-57328181D01*
X162882073Y-57328185D01*
X162909021Y-57346786D01*
X162933117Y-57363417D01*
X162936107Y-57365617D01*
X162984943Y-57403878D01*
X162994171Y-57408031D01*
X162994180Y-57408035D01*
X163013726Y-57419058D01*
X163022070Y-57424818D01*
X163080044Y-57446804D01*
X163080052Y-57446807D01*
X163083514Y-57448241D01*
X163140068Y-57473694D01*
X163150030Y-57475519D01*
X163171651Y-57481546D01*
X163171667Y-57481552D01*
X163181128Y-57485140D01*
X163197871Y-57487173D01*
X163242689Y-57492615D01*
X163246386Y-57493177D01*
X163307394Y-57504357D01*
X163307395Y-57504356D01*
X163307396Y-57504357D01*
X163369293Y-57500613D01*
X163373037Y-57500500D01*
X165076952Y-57500500D01*
X165080697Y-57500613D01*
X165088042Y-57501057D01*
X165142606Y-57504358D01*
X165180314Y-57497447D01*
X165203621Y-57493177D01*
X165207325Y-57492613D01*
X165225170Y-57490446D01*
X165268872Y-57485140D01*
X165278335Y-57481550D01*
X165299961Y-57475522D01*
X165300893Y-57475351D01*
X165309932Y-57473695D01*
X165366512Y-57448229D01*
X165369948Y-57446807D01*
X165427930Y-57424818D01*
X165436266Y-57419062D01*
X165455821Y-57408034D01*
X165465057Y-57403878D01*
X165513896Y-57365613D01*
X165516876Y-57363421D01*
X165567929Y-57328183D01*
X165609065Y-57281748D01*
X165611599Y-57279056D01*
X166379056Y-56511599D01*
X166381748Y-56509065D01*
X166428183Y-56467929D01*
X166463417Y-56416883D01*
X166465620Y-56413887D01*
X166503878Y-56365056D01*
X166508037Y-56355813D01*
X166519061Y-56336268D01*
X166524818Y-56327930D01*
X166546810Y-56269939D01*
X166548232Y-56266503D01*
X166573695Y-56209931D01*
X166575522Y-56199959D01*
X166581546Y-56178347D01*
X166585140Y-56168872D01*
X166592613Y-56107324D01*
X166593177Y-56103619D01*
X166598775Y-56073071D01*
X166604358Y-56042606D01*
X166600613Y-55980696D01*
X166600500Y-55976951D01*
X166600500Y-55876874D01*
X166620185Y-55809835D01*
X166636819Y-55789192D01*
X166642843Y-55783168D01*
X166697968Y-55728044D01*
X166787003Y-55583697D01*
X166840349Y-55422708D01*
X166850500Y-55323345D01*
X166850499Y-54624499D01*
X166870183Y-54557461D01*
X166922987Y-54511706D01*
X166974499Y-54500500D01*
X167758481Y-54500500D01*
X167825520Y-54520185D01*
X167846162Y-54536819D01*
X168213181Y-54903838D01*
X168246666Y-54965161D01*
X168249500Y-54991519D01*
X168249500Y-55323336D01*
X168249501Y-55323355D01*
X168259650Y-55422707D01*
X168259651Y-55422710D01*
X168312996Y-55583694D01*
X168313001Y-55583705D01*
X168402029Y-55728040D01*
X168402032Y-55728044D01*
X168521955Y-55847967D01*
X168521959Y-55847970D01*
X168666294Y-55936998D01*
X168666297Y-55936999D01*
X168666303Y-55937003D01*
X168827292Y-55990349D01*
X168926655Y-56000500D01*
X169473344Y-56000499D01*
X169473352Y-56000498D01*
X169473355Y-56000498D01*
X169533912Y-55994312D01*
X169572708Y-55990349D01*
X169733697Y-55937003D01*
X169878044Y-55847968D01*
X169887818Y-55838193D01*
X169949138Y-55804708D01*
X170018830Y-55809690D01*
X170074765Y-55851559D01*
X170099184Y-55917023D01*
X170099500Y-55925873D01*
X170099500Y-56097977D01*
X170099367Y-56102024D01*
X170092909Y-56200559D01*
X170081804Y-56369980D01*
X170080744Y-56378029D01*
X170028754Y-56639401D01*
X170026653Y-56647244D01*
X169940993Y-56899588D01*
X169937887Y-56907089D01*
X169820019Y-57146101D01*
X169815960Y-57153131D01*
X169667905Y-57374712D01*
X169662963Y-57381153D01*
X169487253Y-57581512D01*
X169481512Y-57587253D01*
X169281153Y-57762963D01*
X169274712Y-57767905D01*
X169053131Y-57915960D01*
X169046101Y-57920019D01*
X168807089Y-58037887D01*
X168799588Y-58040993D01*
X168547244Y-58126653D01*
X168539401Y-58128754D01*
X168278029Y-58180744D01*
X168269980Y-58181804D01*
X168199684Y-58186411D01*
X168002024Y-58199367D01*
X167997977Y-58199500D01*
X150102023Y-58199500D01*
X150097975Y-58199367D01*
X149864991Y-58184096D01*
X149830019Y-58181804D01*
X149821970Y-58180744D01*
X149560598Y-58128754D01*
X149552758Y-58126653D01*
X149392705Y-58072323D01*
X149300411Y-58040993D01*
X149292910Y-58037887D01*
X149053898Y-57920019D01*
X149046868Y-57915960D01*
X148825287Y-57767905D01*
X148818852Y-57762967D01*
X148618485Y-57587251D01*
X148612746Y-57581512D01*
X148545083Y-57504357D01*
X148437030Y-57381145D01*
X148432098Y-57374717D01*
X148284038Y-57153129D01*
X148279983Y-57146107D01*
X148162109Y-56907082D01*
X148159006Y-56899588D01*
X148143101Y-56852734D01*
X148073342Y-56647231D01*
X148071245Y-56639401D01*
X148045827Y-56511616D01*
X148019254Y-56378022D01*
X148018196Y-56369993D01*
X148000632Y-56102025D01*
X148000500Y-56097977D01*
X148000500Y-53625874D01*
X148020185Y-53558835D01*
X148072989Y-53513080D01*
X148142147Y-53503136D01*
X148205703Y-53532161D01*
G37*
G04 #@! TD.AperFunction*
M02*
