<?xml version="1.0" encoding="UTF-8" standalone="no"?>
<!DOCTYPE svg PUBLIC "-//W3C//DTD SVG 1.1//EN" "http://www.w3.org/Graphics/SVG/1.1/DTD/svg11.dtd">
<svg width="100%" height="100%" viewBox="0 0 1040 650" version="1.1" xmlns="http://www.w3.org/2000/svg" xmlns:xlink="http://www.w3.org/1999/xlink" xml:space="preserve" xmlns:serif="http://www.serif.com/" style="fill-rule:evenodd;clip-rule:evenodd;stroke-linecap:round;stroke-linejoin:round;stroke-miterlimit:1.5;">
    <g id="Nav-Rwitch-PCB" serif:id="Nav Rwitch PCB" transform="matrix(1,0,0,1,0,-210.645)">
        <g id="Board" transform="matrix(1.08087,0,0,0.543996,-41.9987,359.215)">
            <path d="M641.501,240.653C641.501,211.139 629.441,187.177 614.587,187.177L424.735,187.177C409.881,187.177 397.821,211.139 397.821,240.653L397.821,407.267C397.821,436.781 409.881,460.743 424.735,460.743L614.587,460.743C629.441,460.743 641.501,436.781 641.501,407.267L641.501,240.653Z" style="fill:rgb(235,235,235);stroke:black;stroke-width:0.49px;"/>
        </g>
        <g id="M2-Screw" serif:id="M2 Screw" transform="matrix(0.560441,0,0,0.560441,475.33,218.521)">
            <circle cx="269.868" cy="476.983" r="36.88" style="fill:rgb(26,194,230);fill-opacity:0.49;"/>
        </g>
        <g id="M2-Hole" serif:id="M2 Hole" transform="matrix(0.336265,0,0,0.336265,535.828,325.449)">
            <circle cx="269.868" cy="476.983" r="36.88"/>
        </g>
        <g id="M2-Screw1" serif:id="M2 Screw" transform="matrix(0.560441,0,0,0.560441,261.55,317.733)">
            <circle cx="269.868" cy="476.983" r="36.88" style="fill:rgb(26,194,230);fill-opacity:0.49;"/>
        </g>
        <g id="M2-Hole1" serif:id="M2 Hole" transform="matrix(0.336265,0,0,0.336265,322.048,424.662)">
            <circle cx="269.868" cy="476.983" r="36.88"/>
        </g>
        <g id="Nav-Switch" serif:id="Nav Switch" transform="matrix(1.05374,0,0,1.3228,-30.1932,-168.299)">
            <rect x="462.99" y="485.136" width="117.691" height="93.752" style="fill:rgb(128,128,128);stroke:black;stroke-width:0.35px;"/>
        </g>
    </g>
    <g id="Switch-3" serif:id="Switch 3" transform="matrix(0.445857,0,0,0.566804,605.7,39.6587)">
        <rect x="126.291" y="357.208" width="370.868" height="291.731" style="fill:none;stroke:black;stroke-width:1.63px;"/>
    </g>
    <g id="Switch-2" serif:id="Switch 2" transform="matrix(0.445857,0,0,0.566804,380.7,39.6587)">
        <rect x="126.291" y="357.208" width="370.868" height="291.731" style="fill:none;stroke:black;stroke-width:1.63px;"/>
    </g>
    <g id="Switch-1" serif:id="Switch 1" transform="matrix(0.445857,0,0,0.566804,155.7,39.6587)">
        <rect x="126.291" y="357.208" width="370.868" height="291.731" style="fill:none;stroke:black;stroke-width:1.63px;"/>
    </g>
</svg>
