%TF.GenerationSoftware,KiCad,Pcbnew,7.0.7*%
%TF.CreationDate,2023-09-18T19:37:45-04:00*%
%TF.ProjectId,Nav Switch Mount,4e617620-5377-4697-9463-68204d6f756e,rev?*%
%TF.SameCoordinates,Original*%
%TF.FileFunction,Drillmap*%
%TF.FilePolarity,Positive*%
%FSLAX45Y45*%
G04 Gerber Fmt 4.5, Leading zero omitted, Abs format (unit mm)*
G04 Created by KiCad (PCBNEW 7.0.7) date 2023-09-18 19:37:45*
%MOMM*%
%LPD*%
G01*
G04 APERTURE LIST*
%ADD10C,0.100000*%
%ADD11C,0.200000*%
%ADD12C,0.040000*%
%ADD13C,0.120000*%
G04 APERTURE END LIST*
D10*
X15010000Y-4570000D02*
X16800000Y-4570000D01*
X17020000Y-4790000D02*
X17020000Y-5610000D01*
X16800000Y-5830000D02*
G75*
G03*
X17020000Y-5610000I0J220000D01*
G01*
X14790000Y-5610000D02*
G75*
G03*
X15010000Y-5830000I220000J0D01*
G01*
X14790000Y-5610000D02*
X14790000Y-4790000D01*
X17020000Y-4790000D02*
G75*
G03*
X16800000Y-4570000I-220000J0D01*
G01*
X16800000Y-5830000D02*
X15010000Y-5830000D01*
X15010000Y-4570000D02*
G75*
G03*
X14790000Y-4790000I0J-220000D01*
G01*
D11*
D12*
X15370000Y-5010000D02*
X15410000Y-5050000D01*
X15410000Y-5010000D02*
X15370000Y-5050000D01*
X16540000Y-5010000D02*
X16580000Y-5050000D01*
X16580000Y-5010000D02*
X16540000Y-5050000D01*
D10*
X15440000Y-5242500D02*
G75*
G03*
X15440000Y-5242500I-50000J0D01*
G01*
X16470000Y-5242500D02*
G75*
G03*
X16470000Y-5242500I-50000J0D01*
G01*
D13*
X15390000Y-4812500D02*
X15390000Y-4932500D01*
X15330000Y-4872500D02*
X15450000Y-4872500D01*
X15390000Y-5462500D02*
X15390000Y-5582500D01*
X15330000Y-5522500D02*
X15450000Y-5522500D01*
X16420000Y-4812500D02*
X16420000Y-4932500D01*
X16360000Y-4872500D02*
X16480000Y-4872500D01*
X16420000Y-5462500D02*
X16420000Y-5582500D01*
X16360000Y-5522500D02*
X16480000Y-5522500D01*
D11*
X15045777Y-6146484D02*
X15045777Y-5946484D01*
X15045777Y-5946484D02*
X15093396Y-5946484D01*
X15093396Y-5946484D02*
X15121967Y-5956008D01*
X15121967Y-5956008D02*
X15141015Y-5975055D01*
X15141015Y-5975055D02*
X15150539Y-5994103D01*
X15150539Y-5994103D02*
X15160062Y-6032198D01*
X15160062Y-6032198D02*
X15160062Y-6060769D01*
X15160062Y-6060769D02*
X15150539Y-6098865D01*
X15150539Y-6098865D02*
X15141015Y-6117912D01*
X15141015Y-6117912D02*
X15121967Y-6136960D01*
X15121967Y-6136960D02*
X15093396Y-6146484D01*
X15093396Y-6146484D02*
X15045777Y-6146484D01*
X15245777Y-6146484D02*
X15245777Y-6013150D01*
X15245777Y-6051246D02*
X15255301Y-6032198D01*
X15255301Y-6032198D02*
X15264824Y-6022674D01*
X15264824Y-6022674D02*
X15283872Y-6013150D01*
X15283872Y-6013150D02*
X15302920Y-6013150D01*
X15369586Y-6146484D02*
X15369586Y-6013150D01*
X15369586Y-5946484D02*
X15360062Y-5956008D01*
X15360062Y-5956008D02*
X15369586Y-5965531D01*
X15369586Y-5965531D02*
X15379110Y-5956008D01*
X15379110Y-5956008D02*
X15369586Y-5946484D01*
X15369586Y-5946484D02*
X15369586Y-5965531D01*
X15493396Y-6146484D02*
X15474348Y-6136960D01*
X15474348Y-6136960D02*
X15464824Y-6117912D01*
X15464824Y-6117912D02*
X15464824Y-5946484D01*
X15598158Y-6146484D02*
X15579110Y-6136960D01*
X15579110Y-6136960D02*
X15569586Y-6117912D01*
X15569586Y-6117912D02*
X15569586Y-5946484D01*
X15826729Y-6146484D02*
X15826729Y-5946484D01*
X15826729Y-5946484D02*
X15893396Y-6089341D01*
X15893396Y-6089341D02*
X15960062Y-5946484D01*
X15960062Y-5946484D02*
X15960062Y-6146484D01*
X16141015Y-6146484D02*
X16141015Y-6041722D01*
X16141015Y-6041722D02*
X16131491Y-6022674D01*
X16131491Y-6022674D02*
X16112443Y-6013150D01*
X16112443Y-6013150D02*
X16074348Y-6013150D01*
X16074348Y-6013150D02*
X16055301Y-6022674D01*
X16141015Y-6136960D02*
X16121967Y-6146484D01*
X16121967Y-6146484D02*
X16074348Y-6146484D01*
X16074348Y-6146484D02*
X16055301Y-6136960D01*
X16055301Y-6136960D02*
X16045777Y-6117912D01*
X16045777Y-6117912D02*
X16045777Y-6098865D01*
X16045777Y-6098865D02*
X16055301Y-6079817D01*
X16055301Y-6079817D02*
X16074348Y-6070293D01*
X16074348Y-6070293D02*
X16121967Y-6070293D01*
X16121967Y-6070293D02*
X16141015Y-6060769D01*
X16236253Y-6013150D02*
X16236253Y-6213150D01*
X16236253Y-6022674D02*
X16255301Y-6013150D01*
X16255301Y-6013150D02*
X16293396Y-6013150D01*
X16293396Y-6013150D02*
X16312443Y-6022674D01*
X16312443Y-6022674D02*
X16321967Y-6032198D01*
X16321967Y-6032198D02*
X16331491Y-6051246D01*
X16331491Y-6051246D02*
X16331491Y-6108388D01*
X16331491Y-6108388D02*
X16321967Y-6127436D01*
X16321967Y-6127436D02*
X16312443Y-6136960D01*
X16312443Y-6136960D02*
X16293396Y-6146484D01*
X16293396Y-6146484D02*
X16255301Y-6146484D01*
X16255301Y-6146484D02*
X16236253Y-6136960D01*
X16417205Y-6127436D02*
X16426729Y-6136960D01*
X16426729Y-6136960D02*
X16417205Y-6146484D01*
X16417205Y-6146484D02*
X16407682Y-6136960D01*
X16407682Y-6136960D02*
X16417205Y-6127436D01*
X16417205Y-6127436D02*
X16417205Y-6146484D01*
X16417205Y-6022674D02*
X16426729Y-6032198D01*
X16426729Y-6032198D02*
X16417205Y-6041722D01*
X16417205Y-6041722D02*
X16407682Y-6032198D01*
X16407682Y-6032198D02*
X16417205Y-6022674D01*
X16417205Y-6022674D02*
X16417205Y-6041722D01*
D12*
X14745000Y-6455000D02*
X14785000Y-6495000D01*
X14785000Y-6455000D02*
X14745000Y-6495000D01*
D11*
X15083872Y-6366484D02*
X15102920Y-6366484D01*
X15102920Y-6366484D02*
X15121967Y-6376008D01*
X15121967Y-6376008D02*
X15131491Y-6385531D01*
X15131491Y-6385531D02*
X15141015Y-6404579D01*
X15141015Y-6404579D02*
X15150539Y-6442674D01*
X15150539Y-6442674D02*
X15150539Y-6490293D01*
X15150539Y-6490293D02*
X15141015Y-6528388D01*
X15141015Y-6528388D02*
X15131491Y-6547436D01*
X15131491Y-6547436D02*
X15121967Y-6556960D01*
X15121967Y-6556960D02*
X15102920Y-6566484D01*
X15102920Y-6566484D02*
X15083872Y-6566484D01*
X15083872Y-6566484D02*
X15064824Y-6556960D01*
X15064824Y-6556960D02*
X15055301Y-6547436D01*
X15055301Y-6547436D02*
X15045777Y-6528388D01*
X15045777Y-6528388D02*
X15036253Y-6490293D01*
X15036253Y-6490293D02*
X15036253Y-6442674D01*
X15036253Y-6442674D02*
X15045777Y-6404579D01*
X15045777Y-6404579D02*
X15055301Y-6385531D01*
X15055301Y-6385531D02*
X15064824Y-6376008D01*
X15064824Y-6376008D02*
X15083872Y-6366484D01*
X15236253Y-6547436D02*
X15245777Y-6556960D01*
X15245777Y-6556960D02*
X15236253Y-6566484D01*
X15236253Y-6566484D02*
X15226729Y-6556960D01*
X15226729Y-6556960D02*
X15236253Y-6547436D01*
X15236253Y-6547436D02*
X15236253Y-6566484D01*
X15417205Y-6433150D02*
X15417205Y-6566484D01*
X15369586Y-6356960D02*
X15321967Y-6499817D01*
X15321967Y-6499817D02*
X15445777Y-6499817D01*
X15560062Y-6366484D02*
X15579110Y-6366484D01*
X15579110Y-6366484D02*
X15598158Y-6376008D01*
X15598158Y-6376008D02*
X15607682Y-6385531D01*
X15607682Y-6385531D02*
X15617205Y-6404579D01*
X15617205Y-6404579D02*
X15626729Y-6442674D01*
X15626729Y-6442674D02*
X15626729Y-6490293D01*
X15626729Y-6490293D02*
X15617205Y-6528388D01*
X15617205Y-6528388D02*
X15607682Y-6547436D01*
X15607682Y-6547436D02*
X15598158Y-6556960D01*
X15598158Y-6556960D02*
X15579110Y-6566484D01*
X15579110Y-6566484D02*
X15560062Y-6566484D01*
X15560062Y-6566484D02*
X15541015Y-6556960D01*
X15541015Y-6556960D02*
X15531491Y-6547436D01*
X15531491Y-6547436D02*
X15521967Y-6528388D01*
X15521967Y-6528388D02*
X15512443Y-6490293D01*
X15512443Y-6490293D02*
X15512443Y-6442674D01*
X15512443Y-6442674D02*
X15521967Y-6404579D01*
X15521967Y-6404579D02*
X15531491Y-6385531D01*
X15531491Y-6385531D02*
X15541015Y-6376008D01*
X15541015Y-6376008D02*
X15560062Y-6366484D01*
X15750539Y-6366484D02*
X15769586Y-6366484D01*
X15769586Y-6366484D02*
X15788634Y-6376008D01*
X15788634Y-6376008D02*
X15798158Y-6385531D01*
X15798158Y-6385531D02*
X15807682Y-6404579D01*
X15807682Y-6404579D02*
X15817205Y-6442674D01*
X15817205Y-6442674D02*
X15817205Y-6490293D01*
X15817205Y-6490293D02*
X15807682Y-6528388D01*
X15807682Y-6528388D02*
X15798158Y-6547436D01*
X15798158Y-6547436D02*
X15788634Y-6556960D01*
X15788634Y-6556960D02*
X15769586Y-6566484D01*
X15769586Y-6566484D02*
X15750539Y-6566484D01*
X15750539Y-6566484D02*
X15731491Y-6556960D01*
X15731491Y-6556960D02*
X15721967Y-6547436D01*
X15721967Y-6547436D02*
X15712443Y-6528388D01*
X15712443Y-6528388D02*
X15702920Y-6490293D01*
X15702920Y-6490293D02*
X15702920Y-6442674D01*
X15702920Y-6442674D02*
X15712443Y-6404579D01*
X15712443Y-6404579D02*
X15721967Y-6385531D01*
X15721967Y-6385531D02*
X15731491Y-6376008D01*
X15731491Y-6376008D02*
X15750539Y-6366484D01*
X15902920Y-6566484D02*
X15902920Y-6433150D01*
X15902920Y-6452198D02*
X15912443Y-6442674D01*
X15912443Y-6442674D02*
X15931491Y-6433150D01*
X15931491Y-6433150D02*
X15960063Y-6433150D01*
X15960063Y-6433150D02*
X15979110Y-6442674D01*
X15979110Y-6442674D02*
X15988634Y-6461722D01*
X15988634Y-6461722D02*
X15988634Y-6566484D01*
X15988634Y-6461722D02*
X15998158Y-6442674D01*
X15998158Y-6442674D02*
X16017205Y-6433150D01*
X16017205Y-6433150D02*
X16045777Y-6433150D01*
X16045777Y-6433150D02*
X16064824Y-6442674D01*
X16064824Y-6442674D02*
X16074348Y-6461722D01*
X16074348Y-6461722D02*
X16074348Y-6566484D01*
X16169586Y-6566484D02*
X16169586Y-6433150D01*
X16169586Y-6452198D02*
X16179110Y-6442674D01*
X16179110Y-6442674D02*
X16198158Y-6433150D01*
X16198158Y-6433150D02*
X16226729Y-6433150D01*
X16226729Y-6433150D02*
X16245777Y-6442674D01*
X16245777Y-6442674D02*
X16255301Y-6461722D01*
X16255301Y-6461722D02*
X16255301Y-6566484D01*
X16255301Y-6461722D02*
X16264824Y-6442674D01*
X16264824Y-6442674D02*
X16283872Y-6433150D01*
X16283872Y-6433150D02*
X16312443Y-6433150D01*
X16312443Y-6433150D02*
X16331491Y-6442674D01*
X16331491Y-6442674D02*
X16341015Y-6461722D01*
X16341015Y-6461722D02*
X16341015Y-6566484D01*
X16731491Y-6356960D02*
X16560063Y-6614103D01*
X16988634Y-6366484D02*
X17007682Y-6366484D01*
X17007682Y-6366484D02*
X17026729Y-6376008D01*
X17026729Y-6376008D02*
X17036253Y-6385531D01*
X17036253Y-6385531D02*
X17045777Y-6404579D01*
X17045777Y-6404579D02*
X17055301Y-6442674D01*
X17055301Y-6442674D02*
X17055301Y-6490293D01*
X17055301Y-6490293D02*
X17045777Y-6528388D01*
X17045777Y-6528388D02*
X17036253Y-6547436D01*
X17036253Y-6547436D02*
X17026729Y-6556960D01*
X17026729Y-6556960D02*
X17007682Y-6566484D01*
X17007682Y-6566484D02*
X16988634Y-6566484D01*
X16988634Y-6566484D02*
X16969587Y-6556960D01*
X16969587Y-6556960D02*
X16960063Y-6547436D01*
X16960063Y-6547436D02*
X16950539Y-6528388D01*
X16950539Y-6528388D02*
X16941015Y-6490293D01*
X16941015Y-6490293D02*
X16941015Y-6442674D01*
X16941015Y-6442674D02*
X16950539Y-6404579D01*
X16950539Y-6404579D02*
X16960063Y-6385531D01*
X16960063Y-6385531D02*
X16969587Y-6376008D01*
X16969587Y-6376008D02*
X16988634Y-6366484D01*
X17141015Y-6547436D02*
X17150539Y-6556960D01*
X17150539Y-6556960D02*
X17141015Y-6566484D01*
X17141015Y-6566484D02*
X17131491Y-6556960D01*
X17131491Y-6556960D02*
X17141015Y-6547436D01*
X17141015Y-6547436D02*
X17141015Y-6566484D01*
X17274348Y-6366484D02*
X17293396Y-6366484D01*
X17293396Y-6366484D02*
X17312444Y-6376008D01*
X17312444Y-6376008D02*
X17321968Y-6385531D01*
X17321968Y-6385531D02*
X17331491Y-6404579D01*
X17331491Y-6404579D02*
X17341015Y-6442674D01*
X17341015Y-6442674D02*
X17341015Y-6490293D01*
X17341015Y-6490293D02*
X17331491Y-6528388D01*
X17331491Y-6528388D02*
X17321968Y-6547436D01*
X17321968Y-6547436D02*
X17312444Y-6556960D01*
X17312444Y-6556960D02*
X17293396Y-6566484D01*
X17293396Y-6566484D02*
X17274348Y-6566484D01*
X17274348Y-6566484D02*
X17255301Y-6556960D01*
X17255301Y-6556960D02*
X17245777Y-6547436D01*
X17245777Y-6547436D02*
X17236253Y-6528388D01*
X17236253Y-6528388D02*
X17226729Y-6490293D01*
X17226729Y-6490293D02*
X17226729Y-6442674D01*
X17226729Y-6442674D02*
X17236253Y-6404579D01*
X17236253Y-6404579D02*
X17245777Y-6385531D01*
X17245777Y-6385531D02*
X17255301Y-6376008D01*
X17255301Y-6376008D02*
X17274348Y-6366484D01*
X17531491Y-6566484D02*
X17417206Y-6566484D01*
X17474348Y-6566484D02*
X17474348Y-6366484D01*
X17474348Y-6366484D02*
X17455301Y-6395055D01*
X17455301Y-6395055D02*
X17436253Y-6414103D01*
X17436253Y-6414103D02*
X17417206Y-6423627D01*
X17712444Y-6366484D02*
X17617206Y-6366484D01*
X17617206Y-6366484D02*
X17607682Y-6461722D01*
X17607682Y-6461722D02*
X17617206Y-6452198D01*
X17617206Y-6452198D02*
X17636253Y-6442674D01*
X17636253Y-6442674D02*
X17683872Y-6442674D01*
X17683872Y-6442674D02*
X17702920Y-6452198D01*
X17702920Y-6452198D02*
X17712444Y-6461722D01*
X17712444Y-6461722D02*
X17721968Y-6480769D01*
X17721968Y-6480769D02*
X17721968Y-6528388D01*
X17721968Y-6528388D02*
X17712444Y-6547436D01*
X17712444Y-6547436D02*
X17702920Y-6556960D01*
X17702920Y-6556960D02*
X17683872Y-6566484D01*
X17683872Y-6566484D02*
X17636253Y-6566484D01*
X17636253Y-6566484D02*
X17617206Y-6556960D01*
X17617206Y-6556960D02*
X17607682Y-6547436D01*
X17788634Y-6366484D02*
X17921968Y-6366484D01*
X17921968Y-6366484D02*
X17836253Y-6566484D01*
X17988634Y-6366484D02*
X17988634Y-6404579D01*
X18064825Y-6366484D02*
X18064825Y-6404579D01*
X18360063Y-6642674D02*
X18350539Y-6633150D01*
X18350539Y-6633150D02*
X18331491Y-6604579D01*
X18331491Y-6604579D02*
X18321968Y-6585531D01*
X18321968Y-6585531D02*
X18312444Y-6556960D01*
X18312444Y-6556960D02*
X18302920Y-6509341D01*
X18302920Y-6509341D02*
X18302920Y-6471246D01*
X18302920Y-6471246D02*
X18312444Y-6423627D01*
X18312444Y-6423627D02*
X18321968Y-6395055D01*
X18321968Y-6395055D02*
X18331491Y-6376008D01*
X18331491Y-6376008D02*
X18350539Y-6347436D01*
X18350539Y-6347436D02*
X18360063Y-6337912D01*
X18426730Y-6385531D02*
X18436253Y-6376008D01*
X18436253Y-6376008D02*
X18455301Y-6366484D01*
X18455301Y-6366484D02*
X18502920Y-6366484D01*
X18502920Y-6366484D02*
X18521968Y-6376008D01*
X18521968Y-6376008D02*
X18531491Y-6385531D01*
X18531491Y-6385531D02*
X18541015Y-6404579D01*
X18541015Y-6404579D02*
X18541015Y-6423627D01*
X18541015Y-6423627D02*
X18531491Y-6452198D01*
X18531491Y-6452198D02*
X18417206Y-6566484D01*
X18417206Y-6566484D02*
X18541015Y-6566484D01*
X18779111Y-6566484D02*
X18779111Y-6366484D01*
X18864825Y-6566484D02*
X18864825Y-6461722D01*
X18864825Y-6461722D02*
X18855301Y-6442674D01*
X18855301Y-6442674D02*
X18836253Y-6433150D01*
X18836253Y-6433150D02*
X18807682Y-6433150D01*
X18807682Y-6433150D02*
X18788634Y-6442674D01*
X18788634Y-6442674D02*
X18779111Y-6452198D01*
X18988634Y-6566484D02*
X18969587Y-6556960D01*
X18969587Y-6556960D02*
X18960063Y-6547436D01*
X18960063Y-6547436D02*
X18950539Y-6528388D01*
X18950539Y-6528388D02*
X18950539Y-6471246D01*
X18950539Y-6471246D02*
X18960063Y-6452198D01*
X18960063Y-6452198D02*
X18969587Y-6442674D01*
X18969587Y-6442674D02*
X18988634Y-6433150D01*
X18988634Y-6433150D02*
X19017206Y-6433150D01*
X19017206Y-6433150D02*
X19036253Y-6442674D01*
X19036253Y-6442674D02*
X19045777Y-6452198D01*
X19045777Y-6452198D02*
X19055301Y-6471246D01*
X19055301Y-6471246D02*
X19055301Y-6528388D01*
X19055301Y-6528388D02*
X19045777Y-6547436D01*
X19045777Y-6547436D02*
X19036253Y-6556960D01*
X19036253Y-6556960D02*
X19017206Y-6566484D01*
X19017206Y-6566484D02*
X18988634Y-6566484D01*
X19169587Y-6566484D02*
X19150539Y-6556960D01*
X19150539Y-6556960D02*
X19141015Y-6537912D01*
X19141015Y-6537912D02*
X19141015Y-6366484D01*
X19321968Y-6556960D02*
X19302920Y-6566484D01*
X19302920Y-6566484D02*
X19264825Y-6566484D01*
X19264825Y-6566484D02*
X19245777Y-6556960D01*
X19245777Y-6556960D02*
X19236253Y-6537912D01*
X19236253Y-6537912D02*
X19236253Y-6461722D01*
X19236253Y-6461722D02*
X19245777Y-6442674D01*
X19245777Y-6442674D02*
X19264825Y-6433150D01*
X19264825Y-6433150D02*
X19302920Y-6433150D01*
X19302920Y-6433150D02*
X19321968Y-6442674D01*
X19321968Y-6442674D02*
X19331492Y-6461722D01*
X19331492Y-6461722D02*
X19331492Y-6480769D01*
X19331492Y-6480769D02*
X19236253Y-6499817D01*
X19407682Y-6556960D02*
X19426730Y-6566484D01*
X19426730Y-6566484D02*
X19464825Y-6566484D01*
X19464825Y-6566484D02*
X19483873Y-6556960D01*
X19483873Y-6556960D02*
X19493396Y-6537912D01*
X19493396Y-6537912D02*
X19493396Y-6528388D01*
X19493396Y-6528388D02*
X19483873Y-6509341D01*
X19483873Y-6509341D02*
X19464825Y-6499817D01*
X19464825Y-6499817D02*
X19436253Y-6499817D01*
X19436253Y-6499817D02*
X19417206Y-6490293D01*
X19417206Y-6490293D02*
X19407682Y-6471246D01*
X19407682Y-6471246D02*
X19407682Y-6461722D01*
X19407682Y-6461722D02*
X19417206Y-6442674D01*
X19417206Y-6442674D02*
X19436253Y-6433150D01*
X19436253Y-6433150D02*
X19464825Y-6433150D01*
X19464825Y-6433150D02*
X19483873Y-6442674D01*
X19560063Y-6642674D02*
X19569587Y-6633150D01*
X19569587Y-6633150D02*
X19588634Y-6604579D01*
X19588634Y-6604579D02*
X19598158Y-6585531D01*
X19598158Y-6585531D02*
X19607682Y-6556960D01*
X19607682Y-6556960D02*
X19617206Y-6509341D01*
X19617206Y-6509341D02*
X19617206Y-6471246D01*
X19617206Y-6471246D02*
X19607682Y-6423627D01*
X19607682Y-6423627D02*
X19598158Y-6395055D01*
X19598158Y-6395055D02*
X19588634Y-6376008D01*
X19588634Y-6376008D02*
X19569587Y-6347436D01*
X19569587Y-6347436D02*
X19560063Y-6337912D01*
D10*
X14785000Y-6739000D02*
G75*
G03*
X14785000Y-6739000I-50000J0D01*
G01*
D11*
X15150539Y-6830484D02*
X15036253Y-6830484D01*
X15093396Y-6830484D02*
X15093396Y-6630484D01*
X15093396Y-6630484D02*
X15074348Y-6659055D01*
X15074348Y-6659055D02*
X15055301Y-6678103D01*
X15055301Y-6678103D02*
X15036253Y-6687627D01*
X15236253Y-6811436D02*
X15245777Y-6820960D01*
X15245777Y-6820960D02*
X15236253Y-6830484D01*
X15236253Y-6830484D02*
X15226729Y-6820960D01*
X15226729Y-6820960D02*
X15236253Y-6811436D01*
X15236253Y-6811436D02*
X15236253Y-6830484D01*
X15369586Y-6630484D02*
X15388634Y-6630484D01*
X15388634Y-6630484D02*
X15407682Y-6640008D01*
X15407682Y-6640008D02*
X15417205Y-6649531D01*
X15417205Y-6649531D02*
X15426729Y-6668579D01*
X15426729Y-6668579D02*
X15436253Y-6706674D01*
X15436253Y-6706674D02*
X15436253Y-6754293D01*
X15436253Y-6754293D02*
X15426729Y-6792388D01*
X15426729Y-6792388D02*
X15417205Y-6811436D01*
X15417205Y-6811436D02*
X15407682Y-6820960D01*
X15407682Y-6820960D02*
X15388634Y-6830484D01*
X15388634Y-6830484D02*
X15369586Y-6830484D01*
X15369586Y-6830484D02*
X15350539Y-6820960D01*
X15350539Y-6820960D02*
X15341015Y-6811436D01*
X15341015Y-6811436D02*
X15331491Y-6792388D01*
X15331491Y-6792388D02*
X15321967Y-6754293D01*
X15321967Y-6754293D02*
X15321967Y-6706674D01*
X15321967Y-6706674D02*
X15331491Y-6668579D01*
X15331491Y-6668579D02*
X15341015Y-6649531D01*
X15341015Y-6649531D02*
X15350539Y-6640008D01*
X15350539Y-6640008D02*
X15369586Y-6630484D01*
X15560062Y-6630484D02*
X15579110Y-6630484D01*
X15579110Y-6630484D02*
X15598158Y-6640008D01*
X15598158Y-6640008D02*
X15607682Y-6649531D01*
X15607682Y-6649531D02*
X15617205Y-6668579D01*
X15617205Y-6668579D02*
X15626729Y-6706674D01*
X15626729Y-6706674D02*
X15626729Y-6754293D01*
X15626729Y-6754293D02*
X15617205Y-6792388D01*
X15617205Y-6792388D02*
X15607682Y-6811436D01*
X15607682Y-6811436D02*
X15598158Y-6820960D01*
X15598158Y-6820960D02*
X15579110Y-6830484D01*
X15579110Y-6830484D02*
X15560062Y-6830484D01*
X15560062Y-6830484D02*
X15541015Y-6820960D01*
X15541015Y-6820960D02*
X15531491Y-6811436D01*
X15531491Y-6811436D02*
X15521967Y-6792388D01*
X15521967Y-6792388D02*
X15512443Y-6754293D01*
X15512443Y-6754293D02*
X15512443Y-6706674D01*
X15512443Y-6706674D02*
X15521967Y-6668579D01*
X15521967Y-6668579D02*
X15531491Y-6649531D01*
X15531491Y-6649531D02*
X15541015Y-6640008D01*
X15541015Y-6640008D02*
X15560062Y-6630484D01*
X15750539Y-6630484D02*
X15769586Y-6630484D01*
X15769586Y-6630484D02*
X15788634Y-6640008D01*
X15788634Y-6640008D02*
X15798158Y-6649531D01*
X15798158Y-6649531D02*
X15807682Y-6668579D01*
X15807682Y-6668579D02*
X15817205Y-6706674D01*
X15817205Y-6706674D02*
X15817205Y-6754293D01*
X15817205Y-6754293D02*
X15807682Y-6792388D01*
X15807682Y-6792388D02*
X15798158Y-6811436D01*
X15798158Y-6811436D02*
X15788634Y-6820960D01*
X15788634Y-6820960D02*
X15769586Y-6830484D01*
X15769586Y-6830484D02*
X15750539Y-6830484D01*
X15750539Y-6830484D02*
X15731491Y-6820960D01*
X15731491Y-6820960D02*
X15721967Y-6811436D01*
X15721967Y-6811436D02*
X15712443Y-6792388D01*
X15712443Y-6792388D02*
X15702920Y-6754293D01*
X15702920Y-6754293D02*
X15702920Y-6706674D01*
X15702920Y-6706674D02*
X15712443Y-6668579D01*
X15712443Y-6668579D02*
X15721967Y-6649531D01*
X15721967Y-6649531D02*
X15731491Y-6640008D01*
X15731491Y-6640008D02*
X15750539Y-6630484D01*
X15902920Y-6830484D02*
X15902920Y-6697150D01*
X15902920Y-6716198D02*
X15912443Y-6706674D01*
X15912443Y-6706674D02*
X15931491Y-6697150D01*
X15931491Y-6697150D02*
X15960063Y-6697150D01*
X15960063Y-6697150D02*
X15979110Y-6706674D01*
X15979110Y-6706674D02*
X15988634Y-6725722D01*
X15988634Y-6725722D02*
X15988634Y-6830484D01*
X15988634Y-6725722D02*
X15998158Y-6706674D01*
X15998158Y-6706674D02*
X16017205Y-6697150D01*
X16017205Y-6697150D02*
X16045777Y-6697150D01*
X16045777Y-6697150D02*
X16064824Y-6706674D01*
X16064824Y-6706674D02*
X16074348Y-6725722D01*
X16074348Y-6725722D02*
X16074348Y-6830484D01*
X16169586Y-6830484D02*
X16169586Y-6697150D01*
X16169586Y-6716198D02*
X16179110Y-6706674D01*
X16179110Y-6706674D02*
X16198158Y-6697150D01*
X16198158Y-6697150D02*
X16226729Y-6697150D01*
X16226729Y-6697150D02*
X16245777Y-6706674D01*
X16245777Y-6706674D02*
X16255301Y-6725722D01*
X16255301Y-6725722D02*
X16255301Y-6830484D01*
X16255301Y-6725722D02*
X16264824Y-6706674D01*
X16264824Y-6706674D02*
X16283872Y-6697150D01*
X16283872Y-6697150D02*
X16312443Y-6697150D01*
X16312443Y-6697150D02*
X16331491Y-6706674D01*
X16331491Y-6706674D02*
X16341015Y-6725722D01*
X16341015Y-6725722D02*
X16341015Y-6830484D01*
X16731491Y-6620960D02*
X16560063Y-6878103D01*
X16988634Y-6630484D02*
X17007682Y-6630484D01*
X17007682Y-6630484D02*
X17026729Y-6640008D01*
X17026729Y-6640008D02*
X17036253Y-6649531D01*
X17036253Y-6649531D02*
X17045777Y-6668579D01*
X17045777Y-6668579D02*
X17055301Y-6706674D01*
X17055301Y-6706674D02*
X17055301Y-6754293D01*
X17055301Y-6754293D02*
X17045777Y-6792388D01*
X17045777Y-6792388D02*
X17036253Y-6811436D01*
X17036253Y-6811436D02*
X17026729Y-6820960D01*
X17026729Y-6820960D02*
X17007682Y-6830484D01*
X17007682Y-6830484D02*
X16988634Y-6830484D01*
X16988634Y-6830484D02*
X16969587Y-6820960D01*
X16969587Y-6820960D02*
X16960063Y-6811436D01*
X16960063Y-6811436D02*
X16950539Y-6792388D01*
X16950539Y-6792388D02*
X16941015Y-6754293D01*
X16941015Y-6754293D02*
X16941015Y-6706674D01*
X16941015Y-6706674D02*
X16950539Y-6668579D01*
X16950539Y-6668579D02*
X16960063Y-6649531D01*
X16960063Y-6649531D02*
X16969587Y-6640008D01*
X16969587Y-6640008D02*
X16988634Y-6630484D01*
X17141015Y-6811436D02*
X17150539Y-6820960D01*
X17150539Y-6820960D02*
X17141015Y-6830484D01*
X17141015Y-6830484D02*
X17131491Y-6820960D01*
X17131491Y-6820960D02*
X17141015Y-6811436D01*
X17141015Y-6811436D02*
X17141015Y-6830484D01*
X17274348Y-6630484D02*
X17293396Y-6630484D01*
X17293396Y-6630484D02*
X17312444Y-6640008D01*
X17312444Y-6640008D02*
X17321968Y-6649531D01*
X17321968Y-6649531D02*
X17331491Y-6668579D01*
X17331491Y-6668579D02*
X17341015Y-6706674D01*
X17341015Y-6706674D02*
X17341015Y-6754293D01*
X17341015Y-6754293D02*
X17331491Y-6792388D01*
X17331491Y-6792388D02*
X17321968Y-6811436D01*
X17321968Y-6811436D02*
X17312444Y-6820960D01*
X17312444Y-6820960D02*
X17293396Y-6830484D01*
X17293396Y-6830484D02*
X17274348Y-6830484D01*
X17274348Y-6830484D02*
X17255301Y-6820960D01*
X17255301Y-6820960D02*
X17245777Y-6811436D01*
X17245777Y-6811436D02*
X17236253Y-6792388D01*
X17236253Y-6792388D02*
X17226729Y-6754293D01*
X17226729Y-6754293D02*
X17226729Y-6706674D01*
X17226729Y-6706674D02*
X17236253Y-6668579D01*
X17236253Y-6668579D02*
X17245777Y-6649531D01*
X17245777Y-6649531D02*
X17255301Y-6640008D01*
X17255301Y-6640008D02*
X17274348Y-6630484D01*
X17407682Y-6630484D02*
X17531491Y-6630484D01*
X17531491Y-6630484D02*
X17464825Y-6706674D01*
X17464825Y-6706674D02*
X17493396Y-6706674D01*
X17493396Y-6706674D02*
X17512444Y-6716198D01*
X17512444Y-6716198D02*
X17521968Y-6725722D01*
X17521968Y-6725722D02*
X17531491Y-6744769D01*
X17531491Y-6744769D02*
X17531491Y-6792388D01*
X17531491Y-6792388D02*
X17521968Y-6811436D01*
X17521968Y-6811436D02*
X17512444Y-6820960D01*
X17512444Y-6820960D02*
X17493396Y-6830484D01*
X17493396Y-6830484D02*
X17436253Y-6830484D01*
X17436253Y-6830484D02*
X17417206Y-6820960D01*
X17417206Y-6820960D02*
X17407682Y-6811436D01*
X17626729Y-6830484D02*
X17664825Y-6830484D01*
X17664825Y-6830484D02*
X17683872Y-6820960D01*
X17683872Y-6820960D02*
X17693396Y-6811436D01*
X17693396Y-6811436D02*
X17712444Y-6782865D01*
X17712444Y-6782865D02*
X17721968Y-6744769D01*
X17721968Y-6744769D02*
X17721968Y-6668579D01*
X17721968Y-6668579D02*
X17712444Y-6649531D01*
X17712444Y-6649531D02*
X17702920Y-6640008D01*
X17702920Y-6640008D02*
X17683872Y-6630484D01*
X17683872Y-6630484D02*
X17645777Y-6630484D01*
X17645777Y-6630484D02*
X17626729Y-6640008D01*
X17626729Y-6640008D02*
X17617206Y-6649531D01*
X17617206Y-6649531D02*
X17607682Y-6668579D01*
X17607682Y-6668579D02*
X17607682Y-6716198D01*
X17607682Y-6716198D02*
X17617206Y-6735246D01*
X17617206Y-6735246D02*
X17626729Y-6744769D01*
X17626729Y-6744769D02*
X17645777Y-6754293D01*
X17645777Y-6754293D02*
X17683872Y-6754293D01*
X17683872Y-6754293D02*
X17702920Y-6744769D01*
X17702920Y-6744769D02*
X17712444Y-6735246D01*
X17712444Y-6735246D02*
X17721968Y-6716198D01*
X17893396Y-6697150D02*
X17893396Y-6830484D01*
X17845777Y-6620960D02*
X17798158Y-6763817D01*
X17798158Y-6763817D02*
X17921968Y-6763817D01*
X17988634Y-6630484D02*
X17988634Y-6668579D01*
X18064825Y-6630484D02*
X18064825Y-6668579D01*
X18360063Y-6906674D02*
X18350539Y-6897150D01*
X18350539Y-6897150D02*
X18331491Y-6868579D01*
X18331491Y-6868579D02*
X18321968Y-6849531D01*
X18321968Y-6849531D02*
X18312444Y-6820960D01*
X18312444Y-6820960D02*
X18302920Y-6773341D01*
X18302920Y-6773341D02*
X18302920Y-6735246D01*
X18302920Y-6735246D02*
X18312444Y-6687627D01*
X18312444Y-6687627D02*
X18321968Y-6659055D01*
X18321968Y-6659055D02*
X18331491Y-6640008D01*
X18331491Y-6640008D02*
X18350539Y-6611436D01*
X18350539Y-6611436D02*
X18360063Y-6601912D01*
X18426730Y-6649531D02*
X18436253Y-6640008D01*
X18436253Y-6640008D02*
X18455301Y-6630484D01*
X18455301Y-6630484D02*
X18502920Y-6630484D01*
X18502920Y-6630484D02*
X18521968Y-6640008D01*
X18521968Y-6640008D02*
X18531491Y-6649531D01*
X18531491Y-6649531D02*
X18541015Y-6668579D01*
X18541015Y-6668579D02*
X18541015Y-6687627D01*
X18541015Y-6687627D02*
X18531491Y-6716198D01*
X18531491Y-6716198D02*
X18417206Y-6830484D01*
X18417206Y-6830484D02*
X18541015Y-6830484D01*
X18779111Y-6830484D02*
X18779111Y-6630484D01*
X18864825Y-6830484D02*
X18864825Y-6725722D01*
X18864825Y-6725722D02*
X18855301Y-6706674D01*
X18855301Y-6706674D02*
X18836253Y-6697150D01*
X18836253Y-6697150D02*
X18807682Y-6697150D01*
X18807682Y-6697150D02*
X18788634Y-6706674D01*
X18788634Y-6706674D02*
X18779111Y-6716198D01*
X18988634Y-6830484D02*
X18969587Y-6820960D01*
X18969587Y-6820960D02*
X18960063Y-6811436D01*
X18960063Y-6811436D02*
X18950539Y-6792388D01*
X18950539Y-6792388D02*
X18950539Y-6735246D01*
X18950539Y-6735246D02*
X18960063Y-6716198D01*
X18960063Y-6716198D02*
X18969587Y-6706674D01*
X18969587Y-6706674D02*
X18988634Y-6697150D01*
X18988634Y-6697150D02*
X19017206Y-6697150D01*
X19017206Y-6697150D02*
X19036253Y-6706674D01*
X19036253Y-6706674D02*
X19045777Y-6716198D01*
X19045777Y-6716198D02*
X19055301Y-6735246D01*
X19055301Y-6735246D02*
X19055301Y-6792388D01*
X19055301Y-6792388D02*
X19045777Y-6811436D01*
X19045777Y-6811436D02*
X19036253Y-6820960D01*
X19036253Y-6820960D02*
X19017206Y-6830484D01*
X19017206Y-6830484D02*
X18988634Y-6830484D01*
X19169587Y-6830484D02*
X19150539Y-6820960D01*
X19150539Y-6820960D02*
X19141015Y-6801912D01*
X19141015Y-6801912D02*
X19141015Y-6630484D01*
X19321968Y-6820960D02*
X19302920Y-6830484D01*
X19302920Y-6830484D02*
X19264825Y-6830484D01*
X19264825Y-6830484D02*
X19245777Y-6820960D01*
X19245777Y-6820960D02*
X19236253Y-6801912D01*
X19236253Y-6801912D02*
X19236253Y-6725722D01*
X19236253Y-6725722D02*
X19245777Y-6706674D01*
X19245777Y-6706674D02*
X19264825Y-6697150D01*
X19264825Y-6697150D02*
X19302920Y-6697150D01*
X19302920Y-6697150D02*
X19321968Y-6706674D01*
X19321968Y-6706674D02*
X19331492Y-6725722D01*
X19331492Y-6725722D02*
X19331492Y-6744769D01*
X19331492Y-6744769D02*
X19236253Y-6763817D01*
X19407682Y-6820960D02*
X19426730Y-6830484D01*
X19426730Y-6830484D02*
X19464825Y-6830484D01*
X19464825Y-6830484D02*
X19483873Y-6820960D01*
X19483873Y-6820960D02*
X19493396Y-6801912D01*
X19493396Y-6801912D02*
X19493396Y-6792388D01*
X19493396Y-6792388D02*
X19483873Y-6773341D01*
X19483873Y-6773341D02*
X19464825Y-6763817D01*
X19464825Y-6763817D02*
X19436253Y-6763817D01*
X19436253Y-6763817D02*
X19417206Y-6754293D01*
X19417206Y-6754293D02*
X19407682Y-6735246D01*
X19407682Y-6735246D02*
X19407682Y-6725722D01*
X19407682Y-6725722D02*
X19417206Y-6706674D01*
X19417206Y-6706674D02*
X19436253Y-6697150D01*
X19436253Y-6697150D02*
X19464825Y-6697150D01*
X19464825Y-6697150D02*
X19483873Y-6706674D01*
X19560063Y-6906674D02*
X19569587Y-6897150D01*
X19569587Y-6897150D02*
X19588634Y-6868579D01*
X19588634Y-6868579D02*
X19598158Y-6849531D01*
X19598158Y-6849531D02*
X19607682Y-6820960D01*
X19607682Y-6820960D02*
X19617206Y-6773341D01*
X19617206Y-6773341D02*
X19617206Y-6735246D01*
X19617206Y-6735246D02*
X19607682Y-6687627D01*
X19607682Y-6687627D02*
X19598158Y-6659055D01*
X19598158Y-6659055D02*
X19588634Y-6640008D01*
X19588634Y-6640008D02*
X19569587Y-6611436D01*
X19569587Y-6611436D02*
X19560063Y-6601912D01*
D13*
X14725000Y-6943000D02*
X14725000Y-7063000D01*
X14665000Y-7003000D02*
X14785000Y-7003000D01*
D11*
X15150539Y-7094484D02*
X15036253Y-7094484D01*
X15093396Y-7094484D02*
X15093396Y-6894484D01*
X15093396Y-6894484D02*
X15074348Y-6923055D01*
X15074348Y-6923055D02*
X15055301Y-6942103D01*
X15055301Y-6942103D02*
X15036253Y-6951627D01*
X15236253Y-7075436D02*
X15245777Y-7084960D01*
X15245777Y-7084960D02*
X15236253Y-7094484D01*
X15236253Y-7094484D02*
X15226729Y-7084960D01*
X15226729Y-7084960D02*
X15236253Y-7075436D01*
X15236253Y-7075436D02*
X15236253Y-7094484D01*
X15321967Y-6913531D02*
X15331491Y-6904008D01*
X15331491Y-6904008D02*
X15350539Y-6894484D01*
X15350539Y-6894484D02*
X15398158Y-6894484D01*
X15398158Y-6894484D02*
X15417205Y-6904008D01*
X15417205Y-6904008D02*
X15426729Y-6913531D01*
X15426729Y-6913531D02*
X15436253Y-6932579D01*
X15436253Y-6932579D02*
X15436253Y-6951627D01*
X15436253Y-6951627D02*
X15426729Y-6980198D01*
X15426729Y-6980198D02*
X15312443Y-7094484D01*
X15312443Y-7094484D02*
X15436253Y-7094484D01*
X15560062Y-6894484D02*
X15579110Y-6894484D01*
X15579110Y-6894484D02*
X15598158Y-6904008D01*
X15598158Y-6904008D02*
X15607682Y-6913531D01*
X15607682Y-6913531D02*
X15617205Y-6932579D01*
X15617205Y-6932579D02*
X15626729Y-6970674D01*
X15626729Y-6970674D02*
X15626729Y-7018293D01*
X15626729Y-7018293D02*
X15617205Y-7056388D01*
X15617205Y-7056388D02*
X15607682Y-7075436D01*
X15607682Y-7075436D02*
X15598158Y-7084960D01*
X15598158Y-7084960D02*
X15579110Y-7094484D01*
X15579110Y-7094484D02*
X15560062Y-7094484D01*
X15560062Y-7094484D02*
X15541015Y-7084960D01*
X15541015Y-7084960D02*
X15531491Y-7075436D01*
X15531491Y-7075436D02*
X15521967Y-7056388D01*
X15521967Y-7056388D02*
X15512443Y-7018293D01*
X15512443Y-7018293D02*
X15512443Y-6970674D01*
X15512443Y-6970674D02*
X15521967Y-6932579D01*
X15521967Y-6932579D02*
X15531491Y-6913531D01*
X15531491Y-6913531D02*
X15541015Y-6904008D01*
X15541015Y-6904008D02*
X15560062Y-6894484D01*
X15750539Y-6894484D02*
X15769586Y-6894484D01*
X15769586Y-6894484D02*
X15788634Y-6904008D01*
X15788634Y-6904008D02*
X15798158Y-6913531D01*
X15798158Y-6913531D02*
X15807682Y-6932579D01*
X15807682Y-6932579D02*
X15817205Y-6970674D01*
X15817205Y-6970674D02*
X15817205Y-7018293D01*
X15817205Y-7018293D02*
X15807682Y-7056388D01*
X15807682Y-7056388D02*
X15798158Y-7075436D01*
X15798158Y-7075436D02*
X15788634Y-7084960D01*
X15788634Y-7084960D02*
X15769586Y-7094484D01*
X15769586Y-7094484D02*
X15750539Y-7094484D01*
X15750539Y-7094484D02*
X15731491Y-7084960D01*
X15731491Y-7084960D02*
X15721967Y-7075436D01*
X15721967Y-7075436D02*
X15712443Y-7056388D01*
X15712443Y-7056388D02*
X15702920Y-7018293D01*
X15702920Y-7018293D02*
X15702920Y-6970674D01*
X15702920Y-6970674D02*
X15712443Y-6932579D01*
X15712443Y-6932579D02*
X15721967Y-6913531D01*
X15721967Y-6913531D02*
X15731491Y-6904008D01*
X15731491Y-6904008D02*
X15750539Y-6894484D01*
X15902920Y-7094484D02*
X15902920Y-6961150D01*
X15902920Y-6980198D02*
X15912443Y-6970674D01*
X15912443Y-6970674D02*
X15931491Y-6961150D01*
X15931491Y-6961150D02*
X15960063Y-6961150D01*
X15960063Y-6961150D02*
X15979110Y-6970674D01*
X15979110Y-6970674D02*
X15988634Y-6989722D01*
X15988634Y-6989722D02*
X15988634Y-7094484D01*
X15988634Y-6989722D02*
X15998158Y-6970674D01*
X15998158Y-6970674D02*
X16017205Y-6961150D01*
X16017205Y-6961150D02*
X16045777Y-6961150D01*
X16045777Y-6961150D02*
X16064824Y-6970674D01*
X16064824Y-6970674D02*
X16074348Y-6989722D01*
X16074348Y-6989722D02*
X16074348Y-7094484D01*
X16169586Y-7094484D02*
X16169586Y-6961150D01*
X16169586Y-6980198D02*
X16179110Y-6970674D01*
X16179110Y-6970674D02*
X16198158Y-6961150D01*
X16198158Y-6961150D02*
X16226729Y-6961150D01*
X16226729Y-6961150D02*
X16245777Y-6970674D01*
X16245777Y-6970674D02*
X16255301Y-6989722D01*
X16255301Y-6989722D02*
X16255301Y-7094484D01*
X16255301Y-6989722D02*
X16264824Y-6970674D01*
X16264824Y-6970674D02*
X16283872Y-6961150D01*
X16283872Y-6961150D02*
X16312443Y-6961150D01*
X16312443Y-6961150D02*
X16331491Y-6970674D01*
X16331491Y-6970674D02*
X16341015Y-6989722D01*
X16341015Y-6989722D02*
X16341015Y-7094484D01*
X16731491Y-6884960D02*
X16560063Y-7142103D01*
X16988634Y-6894484D02*
X17007682Y-6894484D01*
X17007682Y-6894484D02*
X17026729Y-6904008D01*
X17026729Y-6904008D02*
X17036253Y-6913531D01*
X17036253Y-6913531D02*
X17045777Y-6932579D01*
X17045777Y-6932579D02*
X17055301Y-6970674D01*
X17055301Y-6970674D02*
X17055301Y-7018293D01*
X17055301Y-7018293D02*
X17045777Y-7056388D01*
X17045777Y-7056388D02*
X17036253Y-7075436D01*
X17036253Y-7075436D02*
X17026729Y-7084960D01*
X17026729Y-7084960D02*
X17007682Y-7094484D01*
X17007682Y-7094484D02*
X16988634Y-7094484D01*
X16988634Y-7094484D02*
X16969587Y-7084960D01*
X16969587Y-7084960D02*
X16960063Y-7075436D01*
X16960063Y-7075436D02*
X16950539Y-7056388D01*
X16950539Y-7056388D02*
X16941015Y-7018293D01*
X16941015Y-7018293D02*
X16941015Y-6970674D01*
X16941015Y-6970674D02*
X16950539Y-6932579D01*
X16950539Y-6932579D02*
X16960063Y-6913531D01*
X16960063Y-6913531D02*
X16969587Y-6904008D01*
X16969587Y-6904008D02*
X16988634Y-6894484D01*
X17141015Y-7075436D02*
X17150539Y-7084960D01*
X17150539Y-7084960D02*
X17141015Y-7094484D01*
X17141015Y-7094484D02*
X17131491Y-7084960D01*
X17131491Y-7084960D02*
X17141015Y-7075436D01*
X17141015Y-7075436D02*
X17141015Y-7094484D01*
X17274348Y-6894484D02*
X17293396Y-6894484D01*
X17293396Y-6894484D02*
X17312444Y-6904008D01*
X17312444Y-6904008D02*
X17321968Y-6913531D01*
X17321968Y-6913531D02*
X17331491Y-6932579D01*
X17331491Y-6932579D02*
X17341015Y-6970674D01*
X17341015Y-6970674D02*
X17341015Y-7018293D01*
X17341015Y-7018293D02*
X17331491Y-7056388D01*
X17331491Y-7056388D02*
X17321968Y-7075436D01*
X17321968Y-7075436D02*
X17312444Y-7084960D01*
X17312444Y-7084960D02*
X17293396Y-7094484D01*
X17293396Y-7094484D02*
X17274348Y-7094484D01*
X17274348Y-7094484D02*
X17255301Y-7084960D01*
X17255301Y-7084960D02*
X17245777Y-7075436D01*
X17245777Y-7075436D02*
X17236253Y-7056388D01*
X17236253Y-7056388D02*
X17226729Y-7018293D01*
X17226729Y-7018293D02*
X17226729Y-6970674D01*
X17226729Y-6970674D02*
X17236253Y-6932579D01*
X17236253Y-6932579D02*
X17245777Y-6913531D01*
X17245777Y-6913531D02*
X17255301Y-6904008D01*
X17255301Y-6904008D02*
X17274348Y-6894484D01*
X17512444Y-6961150D02*
X17512444Y-7094484D01*
X17464825Y-6884960D02*
X17417206Y-7027817D01*
X17417206Y-7027817D02*
X17541015Y-7027817D01*
X17598158Y-6894484D02*
X17731491Y-6894484D01*
X17731491Y-6894484D02*
X17645777Y-7094484D01*
X17798158Y-6913531D02*
X17807682Y-6904008D01*
X17807682Y-6904008D02*
X17826729Y-6894484D01*
X17826729Y-6894484D02*
X17874349Y-6894484D01*
X17874349Y-6894484D02*
X17893396Y-6904008D01*
X17893396Y-6904008D02*
X17902920Y-6913531D01*
X17902920Y-6913531D02*
X17912444Y-6932579D01*
X17912444Y-6932579D02*
X17912444Y-6951627D01*
X17912444Y-6951627D02*
X17902920Y-6980198D01*
X17902920Y-6980198D02*
X17788634Y-7094484D01*
X17788634Y-7094484D02*
X17912444Y-7094484D01*
X17988634Y-6894484D02*
X17988634Y-6932579D01*
X18064825Y-6894484D02*
X18064825Y-6932579D01*
X18360063Y-7170674D02*
X18350539Y-7161150D01*
X18350539Y-7161150D02*
X18331491Y-7132579D01*
X18331491Y-7132579D02*
X18321968Y-7113531D01*
X18321968Y-7113531D02*
X18312444Y-7084960D01*
X18312444Y-7084960D02*
X18302920Y-7037341D01*
X18302920Y-7037341D02*
X18302920Y-6999246D01*
X18302920Y-6999246D02*
X18312444Y-6951627D01*
X18312444Y-6951627D02*
X18321968Y-6923055D01*
X18321968Y-6923055D02*
X18331491Y-6904008D01*
X18331491Y-6904008D02*
X18350539Y-6875436D01*
X18350539Y-6875436D02*
X18360063Y-6865912D01*
X18521968Y-6961150D02*
X18521968Y-7094484D01*
X18474349Y-6884960D02*
X18426730Y-7027817D01*
X18426730Y-7027817D02*
X18550539Y-7027817D01*
X18779111Y-7094484D02*
X18779111Y-6894484D01*
X18864825Y-7094484D02*
X18864825Y-6989722D01*
X18864825Y-6989722D02*
X18855301Y-6970674D01*
X18855301Y-6970674D02*
X18836253Y-6961150D01*
X18836253Y-6961150D02*
X18807682Y-6961150D01*
X18807682Y-6961150D02*
X18788634Y-6970674D01*
X18788634Y-6970674D02*
X18779111Y-6980198D01*
X18988634Y-7094484D02*
X18969587Y-7084960D01*
X18969587Y-7084960D02*
X18960063Y-7075436D01*
X18960063Y-7075436D02*
X18950539Y-7056388D01*
X18950539Y-7056388D02*
X18950539Y-6999246D01*
X18950539Y-6999246D02*
X18960063Y-6980198D01*
X18960063Y-6980198D02*
X18969587Y-6970674D01*
X18969587Y-6970674D02*
X18988634Y-6961150D01*
X18988634Y-6961150D02*
X19017206Y-6961150D01*
X19017206Y-6961150D02*
X19036253Y-6970674D01*
X19036253Y-6970674D02*
X19045777Y-6980198D01*
X19045777Y-6980198D02*
X19055301Y-6999246D01*
X19055301Y-6999246D02*
X19055301Y-7056388D01*
X19055301Y-7056388D02*
X19045777Y-7075436D01*
X19045777Y-7075436D02*
X19036253Y-7084960D01*
X19036253Y-7084960D02*
X19017206Y-7094484D01*
X19017206Y-7094484D02*
X18988634Y-7094484D01*
X19169587Y-7094484D02*
X19150539Y-7084960D01*
X19150539Y-7084960D02*
X19141015Y-7065912D01*
X19141015Y-7065912D02*
X19141015Y-6894484D01*
X19321968Y-7084960D02*
X19302920Y-7094484D01*
X19302920Y-7094484D02*
X19264825Y-7094484D01*
X19264825Y-7094484D02*
X19245777Y-7084960D01*
X19245777Y-7084960D02*
X19236253Y-7065912D01*
X19236253Y-7065912D02*
X19236253Y-6989722D01*
X19236253Y-6989722D02*
X19245777Y-6970674D01*
X19245777Y-6970674D02*
X19264825Y-6961150D01*
X19264825Y-6961150D02*
X19302920Y-6961150D01*
X19302920Y-6961150D02*
X19321968Y-6970674D01*
X19321968Y-6970674D02*
X19331492Y-6989722D01*
X19331492Y-6989722D02*
X19331492Y-7008769D01*
X19331492Y-7008769D02*
X19236253Y-7027817D01*
X19407682Y-7084960D02*
X19426730Y-7094484D01*
X19426730Y-7094484D02*
X19464825Y-7094484D01*
X19464825Y-7094484D02*
X19483873Y-7084960D01*
X19483873Y-7084960D02*
X19493396Y-7065912D01*
X19493396Y-7065912D02*
X19493396Y-7056388D01*
X19493396Y-7056388D02*
X19483873Y-7037341D01*
X19483873Y-7037341D02*
X19464825Y-7027817D01*
X19464825Y-7027817D02*
X19436253Y-7027817D01*
X19436253Y-7027817D02*
X19417206Y-7018293D01*
X19417206Y-7018293D02*
X19407682Y-6999246D01*
X19407682Y-6999246D02*
X19407682Y-6989722D01*
X19407682Y-6989722D02*
X19417206Y-6970674D01*
X19417206Y-6970674D02*
X19436253Y-6961150D01*
X19436253Y-6961150D02*
X19464825Y-6961150D01*
X19464825Y-6961150D02*
X19483873Y-6970674D01*
X19560063Y-7170674D02*
X19569587Y-7161150D01*
X19569587Y-7161150D02*
X19588634Y-7132579D01*
X19588634Y-7132579D02*
X19598158Y-7113531D01*
X19598158Y-7113531D02*
X19607682Y-7084960D01*
X19607682Y-7084960D02*
X19617206Y-7037341D01*
X19617206Y-7037341D02*
X19617206Y-6999246D01*
X19617206Y-6999246D02*
X19607682Y-6951627D01*
X19607682Y-6951627D02*
X19598158Y-6923055D01*
X19598158Y-6923055D02*
X19588634Y-6904008D01*
X19588634Y-6904008D02*
X19569587Y-6875436D01*
X19569587Y-6875436D02*
X19560063Y-6865912D01*
M02*
