G04 #@! TF.GenerationSoftware,KiCad,Pcbnew,7.0.7*
G04 #@! TF.CreationDate,2023-09-18T19:37:29-04:00*
G04 #@! TF.ProjectId,Nav Switch Mount,4e617620-5377-4697-9463-68204d6f756e,rev?*
G04 #@! TF.SameCoordinates,Original*
G04 #@! TF.FileFunction,Legend,Top*
G04 #@! TF.FilePolarity,Positive*
%FSLAX46Y46*%
G04 Gerber Fmt 4.6, Leading zero omitted, Abs format (unit mm)*
G04 Created by KiCad (PCBNEW 7.0.7) date 2023-09-18 19:37:29*
%MOMM*%
%LPD*%
G01*
G04 APERTURE LIST*
G04 Aperture macros list*
%AMRoundRect*
0 Rectangle with rounded corners*
0 $1 Rounding radius*
0 $2 $3 $4 $5 $6 $7 $8 $9 X,Y pos of 4 corners*
0 Add a 4 corners polygon primitive as box body*
4,1,4,$2,$3,$4,$5,$6,$7,$8,$9,$2,$3,0*
0 Add four circle primitives for the rounded corners*
1,1,$1+$1,$2,$3*
1,1,$1+$1,$4,$5*
1,1,$1+$1,$6,$7*
1,1,$1+$1,$8,$9*
0 Add four rect primitives between the rounded corners*
20,1,$1+$1,$2,$3,$4,$5,0*
20,1,$1+$1,$4,$5,$6,$7,0*
20,1,$1+$1,$6,$7,$8,$9,0*
20,1,$1+$1,$8,$9,$2,$3,0*%
G04 Aperture macros list end*
%ADD10C,0.150000*%
%ADD11C,0.127000*%
%ADD12C,0.000000*%
%ADD13C,2.100000*%
%ADD14RoundRect,0.102000X-0.900000X-0.900000X0.900000X-0.900000X0.900000X0.900000X-0.900000X0.900000X0*%
%ADD15C,1.712000*%
%ADD16C,2.004000*%
G04 APERTURE END LIST*
D10*
X152050000Y-58100000D02*
X152050000Y-45900000D01*
X166050000Y-45900000D02*
X166050000Y-58100000D01*
X155998684Y-48529902D02*
X155236779Y-48815616D01*
X155236779Y-48815616D02*
X155998684Y-49101330D01*
X156998683Y-49196569D02*
X156427255Y-49196569D01*
X156712969Y-49196569D02*
X156712969Y-48196569D01*
X156712969Y-48196569D02*
X156617731Y-48339426D01*
X156617731Y-48339426D02*
X156522493Y-48434664D01*
X156522493Y-48434664D02*
X156427255Y-48482283D01*
X155308445Y-55794295D02*
X155308445Y-56365723D01*
X155308445Y-56365723D02*
X155270350Y-56480009D01*
X155270350Y-56480009D02*
X155194159Y-56556200D01*
X155194159Y-56556200D02*
X155079874Y-56594295D01*
X155079874Y-56594295D02*
X155003683Y-56594295D01*
X156070350Y-56594295D02*
X155689398Y-56594295D01*
X155689398Y-56594295D02*
X155689398Y-55794295D01*
X156794160Y-56518104D02*
X156756064Y-56556200D01*
X156756064Y-56556200D02*
X156641779Y-56594295D01*
X156641779Y-56594295D02*
X156565588Y-56594295D01*
X156565588Y-56594295D02*
X156451302Y-56556200D01*
X156451302Y-56556200D02*
X156375112Y-56480009D01*
X156375112Y-56480009D02*
X156337017Y-56403819D01*
X156337017Y-56403819D02*
X156298921Y-56251438D01*
X156298921Y-56251438D02*
X156298921Y-56137152D01*
X156298921Y-56137152D02*
X156337017Y-55984771D01*
X156337017Y-55984771D02*
X156375112Y-55908580D01*
X156375112Y-55908580D02*
X156451302Y-55832390D01*
X156451302Y-55832390D02*
X156565588Y-55794295D01*
X156565588Y-55794295D02*
X156641779Y-55794295D01*
X156641779Y-55794295D02*
X156756064Y-55832390D01*
X156756064Y-55832390D02*
X156794160Y-55870485D01*
X157365588Y-55794295D02*
X157365588Y-56365723D01*
X157365588Y-56365723D02*
X157327493Y-56480009D01*
X157327493Y-56480009D02*
X157251302Y-56556200D01*
X157251302Y-56556200D02*
X157137017Y-56594295D01*
X157137017Y-56594295D02*
X157060826Y-56594295D01*
X158127493Y-56594295D02*
X157746541Y-56594295D01*
X157746541Y-56594295D02*
X157746541Y-55794295D01*
X158851303Y-56518104D02*
X158813207Y-56556200D01*
X158813207Y-56556200D02*
X158698922Y-56594295D01*
X158698922Y-56594295D02*
X158622731Y-56594295D01*
X158622731Y-56594295D02*
X158508445Y-56556200D01*
X158508445Y-56556200D02*
X158432255Y-56480009D01*
X158432255Y-56480009D02*
X158394160Y-56403819D01*
X158394160Y-56403819D02*
X158356064Y-56251438D01*
X158356064Y-56251438D02*
X158356064Y-56137152D01*
X158356064Y-56137152D02*
X158394160Y-55984771D01*
X158394160Y-55984771D02*
X158432255Y-55908580D01*
X158432255Y-55908580D02*
X158508445Y-55832390D01*
X158508445Y-55832390D02*
X158622731Y-55794295D01*
X158622731Y-55794295D02*
X158698922Y-55794295D01*
X158698922Y-55794295D02*
X158813207Y-55832390D01*
X158813207Y-55832390D02*
X158851303Y-55870485D01*
X159422731Y-55794295D02*
X159422731Y-56365723D01*
X159422731Y-56365723D02*
X159384636Y-56480009D01*
X159384636Y-56480009D02*
X159308445Y-56556200D01*
X159308445Y-56556200D02*
X159194160Y-56594295D01*
X159194160Y-56594295D02*
X159117969Y-56594295D01*
X160184636Y-56594295D02*
X159803684Y-56594295D01*
X159803684Y-56594295D02*
X159803684Y-55794295D01*
X160908446Y-56518104D02*
X160870350Y-56556200D01*
X160870350Y-56556200D02*
X160756065Y-56594295D01*
X160756065Y-56594295D02*
X160679874Y-56594295D01*
X160679874Y-56594295D02*
X160565588Y-56556200D01*
X160565588Y-56556200D02*
X160489398Y-56480009D01*
X160489398Y-56480009D02*
X160451303Y-56403819D01*
X160451303Y-56403819D02*
X160413207Y-56251438D01*
X160413207Y-56251438D02*
X160413207Y-56137152D01*
X160413207Y-56137152D02*
X160451303Y-55984771D01*
X160451303Y-55984771D02*
X160489398Y-55908580D01*
X160489398Y-55908580D02*
X160565588Y-55832390D01*
X160565588Y-55832390D02*
X160679874Y-55794295D01*
X160679874Y-55794295D02*
X160756065Y-55794295D01*
X160756065Y-55794295D02*
X160870350Y-55832390D01*
X160870350Y-55832390D02*
X160908446Y-55870485D01*
X161479874Y-55794295D02*
X161479874Y-56365723D01*
X161479874Y-56365723D02*
X161441779Y-56480009D01*
X161441779Y-56480009D02*
X161365588Y-56556200D01*
X161365588Y-56556200D02*
X161251303Y-56594295D01*
X161251303Y-56594295D02*
X161175112Y-56594295D01*
X162241779Y-56594295D02*
X161860827Y-56594295D01*
X161860827Y-56594295D02*
X161860827Y-55794295D01*
X162965589Y-56518104D02*
X162927493Y-56556200D01*
X162927493Y-56556200D02*
X162813208Y-56594295D01*
X162813208Y-56594295D02*
X162737017Y-56594295D01*
X162737017Y-56594295D02*
X162622731Y-56556200D01*
X162622731Y-56556200D02*
X162546541Y-56480009D01*
X162546541Y-56480009D02*
X162508446Y-56403819D01*
X162508446Y-56403819D02*
X162470350Y-56251438D01*
X162470350Y-56251438D02*
X162470350Y-56137152D01*
X162470350Y-56137152D02*
X162508446Y-55984771D01*
X162508446Y-55984771D02*
X162546541Y-55908580D01*
X162546541Y-55908580D02*
X162622731Y-55832390D01*
X162622731Y-55832390D02*
X162737017Y-55794295D01*
X162737017Y-55794295D02*
X162813208Y-55794295D01*
X162813208Y-55794295D02*
X162927493Y-55832390D01*
X162927493Y-55832390D02*
X162965589Y-55870485D01*
X156442162Y-54676047D02*
X155735055Y-53968940D01*
X155735055Y-53968940D02*
X156846223Y-54271986D01*
X156846223Y-54271986D02*
X156139116Y-53564879D01*
X157485986Y-53632223D02*
X157115597Y-53261834D01*
X157115597Y-53261834D02*
X157014582Y-53228162D01*
X157014582Y-53228162D02*
X156913567Y-53261834D01*
X156913567Y-53261834D02*
X156778880Y-53396521D01*
X156778880Y-53396521D02*
X156745208Y-53497536D01*
X157452315Y-53598551D02*
X157418643Y-53699566D01*
X157418643Y-53699566D02*
X157250284Y-53867925D01*
X157250284Y-53867925D02*
X157149269Y-53901597D01*
X157149269Y-53901597D02*
X157048254Y-53867925D01*
X157048254Y-53867925D02*
X156980910Y-53800582D01*
X156980910Y-53800582D02*
X156947238Y-53699566D01*
X156947238Y-53699566D02*
X156980910Y-53598551D01*
X156980910Y-53598551D02*
X157149269Y-53430192D01*
X157149269Y-53430192D02*
X157182941Y-53329177D01*
X157283956Y-52891444D02*
X157923719Y-53194490D01*
X157923719Y-53194490D02*
X157620673Y-52554727D01*
X158294109Y-52689414D02*
X158361452Y-52689414D01*
X158361452Y-52689414D02*
X158361452Y-52756757D01*
X158361452Y-52756757D02*
X158294109Y-52756757D01*
X158294109Y-52756757D02*
X158294109Y-52689414D01*
X158294109Y-52689414D02*
X158361452Y-52756757D01*
X159169574Y-51881292D02*
X159304261Y-51813948D01*
X159304261Y-51813948D02*
X159472620Y-51645590D01*
X159472620Y-51645590D02*
X159506291Y-51544574D01*
X159506291Y-51544574D02*
X159506291Y-51477231D01*
X159506291Y-51477231D02*
X159472620Y-51376216D01*
X159472620Y-51376216D02*
X159405276Y-51308872D01*
X159405276Y-51308872D02*
X159304261Y-51275200D01*
X159304261Y-51275200D02*
X159236917Y-51275200D01*
X159236917Y-51275200D02*
X159135902Y-51308872D01*
X159135902Y-51308872D02*
X158967543Y-51409887D01*
X158967543Y-51409887D02*
X158866528Y-51443559D01*
X158866528Y-51443559D02*
X158799185Y-51443559D01*
X158799185Y-51443559D02*
X158698169Y-51409887D01*
X158698169Y-51409887D02*
X158630826Y-51342544D01*
X158630826Y-51342544D02*
X158597154Y-51241529D01*
X158597154Y-51241529D02*
X158597154Y-51174185D01*
X158597154Y-51174185D02*
X158630826Y-51073170D01*
X158630826Y-51073170D02*
X158799185Y-50904811D01*
X158799185Y-50904811D02*
X158933872Y-50837468D01*
X159371604Y-50803796D02*
X159977696Y-51140513D01*
X159977696Y-51140513D02*
X159775665Y-50669109D01*
X159775665Y-50669109D02*
X160247070Y-50871139D01*
X160247070Y-50871139D02*
X159910352Y-50265048D01*
X160651131Y-50467078D02*
X160179726Y-49995674D01*
X159944024Y-49759971D02*
X159944024Y-49827315D01*
X159944024Y-49827315D02*
X160011368Y-49827315D01*
X160011368Y-49827315D02*
X160011368Y-49759971D01*
X160011368Y-49759971D02*
X159944024Y-49759971D01*
X159944024Y-49759971D02*
X160011368Y-49827315D01*
X160415428Y-49759972D02*
X160684802Y-49490598D01*
X160280741Y-49423254D02*
X160886833Y-50029346D01*
X160886833Y-50029346D02*
X160987848Y-50063018D01*
X160987848Y-50063018D02*
X161088863Y-50029346D01*
X161088863Y-50029346D02*
X161156207Y-49962002D01*
X161661284Y-49389582D02*
X161627612Y-49490598D01*
X161627612Y-49490598D02*
X161492925Y-49625285D01*
X161492925Y-49625285D02*
X161391909Y-49658956D01*
X161391909Y-49658956D02*
X161324566Y-49658956D01*
X161324566Y-49658956D02*
X161223551Y-49625285D01*
X161223551Y-49625285D02*
X161021520Y-49423254D01*
X161021520Y-49423254D02*
X160987848Y-49322239D01*
X160987848Y-49322239D02*
X160987848Y-49254895D01*
X160987848Y-49254895D02*
X161021520Y-49153880D01*
X161021520Y-49153880D02*
X161156207Y-49019193D01*
X161156207Y-49019193D02*
X161257222Y-48985521D01*
X161998001Y-49120208D02*
X161290894Y-48413101D01*
X162301047Y-48817162D02*
X161930658Y-48446773D01*
X161930658Y-48446773D02*
X161829642Y-48413101D01*
X161829642Y-48413101D02*
X161728627Y-48446773D01*
X161728627Y-48446773D02*
X161627612Y-48547788D01*
X161627612Y-48547788D02*
X161593940Y-48648804D01*
X161593940Y-48648804D02*
X161593940Y-48716147D01*
D11*
X154050000Y-46975000D02*
X164050000Y-46975000D01*
X154050000Y-57025000D02*
X164050000Y-57025000D01*
%LPC*%
D12*
G36*
X168234937Y-55243364D02*
G01*
X168235541Y-55243409D01*
X168236143Y-55243483D01*
X168236740Y-55243585D01*
X168237333Y-55243715D01*
X168237920Y-55243872D01*
X168238501Y-55244054D01*
X168239074Y-55244262D01*
X168239638Y-55244495D01*
X168240194Y-55244751D01*
X168240739Y-55245031D01*
X168241273Y-55245332D01*
X168241795Y-55245656D01*
X168242304Y-55246000D01*
X168242800Y-55246365D01*
X168243281Y-55246749D01*
X168243746Y-55247151D01*
X168244195Y-55247571D01*
X168244627Y-55248009D01*
X168245040Y-55248463D01*
X168245435Y-55248933D01*
X168245809Y-55249417D01*
X168246162Y-55249916D01*
X168246494Y-55250429D01*
X168246803Y-55250954D01*
X168247088Y-55251491D01*
X168247349Y-55252039D01*
X168247584Y-55252598D01*
X168247793Y-55253166D01*
X168247975Y-55253744D01*
X168248129Y-55254330D01*
X168248254Y-55254923D01*
X168298503Y-55524870D01*
X168298630Y-55525468D01*
X168298784Y-55526068D01*
X168299170Y-55527271D01*
X168299655Y-55528469D01*
X168300232Y-55529656D01*
X168300893Y-55530824D01*
X168301633Y-55531964D01*
X168302444Y-55533069D01*
X168303319Y-55534132D01*
X168304253Y-55535143D01*
X168305238Y-55536096D01*
X168306266Y-55536982D01*
X168307333Y-55537794D01*
X168308430Y-55538524D01*
X168309552Y-55539164D01*
X168310119Y-55539448D01*
X168310690Y-55539706D01*
X168311264Y-55539938D01*
X168311839Y-55540143D01*
X168492767Y-55614206D01*
X168493891Y-55614701D01*
X168495083Y-55615115D01*
X168496333Y-55615447D01*
X168497629Y-55615700D01*
X168498963Y-55615873D01*
X168500322Y-55615967D01*
X168501697Y-55615984D01*
X168503077Y-55615923D01*
X168504451Y-55615786D01*
X168505810Y-55615573D01*
X168507142Y-55615285D01*
X168508438Y-55614923D01*
X168509686Y-55614487D01*
X168510876Y-55613979D01*
X168511998Y-55613398D01*
X168513041Y-55612746D01*
X168738566Y-55457982D01*
X168739074Y-55457652D01*
X168739597Y-55457346D01*
X168740134Y-55457067D01*
X168740683Y-55456813D01*
X168741245Y-55456584D01*
X168741816Y-55456381D01*
X168742397Y-55456203D01*
X168742987Y-55456050D01*
X168743583Y-55455923D01*
X168744185Y-55455820D01*
X168745402Y-55455688D01*
X168746628Y-55455655D01*
X168747855Y-55455720D01*
X168749074Y-55455881D01*
X168750274Y-55456139D01*
X168751447Y-55456491D01*
X168752021Y-55456703D01*
X168752584Y-55456938D01*
X168753136Y-55457196D01*
X168753676Y-55457478D01*
X168754202Y-55457782D01*
X168754713Y-55458110D01*
X168755208Y-55458461D01*
X168755686Y-55458834D01*
X168756145Y-55459231D01*
X168756585Y-55459649D01*
X168946515Y-55649579D01*
X168946934Y-55650019D01*
X168947330Y-55650479D01*
X168947703Y-55650957D01*
X168948053Y-55651453D01*
X168948381Y-55651964D01*
X168948685Y-55652490D01*
X168949223Y-55653583D01*
X168949667Y-55654721D01*
X168950018Y-55655896D01*
X168950273Y-55657097D01*
X168950433Y-55658317D01*
X168950496Y-55659546D01*
X168950462Y-55660774D01*
X168950331Y-55661992D01*
X168950101Y-55663191D01*
X168949772Y-55664363D01*
X168949570Y-55664935D01*
X168949343Y-55665496D01*
X168949091Y-55666046D01*
X168948813Y-55666584D01*
X168948510Y-55667107D01*
X168948182Y-55667615D01*
X168796118Y-55889250D01*
X168795464Y-55890297D01*
X168794883Y-55891421D01*
X168794377Y-55892611D01*
X168793946Y-55893856D01*
X168793590Y-55895147D01*
X168793310Y-55896473D01*
X168793108Y-55897824D01*
X168792982Y-55899190D01*
X168792935Y-55900561D01*
X168792967Y-55901926D01*
X168793078Y-55903276D01*
X168793269Y-55904599D01*
X168793541Y-55905886D01*
X168793894Y-55907127D01*
X168794330Y-55908311D01*
X168794848Y-55909429D01*
X168874849Y-56096072D01*
X168875306Y-56097218D01*
X168875868Y-56098354D01*
X168876526Y-56099472D01*
X168877274Y-56100566D01*
X168878103Y-56101630D01*
X168879004Y-56102656D01*
X168879971Y-56103637D01*
X168880995Y-56104568D01*
X168882069Y-56105440D01*
X168883184Y-56106248D01*
X168884332Y-56106985D01*
X168885505Y-56107644D01*
X168886697Y-56108217D01*
X168887898Y-56108699D01*
X168889101Y-56109082D01*
X168890297Y-56109361D01*
X169151290Y-56157895D01*
X169151881Y-56158022D01*
X169152466Y-56158179D01*
X169153042Y-56158363D01*
X169153609Y-56158574D01*
X169154167Y-56158812D01*
X169154714Y-56159074D01*
X169155250Y-56159361D01*
X169155774Y-56159671D01*
X169156784Y-56160358D01*
X169157736Y-56161128D01*
X169158626Y-56161975D01*
X169159448Y-56162890D01*
X169160195Y-56163867D01*
X169160861Y-56164899D01*
X169161441Y-56165979D01*
X169161696Y-56166535D01*
X169161928Y-56167100D01*
X169162135Y-56167673D01*
X169162317Y-56168254D01*
X169162472Y-56168842D01*
X169162601Y-56169436D01*
X169162702Y-56170034D01*
X169162775Y-56170637D01*
X169162818Y-56171242D01*
X169162832Y-56171850D01*
X169162800Y-56440463D01*
X169162785Y-56441070D01*
X169162740Y-56441675D01*
X169162666Y-56442277D01*
X169162563Y-56442875D01*
X169162433Y-56443468D01*
X169162276Y-56444056D01*
X169162093Y-56444637D01*
X169161885Y-56445211D01*
X169161652Y-56445777D01*
X169161395Y-56446333D01*
X169161115Y-56446880D01*
X169160812Y-56447415D01*
X169160488Y-56447938D01*
X169160144Y-56448449D01*
X169159779Y-56448946D01*
X169159394Y-56449428D01*
X169158992Y-56449894D01*
X169158571Y-56450344D01*
X169158133Y-56450777D01*
X169157679Y-56451191D01*
X169157209Y-56451586D01*
X169156724Y-56451961D01*
X169156226Y-56452315D01*
X169155714Y-56452647D01*
X169155189Y-56452956D01*
X169154652Y-56453241D01*
X169154105Y-56453502D01*
X169153547Y-56453737D01*
X169152979Y-56453945D01*
X169152403Y-56454127D01*
X169151818Y-56454279D01*
X169151226Y-56454403D01*
X168896647Y-56501778D01*
X168896048Y-56501901D01*
X168895448Y-56502052D01*
X168894847Y-56502229D01*
X168894246Y-56502433D01*
X168893051Y-56502914D01*
X168891870Y-56503490D01*
X168890711Y-56504152D01*
X168889580Y-56504894D01*
X168888487Y-56505708D01*
X168887437Y-56506589D01*
X168886440Y-56507528D01*
X168885501Y-56508519D01*
X168884631Y-56509555D01*
X168883834Y-56510628D01*
X168883120Y-56511733D01*
X168882496Y-56512861D01*
X168881970Y-56514007D01*
X168881746Y-56514584D01*
X168881549Y-56515162D01*
X168802072Y-56713697D01*
X168801580Y-56714826D01*
X168801170Y-56716022D01*
X168800841Y-56717274D01*
X168800592Y-56718573D01*
X168800423Y-56719906D01*
X168800332Y-56721266D01*
X168800319Y-56722640D01*
X168800383Y-56724018D01*
X168800523Y-56725391D01*
X168800738Y-56726748D01*
X168801027Y-56728078D01*
X168801391Y-56729372D01*
X168801827Y-56730618D01*
X168802335Y-56731807D01*
X168802914Y-56732928D01*
X168803564Y-56733971D01*
X168948182Y-56944699D01*
X168948513Y-56945207D01*
X168948818Y-56945730D01*
X168949098Y-56946268D01*
X168949352Y-56946818D01*
X168949580Y-56947380D01*
X168949784Y-56947952D01*
X168949961Y-56948534D01*
X168950114Y-56949125D01*
X168950242Y-56949722D01*
X168950345Y-56950325D01*
X168950476Y-56951545D01*
X168950509Y-56952774D01*
X168950445Y-56954004D01*
X168950283Y-56955226D01*
X168950026Y-56956429D01*
X168949674Y-56957605D01*
X168949462Y-56958180D01*
X168949227Y-56958744D01*
X168948969Y-56959297D01*
X168948687Y-56959838D01*
X168948382Y-56960364D01*
X168948055Y-56960876D01*
X168947704Y-56961372D01*
X168947330Y-56961850D01*
X168946934Y-56962310D01*
X168946515Y-56962750D01*
X168756554Y-57152680D01*
X168756116Y-57153096D01*
X168755659Y-57153490D01*
X168755183Y-57153861D01*
X168754690Y-57154209D01*
X168754180Y-57154535D01*
X168753656Y-57154837D01*
X168752566Y-57155374D01*
X168751430Y-57155818D01*
X168750256Y-57156169D01*
X168749055Y-57156425D01*
X168747836Y-57156586D01*
X168746607Y-57156651D01*
X168745378Y-57156619D01*
X168744159Y-57156489D01*
X168742959Y-57156261D01*
X168741787Y-57155934D01*
X168741215Y-57155732D01*
X168740653Y-57155506D01*
X168740103Y-57155254D01*
X168739565Y-57154977D01*
X168739042Y-57154675D01*
X168738534Y-57154347D01*
X168531521Y-57012269D01*
X168530481Y-57011621D01*
X168529366Y-57011053D01*
X168528188Y-57010565D01*
X168526956Y-57010157D01*
X168525680Y-57009830D01*
X168524371Y-57009583D01*
X168523039Y-57009417D01*
X168521694Y-57009332D01*
X168520346Y-57009328D01*
X168519004Y-57009405D01*
X168517681Y-57009564D01*
X168516384Y-57009804D01*
X168515125Y-57010126D01*
X168513914Y-57010531D01*
X168512761Y-57011017D01*
X168511676Y-57011586D01*
X168420386Y-57060327D01*
X168419840Y-57060586D01*
X168419290Y-57060815D01*
X168418736Y-57061012D01*
X168418179Y-57061178D01*
X168417621Y-57061314D01*
X168417062Y-57061420D01*
X168416503Y-57061497D01*
X168415946Y-57061544D01*
X168415390Y-57061563D01*
X168414838Y-57061552D01*
X168414289Y-57061514D01*
X168413746Y-57061448D01*
X168413208Y-57061354D01*
X168412677Y-57061233D01*
X168412155Y-57061085D01*
X168411640Y-57060910D01*
X168411136Y-57060710D01*
X168410642Y-57060483D01*
X168410160Y-57060232D01*
X168409691Y-57059955D01*
X168409235Y-57059653D01*
X168408793Y-57059327D01*
X168408367Y-57058977D01*
X168407957Y-57058603D01*
X168407565Y-57058206D01*
X168407191Y-57057786D01*
X168406836Y-57057343D01*
X168406501Y-57056878D01*
X168406188Y-57056391D01*
X168405896Y-57055882D01*
X168405628Y-57055353D01*
X168405383Y-57054802D01*
X168217168Y-56599974D01*
X168216950Y-56599408D01*
X168216762Y-56598834D01*
X168216601Y-56598252D01*
X168216469Y-56597663D01*
X168216365Y-56597070D01*
X168216287Y-56596472D01*
X168216237Y-56595871D01*
X168216214Y-56595268D01*
X168216217Y-56594663D01*
X168216246Y-56594059D01*
X168216300Y-56593456D01*
X168216379Y-56592855D01*
X168216484Y-56592258D01*
X168216612Y-56591664D01*
X168216765Y-56591077D01*
X168216942Y-56590496D01*
X168217142Y-56589922D01*
X168217365Y-56589357D01*
X168217610Y-56588802D01*
X168217878Y-56588258D01*
X168218167Y-56587726D01*
X168218479Y-56587207D01*
X168218811Y-56586702D01*
X168219164Y-56586212D01*
X168219537Y-56585738D01*
X168219931Y-56585282D01*
X168220344Y-56584844D01*
X168220777Y-56584426D01*
X168221228Y-56584029D01*
X168221698Y-56583653D01*
X168222187Y-56583299D01*
X168222693Y-56582970D01*
X168245539Y-56568983D01*
X168247184Y-56567936D01*
X168248939Y-56566741D01*
X168250773Y-56565423D01*
X168252652Y-56564010D01*
X168254543Y-56562527D01*
X168256412Y-56560999D01*
X168258227Y-56559454D01*
X168259955Y-56557917D01*
X168275079Y-56547565D01*
X168289512Y-56536326D01*
X168303216Y-56524237D01*
X168316151Y-56511340D01*
X168328278Y-56497672D01*
X168339556Y-56483273D01*
X168349948Y-56468182D01*
X168359413Y-56452438D01*
X168367912Y-56436081D01*
X168375406Y-56419149D01*
X168381854Y-56401682D01*
X168387219Y-56383719D01*
X168391460Y-56365299D01*
X168394538Y-56346461D01*
X168396414Y-56327245D01*
X168397048Y-56307689D01*
X168396662Y-56292402D01*
X168395514Y-56277315D01*
X168393625Y-56262448D01*
X168391013Y-56247819D01*
X168387696Y-56233447D01*
X168383693Y-56219350D01*
X168379023Y-56205547D01*
X168373704Y-56192057D01*
X168367755Y-56178898D01*
X168361195Y-56166089D01*
X168354043Y-56153649D01*
X168346316Y-56141596D01*
X168338034Y-56129949D01*
X168329215Y-56118727D01*
X168319879Y-56107949D01*
X168310043Y-56097632D01*
X168299727Y-56087796D01*
X168288949Y-56078459D01*
X168277727Y-56069640D01*
X168266081Y-56061358D01*
X168254029Y-56053631D01*
X168241589Y-56046478D01*
X168228781Y-56039918D01*
X168215623Y-56033969D01*
X168202134Y-56028650D01*
X168188332Y-56023980D01*
X168174236Y-56019977D01*
X168159864Y-56016660D01*
X168145237Y-56014048D01*
X168130371Y-56012159D01*
X168115286Y-56011012D01*
X168100000Y-56010625D01*
X168084714Y-56011012D01*
X168069629Y-56012159D01*
X168054763Y-56014048D01*
X168040135Y-56016660D01*
X168025763Y-56019977D01*
X168011667Y-56023980D01*
X167997865Y-56028650D01*
X167984375Y-56033969D01*
X167971216Y-56039918D01*
X167958407Y-56046478D01*
X167945967Y-56053631D01*
X167933914Y-56061358D01*
X167922267Y-56069640D01*
X167911045Y-56078459D01*
X167900266Y-56087796D01*
X167889949Y-56097632D01*
X167880112Y-56107949D01*
X167870775Y-56118727D01*
X167861956Y-56129949D01*
X167853673Y-56141596D01*
X167845946Y-56153649D01*
X167838793Y-56166089D01*
X167832232Y-56178898D01*
X167826283Y-56192057D01*
X167820963Y-56205547D01*
X167816293Y-56219350D01*
X167812289Y-56233447D01*
X167808972Y-56247819D01*
X167806359Y-56262448D01*
X167804470Y-56277315D01*
X167803323Y-56292402D01*
X167802936Y-56307689D01*
X167803095Y-56317507D01*
X167803570Y-56327245D01*
X167804356Y-56336898D01*
X167805447Y-56346461D01*
X167806838Y-56355930D01*
X167808525Y-56365299D01*
X167810503Y-56374564D01*
X167812767Y-56383719D01*
X167815312Y-56392760D01*
X167818133Y-56401682D01*
X167821225Y-56410480D01*
X167824583Y-56419149D01*
X167828202Y-56427684D01*
X167832077Y-56436081D01*
X167840577Y-56452438D01*
X167850043Y-56468182D01*
X167860435Y-56483273D01*
X167871713Y-56497672D01*
X167883840Y-56511340D01*
X167896774Y-56524237D01*
X167910476Y-56536326D01*
X167924908Y-56547565D01*
X167940029Y-56557917D01*
X167941767Y-56559454D01*
X167943588Y-56560999D01*
X167945461Y-56562527D01*
X167947354Y-56564010D01*
X167949234Y-56565423D01*
X167951069Y-56566741D01*
X167952828Y-56567936D01*
X167954477Y-56568983D01*
X167977323Y-56582970D01*
X167977832Y-56583299D01*
X167978323Y-56583653D01*
X167978795Y-56584029D01*
X167979249Y-56584426D01*
X167979683Y-56584844D01*
X167980098Y-56585282D01*
X167980868Y-56586212D01*
X167981555Y-56587207D01*
X167982156Y-56588258D01*
X167982670Y-56589357D01*
X167983092Y-56590496D01*
X167983420Y-56591664D01*
X167983652Y-56592855D01*
X167983784Y-56594059D01*
X167983813Y-56595268D01*
X167983737Y-56596472D01*
X167983659Y-56597070D01*
X167983553Y-56597663D01*
X167983419Y-56598252D01*
X167983257Y-56598834D01*
X167983067Y-56599408D01*
X167982848Y-56599974D01*
X167794617Y-57054786D01*
X167794372Y-57055337D01*
X167794104Y-57055867D01*
X167793812Y-57056376D01*
X167793498Y-57056863D01*
X167793163Y-57057328D01*
X167792808Y-57057771D01*
X167792433Y-57058192D01*
X167792040Y-57058590D01*
X167791630Y-57058964D01*
X167791204Y-57059314D01*
X167790762Y-57059641D01*
X167790305Y-57059943D01*
X167789835Y-57060220D01*
X167789353Y-57060473D01*
X167788858Y-57060699D01*
X167788354Y-57060900D01*
X167787839Y-57061075D01*
X167787316Y-57061223D01*
X167786785Y-57061345D01*
X167786247Y-57061439D01*
X167785704Y-57061505D01*
X167785155Y-57061544D01*
X167784603Y-57061554D01*
X167784048Y-57061535D01*
X167783490Y-57061487D01*
X167782932Y-57061410D01*
X167782374Y-57061304D01*
X167781816Y-57061167D01*
X167781260Y-57060999D01*
X167780707Y-57060801D01*
X167780158Y-57060572D01*
X167779614Y-57060311D01*
X167688324Y-57011570D01*
X167687242Y-57011002D01*
X167686090Y-57010515D01*
X167684881Y-57010112D01*
X167683623Y-57009790D01*
X167682327Y-57009551D01*
X167681003Y-57009393D01*
X167679661Y-57009317D01*
X167678312Y-57009322D01*
X167676966Y-57009408D01*
X167675633Y-57009574D01*
X167674323Y-57009821D01*
X167673046Y-57010148D01*
X167671814Y-57010555D01*
X167670634Y-57011042D01*
X167669519Y-57011608D01*
X167668479Y-57012253D01*
X167461482Y-57154331D01*
X167460972Y-57154659D01*
X167460448Y-57154962D01*
X167459909Y-57155239D01*
X167459358Y-57155490D01*
X167458796Y-57155717D01*
X167458222Y-57155918D01*
X167457640Y-57156094D01*
X167457050Y-57156245D01*
X167456452Y-57156372D01*
X167455849Y-57156473D01*
X167454630Y-57156603D01*
X167453401Y-57156635D01*
X167452172Y-57156570D01*
X167450953Y-57156409D01*
X167449751Y-57156153D01*
X167448578Y-57155802D01*
X167448004Y-57155592D01*
X167447441Y-57155358D01*
X167446889Y-57155101D01*
X167446350Y-57154821D01*
X167445825Y-57154519D01*
X167445314Y-57154193D01*
X167444820Y-57153845D01*
X167444343Y-57153474D01*
X167443885Y-57153080D01*
X167443446Y-57152664D01*
X167253485Y-56962734D01*
X167253067Y-56962294D01*
X167252672Y-56961834D01*
X167252300Y-56961356D01*
X167251951Y-56960860D01*
X167251624Y-56960349D01*
X167251320Y-56959822D01*
X167250782Y-56958728D01*
X167250337Y-56957589D01*
X167249985Y-56956413D01*
X167249728Y-56955210D01*
X167249567Y-56953988D01*
X167249502Y-56952758D01*
X167249535Y-56951529D01*
X167249665Y-56950309D01*
X167249895Y-56949109D01*
X167250224Y-56947937D01*
X167250426Y-56947364D01*
X167250653Y-56946802D01*
X167250906Y-56946252D01*
X167251184Y-56945714D01*
X167251488Y-56945191D01*
X167251818Y-56944683D01*
X167396420Y-56733955D01*
X167397075Y-56732912D01*
X167397659Y-56731791D01*
X167398171Y-56730603D01*
X167398609Y-56729356D01*
X167398975Y-56728063D01*
X167399265Y-56726732D01*
X167399481Y-56725376D01*
X167399621Y-56724003D01*
X167399685Y-56722624D01*
X167399671Y-56721250D01*
X167399580Y-56719891D01*
X167399410Y-56718557D01*
X167399160Y-56717258D01*
X167398831Y-56716006D01*
X167398420Y-56714810D01*
X167397928Y-56713681D01*
X167318451Y-56515146D01*
X167318255Y-56514568D01*
X167318032Y-56513991D01*
X167317507Y-56512845D01*
X167316883Y-56511717D01*
X167316168Y-56510612D01*
X167315370Y-56509539D01*
X167314496Y-56508503D01*
X167313555Y-56507512D01*
X167312555Y-56506573D01*
X167311503Y-56505692D01*
X167310406Y-56504878D01*
X167309273Y-56504136D01*
X167308112Y-56503474D01*
X167306930Y-56502899D01*
X167305735Y-56502417D01*
X167304534Y-56502036D01*
X167303935Y-56501885D01*
X167303337Y-56501762D01*
X167048758Y-56454387D01*
X167048165Y-56454263D01*
X167047579Y-56454111D01*
X167047002Y-56453930D01*
X167046433Y-56453721D01*
X167045874Y-56453486D01*
X167045326Y-56453225D01*
X167044789Y-56452940D01*
X167044264Y-56452631D01*
X167043752Y-56452299D01*
X167043253Y-56451945D01*
X167042298Y-56451175D01*
X167041407Y-56450328D01*
X167040584Y-56449412D01*
X167039835Y-56448433D01*
X167039168Y-56447399D01*
X167038586Y-56446317D01*
X167038097Y-56445195D01*
X167037889Y-56444621D01*
X167037707Y-56444040D01*
X167037550Y-56443452D01*
X167037420Y-56442859D01*
X167037318Y-56442261D01*
X167037244Y-56441659D01*
X167037199Y-56441054D01*
X167037184Y-56440447D01*
X167037168Y-56171834D01*
X167037183Y-56171228D01*
X167037228Y-56170623D01*
X167037302Y-56170022D01*
X167037404Y-56169425D01*
X167037533Y-56168833D01*
X167037690Y-56168246D01*
X167037872Y-56167666D01*
X167038079Y-56167093D01*
X167038311Y-56166529D01*
X167038567Y-56165974D01*
X167038846Y-56165429D01*
X167039148Y-56164895D01*
X167039471Y-56164373D01*
X167039814Y-56163864D01*
X167040179Y-56163369D01*
X167040562Y-56162888D01*
X167040964Y-56162422D01*
X167041384Y-56161973D01*
X167041822Y-56161541D01*
X167042276Y-56161128D01*
X167042745Y-56160733D01*
X167043230Y-56160358D01*
X167043729Y-56160004D01*
X167044241Y-56159671D01*
X167044767Y-56159361D01*
X167045304Y-56159074D01*
X167045853Y-56158812D01*
X167046413Y-56158574D01*
X167046982Y-56158363D01*
X167047561Y-56158179D01*
X167048148Y-56158022D01*
X167048742Y-56157895D01*
X167309719Y-56109361D01*
X167310319Y-56109235D01*
X167310921Y-56109082D01*
X167312128Y-56108699D01*
X167313332Y-56108217D01*
X167314526Y-56107644D01*
X167315701Y-56106985D01*
X167316851Y-56106248D01*
X167317966Y-56105440D01*
X167319038Y-56104568D01*
X167320062Y-56103637D01*
X167321027Y-56102656D01*
X167321927Y-56101630D01*
X167322753Y-56100566D01*
X167323498Y-56099472D01*
X167324154Y-56098354D01*
X167324713Y-56097218D01*
X167324953Y-56096646D01*
X167325167Y-56096072D01*
X167405184Y-55909429D01*
X167405699Y-55908311D01*
X167406132Y-55907127D01*
X167406484Y-55905886D01*
X167406754Y-55904599D01*
X167406944Y-55903276D01*
X167407055Y-55901926D01*
X167407086Y-55900561D01*
X167407040Y-55899190D01*
X167406915Y-55897824D01*
X167406714Y-55896473D01*
X167406437Y-55895147D01*
X167406084Y-55893856D01*
X167405656Y-55892611D01*
X167405154Y-55891421D01*
X167404578Y-55890297D01*
X167403930Y-55889250D01*
X167251849Y-55667615D01*
X167251519Y-55667107D01*
X167251214Y-55666584D01*
X167250934Y-55666046D01*
X167250681Y-55665496D01*
X167250452Y-55664935D01*
X167250250Y-55664363D01*
X167250072Y-55663781D01*
X167249920Y-55663191D01*
X167249792Y-55662595D01*
X167249690Y-55661992D01*
X167249560Y-55660774D01*
X167249528Y-55659546D01*
X167249593Y-55658317D01*
X167249755Y-55657097D01*
X167250013Y-55655896D01*
X167250365Y-55654721D01*
X167250576Y-55654147D01*
X167250811Y-55653583D01*
X167251069Y-55653030D01*
X167251350Y-55652490D01*
X167251655Y-55651964D01*
X167251982Y-55651453D01*
X167252331Y-55650957D01*
X167252704Y-55650479D01*
X167253099Y-55650019D01*
X167253516Y-55649579D01*
X167443462Y-55459649D01*
X167443901Y-55459231D01*
X167444359Y-55458834D01*
X167444836Y-55458461D01*
X167445330Y-55458110D01*
X167445841Y-55457782D01*
X167446366Y-55457478D01*
X167447457Y-55456938D01*
X167448594Y-55456491D01*
X167449767Y-55456139D01*
X167450969Y-55455881D01*
X167452188Y-55455720D01*
X167453417Y-55455655D01*
X167454645Y-55455688D01*
X167455865Y-55455820D01*
X167457065Y-55456050D01*
X167458238Y-55456381D01*
X167458811Y-55456584D01*
X167459374Y-55456813D01*
X167459925Y-55457067D01*
X167460464Y-55457346D01*
X167460988Y-55457652D01*
X167461498Y-55457982D01*
X167687006Y-55612746D01*
X167688047Y-55613398D01*
X167689166Y-55613979D01*
X167690355Y-55614487D01*
X167691601Y-55614923D01*
X167692895Y-55615285D01*
X167694226Y-55615573D01*
X167695585Y-55615786D01*
X167696959Y-55615923D01*
X167698339Y-55615984D01*
X167699715Y-55615967D01*
X167701075Y-55615873D01*
X167702409Y-55615700D01*
X167703708Y-55615447D01*
X167704959Y-55615115D01*
X167706154Y-55614701D01*
X167707281Y-55614206D01*
X167888224Y-55540143D01*
X167889376Y-55539706D01*
X167890516Y-55539164D01*
X167891639Y-55538524D01*
X167892737Y-55537794D01*
X167893804Y-55536982D01*
X167894833Y-55536096D01*
X167895817Y-55535143D01*
X167896750Y-55534132D01*
X167897625Y-55533069D01*
X167898435Y-55531964D01*
X167899173Y-55530824D01*
X167899834Y-55529656D01*
X167900410Y-55528469D01*
X167900894Y-55527271D01*
X167901280Y-55526068D01*
X167901561Y-55524870D01*
X167951793Y-55254923D01*
X167951918Y-55254330D01*
X167952072Y-55253744D01*
X167952254Y-55253166D01*
X167952463Y-55252598D01*
X167952699Y-55252039D01*
X167952960Y-55251491D01*
X167953245Y-55250954D01*
X167953554Y-55250429D01*
X167953885Y-55249916D01*
X167954238Y-55249417D01*
X167955007Y-55248463D01*
X167955851Y-55247571D01*
X167956765Y-55246749D01*
X167957741Y-55246000D01*
X167958771Y-55245332D01*
X167959849Y-55244751D01*
X167960404Y-55244495D01*
X167960967Y-55244262D01*
X167961539Y-55244054D01*
X167962119Y-55243872D01*
X167962705Y-55243715D01*
X167963297Y-55243585D01*
X167963893Y-55243483D01*
X167964493Y-55243409D01*
X167965096Y-55243364D01*
X167965701Y-55243349D01*
X168234331Y-55243349D01*
X168234937Y-55243364D01*
G37*
D13*
X150000000Y-56200000D03*
X168100000Y-47800000D03*
D14*
X153900000Y-48725000D03*
D15*
X153900000Y-52425000D03*
D16*
X153900000Y-55225000D03*
X164200000Y-55225000D03*
D15*
X164200000Y-52425000D03*
D16*
X164200000Y-48725000D03*
%LPD*%
M02*
